<svg xmlns="http://www.w3.org/2000/svg" xmlns:xlink="http://www.w3.org/1999/xlink" width="500" zoomAndPan="magnify" viewBox="0 0 375 374.999991" height="500" preserveAspectRatio="xMidYMid meet" version="1.0"><defs><g/><clipPath id="52def81d02"><path d="M 96.140625 145.914062 L 185.214844 145.914062 L 185.214844 245.566406 L 96.140625 245.566406 Z M 96.140625 145.914062 " clip-rule="nonzero"/></clipPath><clipPath id="fddedd7f81"><path d="M 285.21875 185.09375 L 309.140625 185.09375 L 309.140625 209 L 285.21875 209 Z M 285.21875 185.09375 " clip-rule="nonzero"/></clipPath></defs><rect x="-37.5" width="450" fill="#ffffff" y="-37.499999" height="449.999989" fill-opacity="1"/><rect x="-37.5" width="450" fill="#ffffff" y="-37.499999" height="449.999989" fill-opacity="1"/><path fill="#1a477e" d="M 147.527344 210.550781 C 147.527344 210.550781 147.679688 210.453125 147.992188 210.296875 C 148.304688 210.152344 148.78125 209.9375 149.449219 209.789062 C 150.113281 209.648438 150.980469 209.5625 151.96875 209.808594 C 152.460938 209.933594 152.972656 210.144531 153.46875 210.460938 C 153.960938 210.78125 154.429688 211.199219 154.851562 211.695312 C 155.277344 212.191406 155.652344 212.777344 155.992188 213.398438 C 156.332031 214.023438 156.640625 214.6875 156.945312 215.390625 C 157.558594 216.792969 158.117188 218.34375 158.703125 219.992188 C 159.285156 221.640625 159.875 223.402344 160.535156 225.234375 C 161.199219 227.058594 161.910156 228.976562 162.832031 230.839844 C 163.296875 231.765625 163.808594 232.6875 164.429688 233.484375 C 164.738281 233.882812 165.074219 234.238281 165.429688 234.519531 C 165.515625 234.59375 165.609375 234.644531 165.695312 234.710938 C 165.789062 234.757812 165.878906 234.820312 165.96875 234.859375 C 166.148438 234.949219 166.328125 235.003906 166.503906 235.03125 C 166.679688 235.066406 166.855469 235.058594 167.039062 235.035156 C 167.21875 235.011719 167.410156 234.945312 167.605469 234.871094 C 167.992188 234.699219 168.40625 234.425781 168.78125 234.085938 L 168.824219 234.050781 C 168.835938 234.039062 168.84375 234.03125 168.851562 234.019531 L 168.898438 233.96875 C 168.933594 233.933594 168.960938 233.90625 169 233.863281 C 169.074219 233.769531 169.152344 233.6875 169.222656 233.585938 L 169.328125 233.441406 L 169.429688 233.285156 C 169.5 233.183594 169.558594 233.070312 169.621094 232.960938 C 169.871094 232.515625 170.078125 232.007812 170.257812 231.472656 C 170.613281 230.402344 170.867188 229.226562 171.09375 228.019531 C 171.3125 226.804688 171.5 225.550781 171.703125 224.269531 C 172.097656 221.707031 172.546875 219.039062 173.367188 216.351562 C 173.777344 215.007812 174.285156 213.660156 174.949219 212.351562 C 175.609375 211.042969 176.4375 209.78125 177.441406 208.636719 C 178.441406 207.484375 179.640625 206.480469 180.945312 205.660156 C 181.605469 205.253906 182.292969 204.898438 182.996094 204.585938 L 183.527344 204.363281 C 183.703125 204.289062 183.886719 204.226562 184.0625 204.15625 L 184.332031 204.058594 L 184.632812 203.960938 L 185.640625 203.644531 C 185.820312 203.59375 186.019531 203.546875 186.203125 203.5 L 186.773438 203.359375 C 186.964844 203.3125 187.15625 203.261719 187.339844 203.234375 C 187.710938 203.164062 188.082031 203.09375 188.453125 203.027344 C 188.824219 202.96875 189.199219 202.925781 189.574219 202.875 C 191.070312 202.703125 192.578125 202.644531 194.070312 202.695312 C 195.5625 202.75 197.042969 202.890625 198.511719 203.09375 C 199.976562 203.300781 201.421875 203.578125 202.851562 203.886719 C 204.28125 204.191406 205.695312 204.558594 207.089844 204.921875 C 208.472656 205.289062 209.859375 205.660156 211.238281 206.023438 C 213.996094 206.757812 216.730469 207.507812 219.453125 208.199219 C 220.808594 208.546875 222.164062 208.878906 223.515625 209.199219 C 224.1875 209.355469 224.859375 209.515625 225.53125 209.667969 C 226.207031 209.816406 226.875 209.960938 227.542969 210.109375 C 230.21875 210.675781 232.875 211.152344 235.496094 211.515625 C 240.726562 212.234375 245.875 212.484375 250.738281 212.429688 C 255.609375 212.375 260.210938 211.988281 264.417969 211.355469 C 266.519531 211.042969 268.527344 210.660156 270.421875 210.246094 C 272.320312 209.828125 274.105469 209.371094 275.765625 208.882812 C 279.089844 207.90625 281.9375 206.855469 284.226562 205.859375 C 286.511719 204.859375 288.273438 203.980469 289.449219 203.335938 C 289.75 203.179688 290.003906 203.035156 290.226562 202.90625 C 290.453125 202.78125 290.640625 202.675781 290.792969 202.59375 C 291.09375 202.421875 291.25 202.335938 291.25 202.335938 C 291.25 202.335938 291.101562 202.4375 290.816406 202.632812 C 290.675781 202.730469 290.496094 202.855469 290.285156 203 C 290.074219 203.148438 289.832031 203.316406 289.546875 203.492188 C 289.261719 203.675781 288.945312 203.878906 288.597656 204.101562 C 288.246094 204.320312 287.855469 204.550781 287.4375 204.804688 C 286.601562 205.304688 285.617188 205.855469 284.5 206.433594 C 282.265625 207.601562 279.46875 208.871094 276.152344 210.0625 C 272.832031 211.246094 268.996094 212.339844 264.734375 213.183594 C 262.605469 213.605469 260.367188 213.960938 258.042969 214.242188 C 255.714844 214.527344 253.300781 214.722656 250.8125 214.84375 C 245.828125 215.0625 240.566406 214.964844 235.136719 214.335938 C 232.421875 214.027344 229.691406 213.578125 226.949219 213.042969 C 226.261719 212.914062 225.578125 212.769531 224.886719 212.628906 C 224.199219 212.488281 223.515625 212.332031 222.824219 212.1875 C 221.449219 211.875 220.074219 211.550781 218.695312 211.214844 C 215.941406 210.539062 213.179688 209.828125 210.421875 209.09375 C 209.042969 208.734375 207.660156 208.371094 206.28125 208.007812 C 204.902344 207.652344 203.539062 207.308594 202.167969 207.015625 C 200.796875 206.714844 199.425781 206.449219 198.058594 206.25 C 196.6875 206.058594 195.320312 205.925781 193.960938 205.871094 L 192.941406 205.847656 C 192.605469 205.84375 192.269531 205.863281 191.929688 205.867188 C 191.761719 205.871094 191.59375 205.867188 191.425781 205.882812 L 190.925781 205.914062 C 190.59375 205.941406 190.257812 205.953125 189.925781 206 C 189.597656 206.042969 189.265625 206.074219 188.9375 206.125 C 188.609375 206.179688 188.285156 206.238281 187.960938 206.292969 C 187.792969 206.320312 187.640625 206.359375 187.488281 206.394531 L 187.027344 206.503906 C 186.871094 206.542969 186.722656 206.570312 186.5625 206.613281 L 186.054688 206.769531 L 185.550781 206.921875 L 185.359375 206.980469 C 185.359375 206.980469 185.269531 207.007812 185.34375 206.984375 L 185.117188 207.066406 C 184.96875 207.121094 184.816406 207.171875 184.667969 207.230469 L 184.226562 207.410156 C 183.644531 207.664062 183.085938 207.949219 182.546875 208.269531 C 181.476562 208.917969 180.503906 209.699219 179.675781 210.625 C 178.84375 211.542969 178.132812 212.578125 177.546875 213.695312 C 176.957031 214.8125 176.46875 215.992188 176.070312 217.207031 C 175.261719 219.640625 174.777344 222.1875 174.300781 224.710938 C 174.066406 225.980469 173.839844 227.246094 173.570312 228.507812 C 173.296875 229.773438 172.992188 231.035156 172.519531 232.285156 C 172.285156 232.910156 172.011719 233.53125 171.648438 234.132812 C 171.554688 234.28125 171.464844 234.433594 171.359375 234.578125 L 171.207031 234.796875 L 171.035156 235.007812 C 170.929688 235.152344 170.796875 235.285156 170.675781 235.421875 C 170.613281 235.488281 170.53125 235.5625 170.457031 235.632812 L 170.347656 235.738281 L 170.292969 235.789062 L 170.25 235.824219 C 169.714844 236.261719 169.125 236.644531 168.421875 236.921875 C 167.722656 237.191406 166.878906 237.308594 166.089844 237.128906 C 165.699219 237.046875 165.324219 236.90625 165 236.722656 C 164.832031 236.640625 164.683594 236.535156 164.53125 236.4375 C 164.390625 236.332031 164.242188 236.230469 164.117188 236.113281 C 163.59375 235.667969 163.183594 235.171875 162.824219 234.671875 C 162.117188 233.667969 161.601562 232.636719 161.15625 231.621094 C 160.710938 230.605469 160.339844 229.597656 159.996094 228.613281 C 159.65625 227.625 159.351562 226.660156 159.070312 225.71875 C 158.503906 223.828125 158.003906 222.039062 157.527344 220.367188 C 157.050781 218.691406 156.582031 217.136719 156.085938 215.730469 C 155.585938 214.324219 155.070312 213.058594 154.355469 212.089844 C 153.648438 211.121094 152.746094 210.476562 151.859375 210.179688 C 150.972656 209.875 150.136719 209.886719 149.484375 209.972656 C 148.824219 210.0625 148.335938 210.222656 148.011719 210.34375 C 147.6875 210.464844 147.527344 210.550781 147.527344 210.550781 " fill-opacity="1" fill-rule="nonzero"/><g clip-path="url(#52def81d02)"><path fill="#1a477e" d="M 183.417969 175.96875 C 183.417969 175.96875 183.449219 175.722656 183.511719 175.246094 C 183.570312 174.769531 183.652344 174.0625 183.746094 173.140625 C 183.835938 172.21875 183.929688 171.078125 183.996094 169.742188 C 184.050781 168.40625 184.082031 166.871094 183.980469 165.167969 C 183.925781 164.320312 183.835938 163.429688 183.6875 162.511719 C 183.539062 161.597656 183.324219 160.65625 183 159.730469 C 182.671875 158.8125 182.230469 157.902344 181.617188 157.136719 C 181.003906 156.371094 180.210938 155.773438 179.269531 155.445312 C 178.328125 155.113281 177.238281 155.039062 176.097656 155.164062 C 174.957031 155.289062 173.769531 155.605469 172.574219 156.039062 C 171.375 156.480469 170.164062 157.027344 168.949219 157.660156 C 168.34375 157.976562 167.734375 158.3125 167.125 158.667969 C 166.535156 159.011719 165.867188 159.421875 165.152344 159.792969 C 163.753906 160.535156 162.234375 161.15625 160.617188 161.621094 C 159.003906 162.078125 157.285156 162.363281 155.53125 162.425781 C 153.777344 162.496094 151.992188 162.332031 150.238281 162 C 148.484375 161.667969 146.757812 161.160156 145.078125 160.554688 C 143.390625 159.953125 141.75 159.238281 140.132812 158.488281 C 138.511719 157.738281 136.914062 156.945312 135.316406 156.171875 C 133.71875 155.394531 132.121094 154.632812 130.511719 153.933594 C 128.898438 153.238281 127.269531 152.617188 125.617188 152.140625 C 122.320312 151.175781 118.941406 150.828125 115.644531 151.453125 C 114.820312 151.609375 114 151.816406 113.191406 152.078125 C 112.988281 152.144531 112.785156 152.210938 112.585938 152.285156 L 112.433594 152.335938 C 112.363281 152.363281 112.449219 152.332031 112.410156 152.347656 L 112.324219 152.378906 L 111.988281 152.511719 C 111.878906 152.554688 111.753906 152.601562 111.660156 152.640625 L 111.398438 152.757812 L 111.140625 152.871094 C 111.050781 152.914062 110.957031 152.964844 110.867188 153.007812 C 109.386719 153.726562 108.050781 154.667969 106.917969 155.828125 C 105.78125 156.992188 104.839844 158.363281 104.105469 159.886719 C 103.367188 161.414062 102.832031 163.082031 102.46875 164.824219 C 102.105469 166.566406 101.90625 168.375 101.84375 170.214844 C 101.808594 171.132812 101.808594 172.058594 101.839844 172.988281 C 101.867188 173.917969 101.929688 174.847656 102.011719 175.78125 C 102.347656 179.519531 103.089844 183.261719 104.085938 186.925781 C 104.582031 188.761719 105.15625 190.578125 105.777344 192.371094 C 106.402344 194.164062 107.085938 195.933594 107.820312 197.675781 C 108 198.113281 108.191406 198.542969 108.375 198.976562 C 108.574219 199.417969 108.769531 199.863281 108.964844 200.304688 C 109.355469 201.1875 109.75 202.066406 110.140625 202.949219 C 110.925781 204.707031 111.707031 206.457031 112.484375 208.195312 C 114.042969 211.675781 115.625 215.101562 117.074219 218.59375 C 117.4375 219.46875 117.789062 220.347656 118.132812 221.230469 C 118.46875 222.117188 118.796875 223.007812 119.097656 223.90625 C 119.402344 224.804688 119.6875 225.707031 119.945312 226.613281 C 120.195312 227.519531 120.433594 228.425781 120.640625 229.332031 C 121.058594 231.140625 121.382812 232.929688 121.664062 234.691406 C 121.730469 235.132812 121.800781 235.570312 121.867188 236.007812 C 121.886719 236.121094 121.933594 236.449219 121.960938 236.570312 L 122.007812 236.800781 L 122.070312 237.054688 C 122.238281 237.730469 122.472656 238.371094 122.78125 238.945312 C 123.390625 240.097656 124.289062 240.964844 125.292969 241.355469 C 126.296875 241.757812 127.425781 241.679688 128.535156 241.195312 C 129.089844 240.949219 129.632812 240.613281 130.140625 240.199219 C 130.652344 239.789062 131.128906 239.3125 131.574219 238.792969 C 132.46875 237.757812 133.210938 236.566406 133.863281 235.339844 C 134.503906 234.105469 135.050781 232.824219 135.507812 231.539062 C 135.972656 230.253906 136.355469 228.964844 136.691406 227.6875 C 136.851562 227.039062 137.011719 226.394531 137.171875 225.761719 C 137.253906 225.433594 137.339844 225.109375 137.421875 224.789062 C 137.507812 224.46875 137.59375 224.152344 137.679688 223.839844 C 138.027344 222.585938 138.394531 221.371094 138.796875 220.207031 C 139.199219 219.042969 139.621094 217.925781 140.082031 216.863281 C 140.539062 215.804688 141.035156 214.796875 141.574219 213.859375 C 141.839844 213.390625 142.121094 212.9375 142.414062 212.507812 C 142.703125 212.074219 143.007812 211.664062 143.324219 211.273438 C 143.949219 210.492188 144.644531 209.808594 145.375 209.25 C 146.109375 208.695312 146.890625 208.273438 147.664062 208 C 148.441406 207.726562 149.210938 207.613281 149.914062 207.589844 C 151.328125 207.558594 152.476562 207.867188 153.363281 208.164062 C 154.253906 208.46875 154.902344 208.78125 155.335938 208.988281 C 155.765625 209.199219 155.984375 209.316406 155.984375 209.316406 C 155.984375 209.316406 155.753906 209.226562 155.300781 209.066406 C 154.847656 208.910156 154.171875 208.683594 153.273438 208.484375 C 152.828125 208.382812 152.320312 208.296875 151.765625 208.25 C 151.210938 208.203125 150.605469 208.195312 149.964844 208.28125 C 149.328125 208.363281 148.660156 208.539062 148.003906 208.84375 C 147.347656 209.148438 146.703125 209.578125 146.105469 210.128906 C 144.90625 211.234375 143.886719 212.792969 143.039062 214.621094 C 142.195312 216.453125 141.488281 218.550781 140.898438 220.839844 C 140.605469 221.984375 140.332031 223.179688 140.082031 224.414062 C 140.019531 224.726562 139.960938 225.035156 139.898438 225.351562 C 139.839844 225.664062 139.78125 225.980469 139.722656 226.296875 C 139.609375 226.949219 139.492188 227.613281 139.375 228.285156 C 139.121094 229.652344 138.792969 231.046875 138.382812 232.464844 C 137.972656 233.886719 137.46875 235.324219 136.828125 236.769531 C 136.179688 238.210938 135.386719 239.652344 134.339844 241.023438 C 133.8125 241.707031 133.21875 242.371094 132.539062 242.988281 C 131.859375 243.601562 131.078125 244.167969 130.191406 244.621094 C 129.300781 245.074219 128.296875 245.414062 127.214844 245.519531 C 126.679688 245.578125 126.128906 245.582031 125.574219 245.523438 C 125.027344 245.464844 124.476562 245.34375 123.949219 245.167969 C 122.890625 244.816406 121.917969 244.238281 121.101562 243.523438 C 120.695312 243.167969 120.320312 242.777344 119.976562 242.367188 C 119.640625 241.953125 119.339844 241.519531 119.066406 241.066406 C 118.53125 240.164062 118.121094 239.203125 117.835938 238.21875 L 117.730469 237.847656 L 117.632812 237.445312 C 117.5625 237.144531 117.546875 237.042969 117.484375 236.734375 C 117.40625 236.316406 117.324219 235.894531 117.242188 235.476562 C 116.910156 233.800781 116.539062 232.125 116.085938 230.46875 C 115.636719 228.8125 115.109375 227.171875 114.503906 225.535156 C 114.199219 224.714844 113.867188 223.894531 113.527344 223.070312 C 113.179688 222.246094 112.820312 221.421875 112.445312 220.589844 C 111.703125 218.929688 110.898438 217.257812 110.101562 215.558594 C 109.292969 213.859375 108.476562 212.144531 107.65625 210.421875 C 106.839844 208.691406 106.015625 206.949219 105.191406 205.199219 C 104.78125 204.320312 104.375 203.4375 103.964844 202.554688 C 103.761719 202.113281 103.558594 201.667969 103.355469 201.226562 C 103.148438 200.769531 102.941406 200.3125 102.742188 199.851562 C 101.132812 196.175781 99.742188 192.363281 98.644531 188.425781 C 97.542969 184.496094 96.734375 180.441406 96.351562 176.292969 C 96.261719 175.253906 96.195312 174.210938 96.164062 173.164062 C 96.132812 172.113281 96.132812 171.0625 96.175781 170.003906 C 96.25 167.890625 96.5 165.761719 96.953125 163.644531 C 97.179688 162.589844 97.464844 161.535156 97.816406 160.496094 C 98.167969 159.453125 98.589844 158.429688 99.085938 157.429688 C 100.078125 155.433594 101.386719 153.539062 103.003906 151.941406 C 104.617188 150.335938 106.523438 149.035156 108.539062 148.105469 C 108.667969 148.046875 108.789062 147.988281 108.917969 147.933594 L 109.324219 147.761719 L 109.730469 147.59375 C 109.859375 147.546875 109.960938 147.507812 110.078125 147.464844 L 110.417969 147.34375 L 110.503906 147.3125 C 110.515625 147.304688 110.660156 147.253906 110.644531 147.261719 L 110.835938 147.199219 C 111.089844 147.113281 111.347656 147.035156 111.601562 146.953125 C 112.628906 146.648438 113.675781 146.402344 114.734375 146.230469 C 116.855469 145.878906 119.011719 145.828125 121.101562 146.039062 C 123.191406 146.246094 125.199219 146.722656 127.097656 147.332031 C 129 147.945312 130.792969 148.699219 132.507812 149.496094 C 134.226562 150.296875 135.859375 151.152344 137.445312 152 C 139.03125 152.84375 140.574219 153.679688 142.09375 154.457031 C 143.617188 155.234375 145.121094 155.949219 146.613281 156.570312 C 148.105469 157.1875 149.597656 157.695312 151.078125 158.046875 C 152.558594 158.402344 154.03125 158.59375 155.480469 158.621094 C 156.929688 158.648438 158.355469 158.492188 159.730469 158.179688 C 161.109375 157.867188 162.433594 157.402344 163.703125 156.832031 C 164.324219 156.554688 164.933594 156.234375 165.621094 155.886719 C 166.292969 155.550781 166.964844 155.230469 167.640625 154.933594 C 168.988281 154.335938 170.347656 153.8125 171.726562 153.417969 C 173.105469 153.027344 174.507812 152.75 175.925781 152.695312 C 176.636719 152.667969 177.351562 152.695312 178.054688 152.808594 C 178.757812 152.921875 179.449219 153.117188 180.097656 153.40625 C 180.746094 153.695312 181.34375 154.074219 181.859375 154.523438 C 182.378906 154.96875 182.8125 155.472656 183.171875 156 C 183.890625 157.058594 184.308594 158.183594 184.585938 159.253906 C 184.863281 160.328125 185 161.367188 185.074219 162.351562 C 185.148438 163.335938 185.152344 164.269531 185.125 165.152344 C 185.066406 166.914062 184.886719 168.46875 184.683594 169.808594 C 184.484375 171.152344 184.265625 172.277344 184.070312 173.191406 C 183.878906 174.101562 183.710938 174.792969 183.597656 175.261719 C 183.480469 175.726562 183.417969 175.96875 183.417969 175.96875 " fill-opacity="1" fill-rule="nonzero"/></g><path fill="#1a477e" d="M 124.972656 165.800781 C 124.972656 165.800781 125.640625 165.777344 126.8125 165.703125 C 127.984375 165.625 129.65625 165.496094 131.65625 165.289062 C 132.65625 165.183594 133.738281 165.0625 134.878906 164.917969 C 136.019531 164.773438 137.222656 164.601562 138.460938 164.414062 C 139.699219 164.21875 140.976562 164.011719 142.269531 163.765625 C 143.5625 163.53125 144.871094 163.261719 146.171875 162.976562 C 146.824219 162.832031 147.472656 162.679688 148.117188 162.53125 C 148.757812 162.367188 149.402344 162.214844 150.035156 162.046875 C 151.296875 161.710938 152.535156 161.363281 153.722656 160.992188 C 154.3125 160.804688 154.898438 160.628906 155.460938 160.429688 C 156.023438 160.238281 156.578125 160.054688 157.109375 159.855469 C 158.175781 159.472656 159.164062 159.070312 160.074219 158.695312 C 160.523438 158.496094 160.953125 158.308594 161.367188 158.128906 C 161.769531 157.941406 162.152344 157.757812 162.511719 157.589844 C 162.6875 157.503906 162.863281 157.421875 163.027344 157.339844 C 163.191406 157.253906 163.351562 157.171875 163.503906 157.089844 C 163.808594 156.933594 164.085938 156.789062 164.335938 156.65625 C 164.835938 156.386719 165.214844 156.160156 165.480469 156.011719 C 165.742188 155.859375 165.882812 155.78125 165.882812 155.78125 L 167.425781 158.589844 C 167.425781 158.589844 167.269531 158.664062 166.972656 158.804688 C 166.675781 158.945312 166.246094 159.15625 165.695312 159.410156 C 165.414062 159.527344 165.105469 159.660156 164.769531 159.804688 C 164.601562 159.875 164.429688 159.953125 164.246094 160.027344 C 164.066406 160.105469 163.875 160.175781 163.679688 160.253906 C 163.285156 160.402344 162.871094 160.5625 162.429688 160.734375 C 161.984375 160.886719 161.519531 161.050781 161.03125 161.222656 C 160.054688 161.546875 158.992188 161.882812 157.863281 162.195312 C 157.296875 162.363281 156.714844 162.507812 156.117188 162.664062 C 155.523438 162.824219 154.914062 162.960938 154.292969 163.105469 C 153.050781 163.394531 151.757812 163.65625 150.445312 163.902344 C 149.792969 164.023438 149.128906 164.128906 148.464844 164.246094 C 147.796875 164.351562 147.128906 164.457031 146.460938 164.554688 C 145.121094 164.742188 143.78125 164.917969 142.460938 165.054688 C 141.140625 165.203125 139.835938 165.316406 138.578125 165.421875 C 137.320312 165.519531 136.101562 165.597656 134.945312 165.65625 C 133.789062 165.71875 132.699219 165.757812 131.691406 165.789062 C 129.671875 165.847656 127.992188 165.847656 126.816406 165.839844 C 125.640625 165.828125 124.972656 165.800781 124.972656 165.800781 " fill-opacity="1" fill-rule="nonzero"/><g clip-path="url(#fddedd7f81)"><path fill="#27aae1" d="M 309.140625 197.070312 C 298.464844 197.757812 297.90625 198.320312 297.214844 208.980469 C 296.523438 198.320312 295.964844 197.757812 285.289062 197.070312 C 295.964844 196.378906 296.523438 195.816406 297.214844 185.15625 C 297.90625 195.816406 298.464844 196.378906 309.140625 197.070312 " fill-opacity="1" fill-rule="nonzero"/></g><path fill="#27aae1" d="M 293.902344 207.660156 C 291.890625 207.789062 291.785156 207.894531 291.652344 209.90625 C 291.523438 207.894531 291.417969 207.789062 289.402344 207.660156 C 291.417969 207.527344 291.523438 207.421875 291.652344 205.410156 C 291.785156 207.421875 291.890625 207.527344 293.902344 207.660156 " fill-opacity="1" fill-rule="nonzero"/><path fill="#27aae1" d="M 282.042969 200.183594 C 276.679688 200.53125 276.398438 200.8125 276.050781 206.167969 C 275.703125 200.8125 275.421875 200.53125 270.0625 200.183594 C 275.421875 199.835938 275.703125 199.554688 276.050781 194.199219 C 276.398438 199.554688 276.679688 199.835938 282.042969 200.183594 " fill-opacity="1" fill-rule="nonzero"/><g fill="#000000" fill-opacity="1"><g transform="translate(115.92338, 191.999987)"><g><path d="M 3.546875 -7.75 C 4.535156 -7.75 5.429688 -7.488281 6.234375 -6.96875 L 5.703125 -5.8125 C 4.910156 -6.289062 4.15625 -6.53125 3.4375 -6.53125 C 3.050781 -6.53125 2.742188 -6.457031 2.515625 -6.3125 C 2.296875 -6.175781 2.1875 -5.976562 2.1875 -5.71875 C 2.1875 -5.46875 2.289062 -5.253906 2.5 -5.078125 C 2.707031 -4.898438 2.960938 -4.765625 3.265625 -4.671875 C 3.578125 -4.585938 3.910156 -4.484375 4.265625 -4.359375 C 4.628906 -4.234375 4.960938 -4.097656 5.265625 -3.953125 C 5.578125 -3.804688 5.832031 -3.582031 6.03125 -3.28125 C 6.238281 -2.976562 6.34375 -2.609375 6.34375 -2.171875 C 6.34375 -1.503906 6.070312 -0.96875 5.53125 -0.5625 C 4.988281 -0.15625 4.289062 0.046875 3.4375 0.046875 C 2.84375 0.046875 2.269531 -0.0625 1.71875 -0.28125 C 1.175781 -0.5 0.695312 -0.796875 0.28125 -1.171875 L 0.84375 -2.296875 C 1.238281 -1.941406 1.664062 -1.664062 2.125 -1.46875 C 2.59375 -1.269531 3.035156 -1.171875 3.453125 -1.171875 C 3.910156 -1.171875 4.265625 -1.253906 4.515625 -1.421875 C 4.765625 -1.585938 4.890625 -1.816406 4.890625 -2.109375 C 4.890625 -2.378906 4.785156 -2.601562 4.578125 -2.78125 C 4.378906 -2.957031 4.125 -3.085938 3.8125 -3.171875 C 3.507812 -3.253906 3.175781 -3.351562 2.8125 -3.46875 C 2.457031 -3.59375 2.125 -3.722656 1.8125 -3.859375 C 1.507812 -3.992188 1.253906 -4.210938 1.046875 -4.515625 C 0.835938 -4.816406 0.734375 -5.179688 0.734375 -5.609375 C 0.734375 -6.265625 0.988281 -6.785156 1.5 -7.171875 C 2.019531 -7.554688 2.703125 -7.75 3.546875 -7.75 Z M 3.546875 -7.75 "/></g></g></g><g fill="#000000" fill-opacity="1"><g transform="translate(122.760549, 191.999987)"><g><path d="M 6.265625 -6.53125 L 3.828125 -6.53125 L 3.828125 0 L 2.53125 0 L 2.53125 -6.53125 L 0.09375 -6.53125 L 0.09375 -7.703125 L 6.265625 -7.703125 Z M 6.265625 -6.53125 "/></g></g></g><g fill="#000000" fill-opacity="1"><g transform="translate(129.125054, 191.999987)"><g><path d="M 1.546875 -6.609375 C 2.335938 -7.359375 3.304688 -7.734375 4.453125 -7.734375 C 5.609375 -7.734375 6.578125 -7.359375 7.359375 -6.609375 C 8.140625 -5.867188 8.53125 -4.945312 8.53125 -3.84375 C 8.53125 -2.75 8.140625 -1.820312 7.359375 -1.0625 C 6.578125 -0.3125 5.609375 0.0625 4.453125 0.0625 C 3.304688 0.0625 2.335938 -0.3125 1.546875 -1.0625 C 0.765625 -1.820312 0.375 -2.75 0.375 -3.84375 C 0.375 -4.945312 0.765625 -5.867188 1.546875 -6.609375 Z M 4.46875 -6.5625 C 3.707031 -6.5625 3.050781 -6.300781 2.5 -5.78125 C 1.957031 -5.257812 1.6875 -4.613281 1.6875 -3.84375 C 1.6875 -3.082031 1.957031 -2.4375 2.5 -1.90625 C 3.050781 -1.375 3.703125 -1.109375 4.453125 -1.109375 C 5.210938 -1.109375 5.859375 -1.375 6.390625 -1.90625 C 6.929688 -2.4375 7.203125 -3.082031 7.203125 -3.84375 C 7.203125 -4.613281 6.929688 -5.257812 6.390625 -5.78125 C 5.859375 -6.300781 5.21875 -6.5625 4.46875 -6.5625 Z M 4.46875 -6.5625 "/></g></g></g><g fill="#000000" fill-opacity="1"><g transform="translate(138.028763, 191.999987)"><g><path d="M 9.15625 0 L 7.953125 0 L 7.9375 -5.75 L 5.515625 -0.796875 L 4.65625 -0.796875 L 2.234375 -5.75 L 2.234375 0 L 1.015625 0 L 1.015625 -7.703125 L 2.546875 -7.703125 L 5.09375 -2.578125 L 7.625 -7.703125 L 9.15625 -7.703125 Z M 9.15625 0 "/></g></g></g><g fill="#000000" fill-opacity="1"><g transform="translate(148.196575, 191.999987)"><g><path d="M 5.984375 -1.734375 L 2.09375 -1.734375 L 1.359375 0 L 0.015625 0 L 3.40625 -7.703125 L 4.734375 -7.703125 L 8.109375 0 L 6.71875 0 Z M 5.484375 -2.890625 L 4.03125 -6.3125 L 2.578125 -2.890625 Z M 5.484375 -2.890625 "/></g></g></g><g fill="#000000" fill-opacity="1"><g transform="translate(156.308845, 191.999987)"><g><path d="M 6.265625 -6.53125 L 3.828125 -6.53125 L 3.828125 0 L 2.53125 0 L 2.53125 -6.53125 L 0.09375 -6.53125 L 0.09375 -7.703125 L 6.265625 -7.703125 Z M 6.265625 -6.53125 "/></g></g></g><g fill="#000000" fill-opacity="1"><g transform="translate(162.67335, 191.999987)"><g><path d="M 1.546875 -6.609375 C 2.335938 -7.359375 3.304688 -7.734375 4.453125 -7.734375 C 5.609375 -7.734375 6.578125 -7.359375 7.359375 -6.609375 C 8.140625 -5.867188 8.53125 -4.945312 8.53125 -3.84375 C 8.53125 -2.75 8.140625 -1.820312 7.359375 -1.0625 C 6.578125 -0.3125 5.609375 0.0625 4.453125 0.0625 C 3.304688 0.0625 2.335938 -0.3125 1.546875 -1.0625 C 0.765625 -1.820312 0.375 -2.75 0.375 -3.84375 C 0.375 -4.945312 0.765625 -5.867188 1.546875 -6.609375 Z M 4.46875 -6.5625 C 3.707031 -6.5625 3.050781 -6.300781 2.5 -5.78125 C 1.957031 -5.257812 1.6875 -4.613281 1.6875 -3.84375 C 1.6875 -3.082031 1.957031 -2.4375 2.5 -1.90625 C 3.050781 -1.375 3.703125 -1.109375 4.453125 -1.109375 C 5.210938 -1.109375 5.859375 -1.375 6.390625 -1.90625 C 6.929688 -2.4375 7.203125 -3.082031 7.203125 -3.84375 C 7.203125 -4.613281 6.929688 -5.257812 6.390625 -5.78125 C 5.859375 -6.300781 5.21875 -6.5625 4.46875 -6.5625 Z M 4.46875 -6.5625 "/></g></g></g><g fill="#000000" fill-opacity="1"><g transform="translate(171.577059, 191.999987)"><g><path d="M 2.3125 -1.171875 L 5.640625 -1.171875 L 5.640625 0 L 1.015625 0 L 1.015625 -7.703125 L 2.3125 -7.703125 Z M 2.3125 -1.171875 "/></g></g></g><g fill="#000000" fill-opacity="1"><g transform="translate(177.446905, 191.999987)"><g><path d="M 1.546875 -6.609375 C 2.335938 -7.359375 3.304688 -7.734375 4.453125 -7.734375 C 5.609375 -7.734375 6.578125 -7.359375 7.359375 -6.609375 C 8.140625 -5.867188 8.53125 -4.945312 8.53125 -3.84375 C 8.53125 -2.75 8.140625 -1.820312 7.359375 -1.0625 C 6.578125 -0.3125 5.609375 0.0625 4.453125 0.0625 C 3.304688 0.0625 2.335938 -0.3125 1.546875 -1.0625 C 0.765625 -1.820312 0.375 -2.75 0.375 -3.84375 C 0.375 -4.945312 0.765625 -5.867188 1.546875 -6.609375 Z M 4.46875 -6.5625 C 3.707031 -6.5625 3.050781 -6.300781 2.5 -5.78125 C 1.957031 -5.257812 1.6875 -4.613281 1.6875 -3.84375 C 1.6875 -3.082031 1.957031 -2.4375 2.5 -1.90625 C 3.050781 -1.375 3.703125 -1.109375 4.453125 -1.109375 C 5.210938 -1.109375 5.859375 -1.375 6.390625 -1.90625 C 6.929688 -2.4375 7.203125 -3.082031 7.203125 -3.84375 C 7.203125 -4.613281 6.929688 -5.257812 6.390625 -5.78125 C 5.859375 -6.300781 5.21875 -6.5625 4.46875 -6.5625 Z M 4.46875 -6.5625 "/></g></g></g><g fill="#000000" fill-opacity="1"><g transform="translate(186.350613, 191.999987)"><g><path d="M 3.546875 -7.75 C 4.535156 -7.75 5.429688 -7.488281 6.234375 -6.96875 L 5.703125 -5.8125 C 4.910156 -6.289062 4.15625 -6.53125 3.4375 -6.53125 C 3.050781 -6.53125 2.742188 -6.457031 2.515625 -6.3125 C 2.296875 -6.175781 2.1875 -5.976562 2.1875 -5.71875 C 2.1875 -5.46875 2.289062 -5.253906 2.5 -5.078125 C 2.707031 -4.898438 2.960938 -4.765625 3.265625 -4.671875 C 3.578125 -4.585938 3.910156 -4.484375 4.265625 -4.359375 C 4.628906 -4.234375 4.960938 -4.097656 5.265625 -3.953125 C 5.578125 -3.804688 5.832031 -3.582031 6.03125 -3.28125 C 6.238281 -2.976562 6.34375 -2.609375 6.34375 -2.171875 C 6.34375 -1.503906 6.070312 -0.96875 5.53125 -0.5625 C 4.988281 -0.15625 4.289062 0.046875 3.4375 0.046875 C 2.84375 0.046875 2.269531 -0.0625 1.71875 -0.28125 C 1.175781 -0.5 0.695312 -0.796875 0.28125 -1.171875 L 0.84375 -2.296875 C 1.238281 -1.941406 1.664062 -1.664062 2.125 -1.46875 C 2.59375 -1.269531 3.035156 -1.171875 3.453125 -1.171875 C 3.910156 -1.171875 4.265625 -1.253906 4.515625 -1.421875 C 4.765625 -1.585938 4.890625 -1.816406 4.890625 -2.109375 C 4.890625 -2.378906 4.785156 -2.601562 4.578125 -2.78125 C 4.378906 -2.957031 4.125 -3.085938 3.8125 -3.171875 C 3.507812 -3.253906 3.175781 -3.351562 2.8125 -3.46875 C 2.457031 -3.59375 2.125 -3.722656 1.8125 -3.859375 C 1.507812 -3.992188 1.253906 -4.210938 1.046875 -4.515625 C 0.835938 -4.816406 0.734375 -5.179688 0.734375 -5.609375 C 0.734375 -6.265625 0.988281 -6.785156 1.5 -7.171875 C 2.019531 -7.554688 2.703125 -7.75 3.546875 -7.75 Z M 3.546875 -7.75 "/></g></g></g><g fill="#000000" fill-opacity="1"><g transform="translate(193.187783, 191.999987)"><g><path d="M 6.15625 0 L 3.625 -3.40625 L 2.3125 -1.953125 L 2.3125 0 L 1.015625 0 L 1.015625 -7.703125 L 2.3125 -7.703125 L 2.3125 -3.71875 L 5.984375 -7.703125 L 7.515625 -7.703125 L 4.53125 -4.40625 L 7.71875 0 Z M 6.15625 0 "/></g></g></g><g fill="#000000" fill-opacity="1"><g transform="translate(201.0802, 191.999987)"><g><path d="M 5.984375 -1.734375 L 2.09375 -1.734375 L 1.359375 0 L 0.015625 0 L 3.40625 -7.703125 L 4.734375 -7.703125 L 8.109375 0 L 6.71875 0 Z M 5.484375 -2.890625 L 4.03125 -6.3125 L 2.578125 -2.890625 Z M 5.484375 -2.890625 "/></g></g></g><g fill="#000000" fill-opacity="1"><g transform="translate(212.028464, 191.999987)"><g><path d="M 1.546875 -6.609375 C 2.335938 -7.359375 3.304688 -7.734375 4.453125 -7.734375 C 5.609375 -7.734375 6.578125 -7.359375 7.359375 -6.609375 C 8.140625 -5.867188 8.53125 -4.945312 8.53125 -3.84375 C 8.53125 -2.75 8.140625 -1.820312 7.359375 -1.0625 C 6.578125 -0.3125 5.609375 0.0625 4.453125 0.0625 C 3.304688 0.0625 2.335938 -0.3125 1.546875 -1.0625 C 0.765625 -1.820312 0.375 -2.75 0.375 -3.84375 C 0.375 -4.945312 0.765625 -5.867188 1.546875 -6.609375 Z M 4.46875 -6.5625 C 3.707031 -6.5625 3.050781 -6.300781 2.5 -5.78125 C 1.957031 -5.257812 1.6875 -4.613281 1.6875 -3.84375 C 1.6875 -3.082031 1.957031 -2.4375 2.5 -1.90625 C 3.050781 -1.375 3.703125 -1.109375 4.453125 -1.109375 C 5.210938 -1.109375 5.859375 -1.375 6.390625 -1.90625 C 6.929688 -2.4375 7.203125 -3.082031 7.203125 -3.84375 C 7.203125 -4.613281 6.929688 -5.257812 6.390625 -5.78125 C 5.859375 -6.300781 5.21875 -6.5625 4.46875 -6.5625 Z M 4.46875 -6.5625 "/></g></g></g><g fill="#000000" fill-opacity="1"><g transform="translate(220.932173, 191.999987)"><g><path d="M 5.890625 0 L 4.484375 -2.328125 C 4.410156 -2.328125 4.296875 -2.328125 4.140625 -2.328125 L 2.3125 -2.328125 L 2.3125 0 L 1.015625 0 L 1.015625 -7.703125 L 4.140625 -7.703125 C 5.117188 -7.703125 5.878906 -7.472656 6.421875 -7.015625 C 6.960938 -6.554688 7.234375 -5.910156 7.234375 -5.078125 C 7.234375 -4.453125 7.09375 -3.925781 6.8125 -3.5 C 6.539062 -3.082031 6.148438 -2.773438 5.640625 -2.578125 L 7.375 0 Z M 2.3125 -3.484375 L 4.140625 -3.484375 C 5.378906 -3.484375 6 -4 6 -5.03125 C 6 -6.03125 5.378906 -6.53125 4.140625 -6.53125 L 2.3125 -6.53125 Z M 2.3125 -3.484375 "/></g></g></g><g fill="#000000" fill-opacity="1"><g transform="translate(228.879557, 191.999987)"><g><path d="M 1.015625 -7.703125 L 4.171875 -7.703125 C 5.316406 -7.703125 6.265625 -7.335938 7.015625 -6.609375 C 7.773438 -5.878906 8.15625 -4.957031 8.15625 -3.84375 C 8.15625 -2.726562 7.773438 -1.804688 7.015625 -1.078125 C 6.265625 -0.359375 5.304688 0 4.140625 0 L 1.015625 0 Z M 2.3125 -6.53125 L 2.3125 -1.171875 L 4.203125 -1.171875 C 4.953125 -1.171875 5.578125 -1.421875 6.078125 -1.921875 C 6.585938 -2.421875 6.84375 -3.054688 6.84375 -3.828125 C 6.84375 -4.609375 6.582031 -5.253906 6.0625 -5.765625 C 5.550781 -6.273438 4.910156 -6.53125 4.140625 -6.53125 Z M 2.3125 -6.53125 "/></g></g></g><g fill="#000000" fill-opacity="1"><g transform="translate(237.398538, 191.999987)"><g><path d="M 2.3125 0 L 1.015625 0 L 1.015625 -7.703125 L 2.3125 -7.703125 Z M 2.3125 0 "/></g></g></g><g fill="#000000" fill-opacity="1"><g transform="translate(240.718194, 191.999987)"><g><path d="M 7.6875 0 L 6.40625 0 L 2.3125 -5.515625 L 2.3125 0 L 1.015625 0 L 1.015625 -7.703125 L 2.28125 -7.703125 L 6.40625 -2.171875 L 6.40625 -7.703125 L 7.6875 -7.703125 Z M 7.6875 0 "/></g></g></g><g fill="#000000" fill-opacity="1"><g transform="translate(249.424035, 191.999987)"><g><path d="M 5.984375 -1.734375 L 2.09375 -1.734375 L 1.359375 0 L 0.015625 0 L 3.40625 -7.703125 L 4.734375 -7.703125 L 8.109375 0 L 6.71875 0 Z M 5.484375 -2.890625 L 4.03125 -6.3125 L 2.578125 -2.890625 Z M 5.484375 -2.890625 "/></g></g></g><g fill="#000000" fill-opacity="1"><g transform="translate(257.536304, 191.999987)"><g><path d="M 4.421875 -7.734375 C 4.960938 -7.734375 5.488281 -7.628906 6 -7.421875 C 6.519531 -7.210938 6.96875 -6.921875 7.34375 -6.546875 L 6.59375 -5.59375 C 6.3125 -5.894531 5.976562 -6.132812 5.59375 -6.3125 C 5.21875 -6.488281 4.832031 -6.578125 4.4375 -6.578125 C 3.664062 -6.578125 3.015625 -6.3125 2.484375 -5.78125 C 1.953125 -5.257812 1.6875 -4.625 1.6875 -3.875 C 1.6875 -3.113281 1.953125 -2.46875 2.484375 -1.9375 C 3.015625 -1.414062 3.664062 -1.15625 4.4375 -1.15625 C 5.238281 -1.15625 5.957031 -1.457031 6.59375 -2.0625 L 7.359375 -1.203125 C 6.960938 -0.816406 6.5 -0.507812 5.96875 -0.28125 C 5.445312 -0.0507812 4.914062 0.0625 4.375 0.0625 C 3.25 0.0625 2.300781 -0.3125 1.53125 -1.0625 C 0.757812 -1.820312 0.375 -2.753906 0.375 -3.859375 C 0.375 -4.953125 0.765625 -5.867188 1.546875 -6.609375 C 2.328125 -7.359375 3.285156 -7.734375 4.421875 -7.734375 Z M 4.421875 -7.734375 "/></g></g></g><g fill="#000000" fill-opacity="1"><g transform="translate(265.197883, 191.999987)"><g><path d="M 2.3125 0 L 1.015625 0 L 1.015625 -7.703125 L 2.3125 -7.703125 Z M 2.3125 0 "/></g></g></g><g fill="#000000" fill-opacity="1"><g transform="translate(268.517539, 191.999987)"><g><path d="M 4.640625 -7.703125 L 4.640625 -2.375 C 4.640625 -1.601562 4.425781 -1.003906 4 -0.578125 C 3.570312 -0.148438 2.988281 0.0625 2.25 0.0625 C 1.332031 0.0625 0.578125 -0.3125 -0.015625 -1.0625 L 0.59375 -2.046875 C 1.113281 -1.484375 1.660156 -1.203125 2.234375 -1.203125 C 2.585938 -1.203125 2.859375 -1.304688 3.046875 -1.515625 C 3.234375 -1.722656 3.328125 -2.023438 3.328125 -2.421875 L 3.328125 -6.53125 L 0.671875 -6.53125 L 0.671875 -7.703125 Z M 4.640625 -7.703125 "/></g></g></g><g fill="#000000" fill-opacity="1"><g transform="translate(274.002658, 191.999987)"><g><path d="M 5.984375 -1.734375 L 2.09375 -1.734375 L 1.359375 0 L 0.015625 0 L 3.40625 -7.703125 L 4.734375 -7.703125 L 8.109375 0 L 6.71875 0 Z M 5.484375 -2.890625 L 4.03125 -6.3125 L 2.578125 -2.890625 Z M 5.484375 -2.890625 "/></g></g></g><g fill="#000000" fill-opacity="1"><g transform="translate(178.921033, 235.606509)"><g><path d="M 2.9375 -1.5 L 7.1875 -1.5 L 7.1875 0 L 1.28125 0 L 1.28125 -9.796875 L 2.9375 -9.796875 Z M 2.9375 -1.5 "/></g></g></g><g fill="#000000" fill-opacity="1"><g transform="translate(186.392858, 235.606509)"><g><path d="M 5.90625 -9.796875 L 5.90625 -3.03125 C 5.90625 -2.039062 5.632812 -1.273438 5.09375 -0.734375 C 4.550781 -0.203125 3.804688 0.0625 2.859375 0.0625 C 1.703125 0.0625 0.738281 -0.40625 -0.03125 -1.34375 L 0.75 -2.609375 C 1.414062 -1.890625 2.113281 -1.53125 2.84375 -1.53125 C 3.289062 -1.53125 3.632812 -1.660156 3.875 -1.921875 C 4.113281 -2.191406 4.234375 -2.578125 4.234375 -3.078125 L 4.234375 -8.3125 L 0.859375 -8.3125 L 0.859375 -9.796875 Z M 5.90625 -9.796875 "/></g></g></g><g fill="#000000" fill-opacity="1"><g transform="translate(193.374955, 235.606509)"><g><path d="M 2.9375 0 L 1.28125 0 L 1.28125 -9.796875 L 2.9375 -9.796875 Z M 2.9375 0 "/></g></g></g><g fill="#000000" fill-opacity="1"><g transform="translate(197.600594, 235.606509)"><g><path d="M 2.9375 -1.5 L 7.1875 -1.5 L 7.1875 0 L 1.28125 0 L 1.28125 -9.796875 L 2.9375 -9.796875 Z M 2.9375 -1.5 "/></g></g></g><g fill="#000000" fill-opacity="1"><g transform="translate(205.072418, 235.606509)"><g><path d="M 5.90625 -9.796875 L 5.90625 -3.03125 C 5.90625 -2.039062 5.632812 -1.273438 5.09375 -0.734375 C 4.550781 -0.203125 3.804688 0.0625 2.859375 0.0625 C 1.703125 0.0625 0.738281 -0.40625 -0.03125 -1.34375 L 0.75 -2.609375 C 1.414062 -1.890625 2.113281 -1.53125 2.84375 -1.53125 C 3.289062 -1.53125 3.632812 -1.660156 3.875 -1.921875 C 4.113281 -2.191406 4.234375 -2.578125 4.234375 -3.078125 L 4.234375 -8.3125 L 0.859375 -8.3125 L 0.859375 -9.796875 Z M 5.90625 -9.796875 "/></g></g></g><g fill="#000000" fill-opacity="1"><g transform="translate(212.054515, 235.606509)"><g><path d="M 7.609375 -2.21875 L 2.671875 -2.21875 L 1.734375 0 L 0.015625 0 L 4.34375 -9.796875 L 6.03125 -9.796875 L 10.3125 0 L 8.546875 0 Z M 6.984375 -3.6875 L 5.140625 -8.03125 L 3.296875 -3.6875 Z M 6.984375 -3.6875 "/></g></g></g><g fill="#000000" fill-opacity="1"><g transform="translate(222.380747, 235.606509)"><g><path d="M 9.78125 0 L 8.15625 0 L 2.9375 -7.03125 L 2.9375 0 L 1.28125 0 L 1.28125 -9.796875 L 2.90625 -9.796875 L 8.15625 -2.765625 L 8.15625 -9.796875 L 9.78125 -9.796875 Z M 9.78125 0 "/></g></g></g><g fill="#000000" fill-opacity="1"><g transform="translate(233.462564, 235.606509)"><g><path d="M 7.609375 -2.21875 L 2.671875 -2.21875 L 1.734375 0 L 0.015625 0 L 4.34375 -9.796875 L 6.03125 -9.796875 L 10.3125 0 L 8.546875 0 Z M 6.984375 -3.6875 L 5.140625 -8.03125 L 3.296875 -3.6875 Z M 6.984375 -3.6875 "/></g></g></g><g fill="#000000" fill-opacity="1"><g transform="translate(243.788796, 235.606509)"><g/></g></g><g fill="#000000" fill-opacity="1"><g transform="translate(247.398778, 235.606509)"><g><path d="M 5.65625 0 L 3.953125 0 L 0.046875 -9.796875 L 1.8125 -9.796875 L 4.84375 -1.828125 L 7.890625 -9.796875 L 9.625 -9.796875 Z M 5.65625 0 "/></g></g></g><g fill="#000000" fill-opacity="1"><g transform="translate(257.053391, 235.606509)"><g><path d="M 8.28125 -8.3125 L 2.9375 -8.3125 L 2.9375 -5.671875 L 7.734375 -5.671875 L 7.734375 -4.1875 L 2.9375 -4.1875 L 2.9375 -1.484375 L 8.453125 -1.484375 L 8.453125 0 L 1.28125 0 L 1.28125 -9.796875 L 8.28125 -9.796875 Z M 8.28125 -8.3125 "/></g></g></g><g fill="#000000" fill-opacity="1"><g transform="translate(266.232273, 235.606509)"><g><path d="M 2.9375 -1.5 L 7.1875 -1.5 L 7.1875 0 L 1.28125 0 L 1.28125 -9.796875 L 2.9375 -9.796875 Z M 2.9375 -1.5 "/></g></g></g><g fill="#000000" fill-opacity="1"><g transform="translate(273.704097, 235.606509)"><g><path d="M 2.9375 0 L 1.28125 0 L 1.28125 -9.796875 L 2.9375 -9.796875 Z M 2.9375 0 "/></g></g></g><g fill="#000000" fill-opacity="1"><g transform="translate(277.929736, 235.606509)"><g><path d="M 2.859375 -12.875 L 4.28125 -12.875 L 5.171875 -11.578125 L 6.046875 -12.875 L 7.46875 -12.875 L 5.96875 -10.78125 L 4.375 -10.78125 Z M 5.625 -9.84375 C 6.3125 -9.84375 6.984375 -9.707031 7.640625 -9.4375 C 8.304688 -9.175781 8.878906 -8.804688 9.359375 -8.328125 L 8.390625 -7.125 C 8.035156 -7.507812 7.613281 -7.8125 7.125 -8.03125 C 6.632812 -8.257812 6.144531 -8.375 5.65625 -8.375 C 4.675781 -8.375 3.847656 -8.039062 3.171875 -7.375 C 2.492188 -6.707031 2.15625 -5.890625 2.15625 -4.921875 C 2.15625 -3.953125 2.492188 -3.132812 3.171875 -2.46875 C 3.847656 -1.800781 4.675781 -1.46875 5.65625 -1.46875 C 6.675781 -1.46875 7.585938 -1.851562 8.390625 -2.625 L 9.359375 -1.546875 C 8.859375 -1.046875 8.269531 -0.648438 7.59375 -0.359375 C 6.925781 -0.078125 6.253906 0.0625 5.578125 0.0625 C 4.140625 0.0625 2.925781 -0.410156 1.9375 -1.359375 C 0.957031 -2.316406 0.46875 -3.5 0.46875 -4.90625 C 0.46875 -6.300781 0.960938 -7.472656 1.953125 -8.421875 C 2.953125 -9.367188 4.175781 -9.84375 5.625 -9.84375 Z M 5.625 -9.84375 "/></g></g></g><g fill="#000000" fill-opacity="1"><g transform="translate(287.682287, 235.606509)"><g><path d="M 7.828125 0 L 4.609375 -4.328125 L 2.9375 -2.484375 L 2.9375 0 L 1.28125 0 L 1.28125 -9.796875 L 2.9375 -9.796875 L 2.9375 -4.734375 L 7.609375 -9.796875 L 9.5625 -9.796875 L 5.765625 -5.609375 L 9.8125 0 Z M 7.828125 0 "/></g></g></g><g fill="#000000" fill-opacity="1"><g transform="translate(297.728677, 235.606509)"><g><path d="M 1.96875 -8.421875 C 2.96875 -9.367188 4.203125 -9.84375 5.671875 -9.84375 C 7.140625 -9.84375 8.367188 -9.367188 9.359375 -8.421875 C 10.359375 -7.472656 10.859375 -6.296875 10.859375 -4.890625 C 10.859375 -3.492188 10.359375 -2.316406 9.359375 -1.359375 C 8.367188 -0.410156 7.140625 0.0625 5.671875 0.0625 C 4.203125 0.0625 2.96875 -0.410156 1.96875 -1.359375 C 0.96875 -2.316406 0.46875 -3.492188 0.46875 -4.890625 C 0.46875 -6.296875 0.96875 -7.472656 1.96875 -8.421875 Z M 5.6875 -8.359375 C 4.71875 -8.359375 3.882812 -8.023438 3.1875 -7.359375 C 2.5 -6.691406 2.15625 -5.867188 2.15625 -4.890625 C 2.15625 -3.921875 2.5 -3.097656 3.1875 -2.421875 C 3.882812 -1.742188 4.710938 -1.40625 5.671875 -1.40625 C 6.640625 -1.40625 7.460938 -1.742188 8.140625 -2.421875 C 8.828125 -3.097656 9.171875 -3.921875 9.171875 -4.890625 C 9.171875 -5.867188 8.828125 -6.691406 8.140625 -7.359375 C 7.460938 -8.023438 6.644531 -8.359375 5.6875 -8.359375 Z M 5.6875 -8.359375 "/></g></g></g><g fill="#000000" fill-opacity="1"><g transform="translate(309.062356, 235.606509)"><g><path d="M 5.65625 0 L 3.953125 0 L 0.046875 -9.796875 L 1.8125 -9.796875 L 4.84375 -1.828125 L 7.890625 -9.796875 L 9.625 -9.796875 Z M 5.65625 0 "/></g></g></g><g fill="#000000" fill-opacity="1"><g transform="translate(318.716968, 235.606509)"><g><path d="M 2.9375 0 L 1.28125 0 L 1.28125 -9.796875 L 2.9375 -9.796875 Z M 2.9375 0 "/></g></g></g><g fill="#000000" fill-opacity="1"><g transform="translate(322.942608, 235.606509)"><g><path d="M 7.40625 -12.234375 L 5.703125 -10.859375 L 4.265625 -10.859375 L 5.75 -12.9375 Z M 5.625 -9.84375 C 6.3125 -9.84375 6.984375 -9.707031 7.640625 -9.4375 C 8.304688 -9.175781 8.878906 -8.804688 9.359375 -8.328125 L 8.390625 -7.125 C 8.035156 -7.507812 7.613281 -7.8125 7.125 -8.03125 C 6.632812 -8.257812 6.144531 -8.375 5.65625 -8.375 C 4.675781 -8.375 3.847656 -8.039062 3.171875 -7.375 C 2.492188 -6.707031 2.15625 -5.890625 2.15625 -4.921875 C 2.15625 -3.953125 2.492188 -3.132812 3.171875 -2.46875 C 3.847656 -1.800781 4.675781 -1.46875 5.65625 -1.46875 C 6.675781 -1.46875 7.585938 -1.851562 8.390625 -2.625 L 9.359375 -1.546875 C 8.859375 -1.046875 8.269531 -0.648438 7.59375 -0.359375 C 6.925781 -0.078125 6.253906 0.0625 5.578125 0.0625 C 4.140625 0.0625 2.925781 -0.410156 1.9375 -1.359375 C 0.957031 -2.316406 0.46875 -3.5 0.46875 -4.90625 C 0.46875 -6.300781 0.960938 -7.472656 1.953125 -8.421875 C 2.953125 -9.367188 4.175781 -9.84375 5.625 -9.84375 Z M 5.625 -9.84375 "/></g></g></g></svg>