<svg xmlns="http://www.w3.org/2000/svg" xmlns:xlink="http://www.w3.org/1999/xlink" width="500" zoomAndPan="magnify" viewBox="0 0 375 374.999991" height="500" preserveAspectRatio="xMidYMid meet" version="1.0"><defs><clipPath id="89aeb98181"><path d="M 118 233 L 248 233 L 248 252.960938 L 118 252.960938 Z M 118 233 " clip-rule="nonzero"/></clipPath><clipPath id="b9383c04e2"><path d="M 107.113281 69.210938 L 294.613281 69.210938 L 294.613281 244 L 107.113281 244 Z M 107.113281 69.210938 " clip-rule="nonzero"/></clipPath></defs><rect x="-37.5" width="450" fill="#ffffff" y="-37.499999" height="449.999989" fill-opacity="1"/><rect x="-37.5" width="450" fill="#ffffff" y="-37.499999" height="449.999989" fill-opacity="1"/><g clip-path="url(#89aeb98181)"><path fill="#2a2a51" d="M 247.671875 243 C 247.671875 243.328125 247.566406 243.652344 247.359375 243.976562 C 247.152344 244.300781 246.839844 244.625 246.429688 244.945312 C 246.015625 245.265625 245.5 245.582031 244.882812 245.894531 C 244.269531 246.207031 243.554688 246.511719 242.746094 246.8125 C 241.933594 247.113281 241.027344 247.410156 240.027344 247.699219 C 239.03125 247.984375 237.941406 248.265625 236.765625 248.535156 C 235.585938 248.808594 234.324219 249.070312 232.980469 249.320312 C 231.636719 249.574219 230.214844 249.816406 228.714844 250.046875 C 227.214844 250.277344 225.648438 250.496094 224.007812 250.703125 C 222.371094 250.910156 220.667969 251.101562 218.90625 251.285156 C 217.144531 251.464844 215.328125 251.632812 213.457031 251.789062 C 211.589844 251.941406 209.675781 252.082031 207.71875 252.207031 C 205.757812 252.332031 203.765625 252.441406 201.738281 252.535156 C 199.707031 252.628906 197.65625 252.707031 195.574219 252.773438 C 193.496094 252.835938 191.402344 252.882812 189.292969 252.914062 C 187.183594 252.949219 185.066406 252.964844 182.949219 252.964844 C 180.828125 252.964844 178.714844 252.949219 176.605469 252.914062 C 174.496094 252.882812 172.402344 252.835938 170.320312 252.773438 C 168.242188 252.707031 166.1875 252.628906 164.160156 252.535156 C 162.132812 252.441406 160.136719 252.332031 158.179688 252.207031 C 156.222656 252.082031 154.308594 251.941406 152.4375 251.789062 C 150.570312 251.632812 148.753906 251.464844 146.988281 251.285156 C 145.226562 251.101562 143.527344 250.910156 141.886719 250.703125 C 140.25 250.496094 138.679688 250.277344 137.183594 250.046875 C 135.683594 249.816406 134.261719 249.574219 132.917969 249.320312 C 131.570312 249.070312 130.3125 248.808594 129.132812 248.535156 C 127.957031 248.265625 126.867188 247.984375 125.867188 247.699219 C 124.867188 247.410156 123.964844 247.113281 123.152344 246.8125 C 122.339844 246.511719 121.628906 246.207031 121.011719 245.894531 C 120.398438 245.582031 119.882812 245.265625 119.46875 244.945312 C 119.054688 244.625 118.746094 244.300781 118.535156 243.976562 C 118.328125 243.652344 118.226562 243.328125 118.226562 243 C 118.226562 242.675781 118.328125 242.347656 118.535156 242.023438 C 118.746094 241.699219 119.054688 241.378906 119.46875 241.058594 C 119.882812 240.738281 120.398438 240.421875 121.011719 240.109375 C 121.628906 239.796875 122.339844 239.492188 123.152344 239.1875 C 123.964844 238.886719 124.867188 238.59375 125.867188 238.304688 C 126.867188 238.015625 127.957031 237.738281 129.132812 237.464844 C 130.3125 237.195312 131.570312 236.933594 132.917969 236.679688 C 134.261719 236.429688 135.683594 236.1875 137.183594 235.957031 C 138.679688 235.726562 140.25 235.507812 141.886719 235.300781 C 143.527344 235.09375 145.226562 234.898438 146.988281 234.71875 C 148.753906 234.535156 150.570312 234.371094 152.4375 234.214844 C 154.308594 234.0625 156.222656 233.921875 158.179688 233.796875 C 160.136719 233.671875 162.132812 233.5625 164.160156 233.46875 C 166.1875 233.375 168.242188 233.292969 170.320312 233.230469 C 172.402344 233.167969 174.496094 233.117188 176.605469 233.085938 C 178.714844 233.054688 180.828125 233.039062 182.949219 233.039062 C 185.066406 233.039062 187.183594 233.054688 189.292969 233.085938 C 191.402344 233.117188 193.496094 233.167969 195.574219 233.230469 C 197.65625 233.292969 199.707031 233.375 201.738281 233.46875 C 203.765625 233.5625 205.757812 233.671875 207.71875 233.796875 C 209.675781 233.921875 211.589844 234.0625 213.457031 234.214844 C 215.328125 234.371094 217.144531 234.535156 218.90625 234.71875 C 220.667969 234.898438 222.371094 235.09375 224.007812 235.300781 C 225.648438 235.507812 227.214844 235.726562 228.714844 235.957031 C 230.214844 236.1875 231.636719 236.429688 232.980469 236.679688 C 234.324219 236.933594 235.585938 237.195312 236.765625 237.464844 C 237.941406 237.738281 239.03125 238.015625 240.027344 238.304688 C 241.027344 238.59375 241.933594 238.886719 242.746094 239.1875 C 243.554688 239.492188 244.269531 239.796875 244.882812 240.109375 C 245.5 240.421875 246.015625 240.738281 246.429688 241.058594 C 246.839844 241.378906 247.152344 241.699219 247.359375 242.023438 C 247.566406 242.347656 247.671875 242.675781 247.671875 243 Z M 247.671875 243 " fill-opacity="1" fill-rule="nonzero"/></g><g clip-path="url(#b9383c04e2)"><path fill="#2a2a51" d="M 294.542969 90.863281 C 294.207031 82.363281 289.988281 69.585938 279.71875 69.210938 C 276.574219 69.105469 273.992188 70.121094 272.015625 72.226562 C 267.519531 77.015625 267.867188 86.113281 268.222656 89.804688 C 268.449219 92.132812 269.847656 103.160156 276.121094 107.742188 L 274.046875 116.082031 C 273.386719 115.992188 272.773438 115.929688 272.179688 115.902344 C 267.628906 115.6875 266.453125 119.320312 266.0625 120.519531 C 265.210938 123.121094 264.488281 125.796875 263.789062 128.386719 C 263.332031 130.066406 262.863281 131.800781 262.371094 133.480469 C 261.394531 136.796875 260.394531 140.117188 259.390625 143.390625 C 259.589844 140.84375 259.734375 138.332031 259.824219 135.847656 C 260.292969 122.757812 259.136719 111.828125 256.304688 102.4375 C 253.441406 93.003906 247.398438 86.15625 238.824219 82.648438 C 230.613281 79.289062 220.839844 78.847656 212.003906 81.4375 C 209.066406 82.296875 206.15625 83.492188 203.335938 84.648438 C 197.921875 86.863281 192.816406 88.960938 187.449219 88.960938 C 180.367188 88.960938 175.285156 88.804688 169.421875 86.71875 C 167.851562 86.160156 166.28125 85.570312 164.761719 84.996094 C 157.339844 82.203125 149.664062 79.320312 140.882812 79.882812 C 131.175781 80.503906 122.878906 84.082031 117.546875 89.953125 C 110.605469 97.582031 108.910156 108.507812 107.867188 118.152344 C 105.292969 141.867188 110.269531 165.394531 115.476562 185.28125 C 118.375 196.339844 121.585938 205.714844 125.316406 213.929688 C 129.242188 222.613281 134.242188 232.359375 141.59375 238.992188 C 145.863281 242.847656 150.367188 244.015625 154.269531 242.277344 C 158.921875 240.203125 160.691406 234.902344 161.984375 231.035156 L 162.144531 230.558594 C 163.144531 227.574219 163.945312 224.429688 164.71875 221.375 C 166.582031 214.019531 168.511719 206.410156 173.351562 200.863281 C 175.25 198.675781 178.449219 196.003906 182.796875 195.707031 C 182.925781 195.707031 183.046875 195.6875 183.15625 195.6875 C 183.632812 195.667969 184.109375 195.679688 184.585938 195.71875 C 184.679688 195.71875 184.761719 195.71875 184.859375 195.71875 C 193.382812 196.535156 198.132812 206.621094 200.621094 214.960938 C 201.242188 217.054688 201.808594 219.222656 202.355469 221.320312 C 203.195312 224.542969 204.066406 227.875 205.1875 231.121094 L 205.300781 231.441406 C 206.582031 235.160156 208.335938 240.246094 212.886719 242.269531 C 214.132812 242.847656 215.445312 243.148438 216.816406 243.164062 C 223.914062 243.164062 229.769531 234.914062 233.234375 229.511719 C 233.417969 230.789062 233.917969 231.925781 234.734375 232.921875 C 237.917969 236.8125 245.066406 237.265625 249.046875 237.167969 C 249.644531 237.164062 250.21875 237.03125 250.757812 236.769531 C 251.296875 236.503906 251.753906 236.136719 252.128906 235.664062 C 252.480469 235.25 252.746094 234.78125 252.917969 234.261719 C 263.890625 202.320312 274.480469 168.207031 287.257812 123.644531 C 287.410156 123.09375 287.449219 122.535156 287.371094 121.96875 C 287.292969 121.402344 287.105469 120.875 286.808594 120.386719 C 286.234375 119.402344 285.394531 118.777344 284.285156 118.519531 C 283.554688 118.355469 282.8125 118.160156 282.042969 117.957031 L 284.054688 109.917969 C 291.683594 107.980469 294.859375 98.929688 294.542969 90.863281 Z M 294.542969 90.863281 " fill-opacity="1" fill-rule="nonzero"/></g><path fill="#ffffff" d="M 253.28125 112.949219 C 252.695312 107.585938 251.625 102.09375 248.816406 97.414062 C 245.925781 92.582031 241.304688 89.378906 236.273438 87.066406 C 230.582031 84.453125 224.789062 83.207031 218.582031 84.351562 C 212.148438 85.546875 206.289062 88.667969 200.203125 90.933594 C 196.808594 92.195312 193.292969 93.269531 189.660156 93.515625 C 188.339844 93.609375 186.734375 93.460938 185.507812 94.03125 C 185.355469 93.992188 185.207031 93.996094 185.054688 94.042969 C 177.292969 96.488281 169.410156 91.6875 162.316406 89.035156 C 155.761719 86.59375 148.855469 84.589844 141.792969 84.714844 C 135.949219 84.820312 129.960938 86.355469 125.195312 89.847656 C 120.429688 93.335938 117.5 98.597656 115.617188 104.125 C 105.460938 133.976562 114.804688 167.027344 123.019531 196.101562 C 125.15625 203.671875 127.324219 211.242188 131.175781 218.152344 C 134.652344 224.320312 139.050781 229.734375 144.367188 234.402344 C 143.554688 234.101562 142.640625 235.214844 143.375 235.984375 C 146.300781 239.035156 151.011719 238.625 154.085938 235.984375 C 158.53125 232.148438 159.695312 225.175781 161.144531 219.800781 C 164.359375 207.9375 169.453125 191.660156 183.9375 190.335938 C 184.335938 190.46875 184.75 190.585938 185.152344 190.683594 C 188.417969 191.5 191.339844 192.445312 193.96875 194.640625 C 204.113281 203.132812 204.386719 217.484375 208.699219 229.027344 C 209.824219 232.039062 212.089844 239.234375 216.496094 238.464844 C 218.632812 238.09375 220.488281 235.71875 221.941406 234.332031 C 224.207031 232.207031 226.304688 229.929688 228.234375 227.496094 C 229.960938 225.273438 231.429688 222.890625 232.648438 220.351562 C 234.113281 217.300781 235.882812 214.875 237.941406 212.210938 C 241.6875 207.339844 243.394531 201.335938 245.097656 195.523438 C 249.03125 182.066406 251.683594 168.359375 253.058594 154.402344 C 254.417969 140.703125 254.765625 126.644531 253.28125 112.949219 Z M 253.28125 112.949219 " fill-opacity="1" fill-rule="nonzero"/><path fill="#ffffff" d="M 275.027344 75.679688 C 273.460938 81.40625 274.261719 87.484375 275.074219 93.363281 C 275.207031 94.492188 275.410156 95.609375 275.691406 96.710938 C 276.097656 98.152344 276.738281 99.476562 277.613281 100.691406 C 278.484375 101.902344 279.542969 102.929688 280.777344 103.769531 C 281.421875 104.203125 282.195312 104.582031 282.945312 104.398438 C 283.40625 104.242188 283.808594 103.992188 284.152344 103.648438 L 285.863281 102.1875 C 286.324219 101.828125 286.726562 101.414062 287.078125 100.949219 C 287.484375 100.277344 287.753906 99.550781 287.890625 98.777344 C 288.734375 95.148438 289.230469 91.386719 288.785156 87.683594 C 288.339844 83.980469 286.902344 80.320312 284.292969 77.660156 C 283.132812 76.480469 281.710938 75.492188 280.089844 75.171875 C 278.472656 74.851562 276.632812 75.296875 275.582031 76.574219 " fill-opacity="1" fill-rule="nonzero"/><path fill="#ffffff" d="M 274.109375 75.429688 C 273.027344 79.789062 273.054688 84.175781 273.523438 88.628906 C 273.882812 92.054688 274.085938 95.882812 275.554688 99.039062 C 276.636719 101.386719 279.160156 104.867188 281.941406 105.316406 C 284.15625 105.679688 286.710938 103.148438 287.828125 101.519531 C 289.515625 99.058594 289.699219 95.039062 289.863281 92.136719 C 290.0625 88.609375 289.59375 85.042969 288.171875 81.800781 C 286.078125 77.046875 279.925781 71.039062 274.917969 75.886719 C 274.039062 76.738281 275.378906 78.082031 276.261719 77.230469 C 279.210938 74.367188 282.945312 77.210938 284.839844 79.792969 C 286.265625 81.792969 287.199219 84 287.636719 86.417969 C 288.480469 90.789062 288.535156 98.140625 285.199219 101.507812 C 280.070312 106.664062 276.574219 97.101562 275.988281 93.117188 C 275.148438 87.402344 274.542969 81.617188 275.9375 75.9375 C 276.226562 74.75 274.398438 74.242188 274.105469 75.433594 Z M 274.109375 75.429688 " fill-opacity="1" fill-rule="nonzero"/><path fill="#f95353" d="M 249.300781 231.601562 C 249.8125 231.507812 249.363281 232.539062 248.933594 232.246094 C 248.503906 231.953125 248.621094 231.296875 248.789062 230.804688 C 256.5 207.964844 263.574219 184.925781 270.003906 161.679688 C 271.527344 156.175781 273.015625 150.660156 274.785156 145.230469 C 275.796875 142.125 276.898438 139.050781 278.003906 135.976562 L 282.414062 123.683594 C 279.015625 122.296875 275.480469 121.515625 271.8125 121.34375 C 263.347656 141.152344 260.679688 163.007812 253.042969 183.164062 C 251.382812 187.546875 249.488281 191.847656 248.03125 196.292969 C 245.730469 203.3125 244.507812 210.675781 241.839844 217.554688 C 240.726562 220.417969 239.371094 223.195312 238.558594 226.15625 C 238.230469 227.363281 238.078125 228.855469 239.027344 229.664062 C 239.472656 230.046875 240.074219 230.179688 240.652344 230.304688 L 246.535156 231.554688 " fill-opacity="1" fill-rule="nonzero"/><path fill="#f95353" d="M 248.628906 232.269531 L 248.859375 232.464844 L 248.710938 231.3125 L 248.683594 231.332031 L 249.765625 231.765625 C 249.101562 230.324219 251.199219 226.636719 251.699219 225.144531 C 252.417969 222.972656 253.136719 220.800781 253.84375 218.632812 C 255.324219 214.089844 256.785156 209.535156 258.214844 204.976562 C 261.082031 195.859375 263.847656 186.707031 266.511719 177.527344 C 269.15625 168.421875 271.542969 159.238281 274.257812 150.15625 C 276.910156 141.292969 280.21875 132.636719 283.34375 123.9375 C 283.53125 123.417969 283.132812 122.941406 282.679688 122.765625 C 279.1875 121.410156 275.566406 120.621094 271.824219 120.394531 C 271.371094 120.363281 271.066406 120.714844 270.910156 121.089844 C 262.425781 141.203125 259.707031 163.109375 251.917969 183.460938 C 249.964844 188.566406 247.789062 193.574219 246.257812 198.832031 C 244.726562 204.089844 243.636719 209.398438 241.921875 214.570312 C 240.585938 218.5625 237.046875 223.730469 237.394531 228.066406 C 237.703125 232.03125 243.398438 231.863281 246.289062 232.484375 C 247.480469 232.734375 247.988281 230.902344 246.792969 230.648438 C 244.398438 230.140625 238.667969 229.953125 239.480469 226.421875 C 239.988281 224.191406 241.027344 222.054688 241.898438 219.953125 C 243.757812 215.449219 245.082031 210.820312 246.296875 206.113281 C 248.789062 196.425781 252.742188 187.445312 255.90625 177.992188 C 262.128906 159.355469 265.082031 139.769531 272.726562 121.585938 L 271.8125 122.285156 C 275.386719 122.515625 278.839844 123.289062 282.175781 124.597656 L 281.515625 123.429688 C 278.261719 132.515625 274.800781 141.554688 272.078125 150.824219 C 269.285156 160.320312 266.761719 169.910156 263.984375 179.414062 C 261.179688 188.988281 258.265625 198.527344 255.246094 208.039062 C 253.800781 212.59375 252.332031 217.140625 250.832031 221.679688 C 250.054688 224.046875 249.265625 226.414062 248.472656 228.78125 C 247.929688 230.375 247.433594 231.246094 248.117188 232.730469 C 248.304688 233.140625 248.796875 233.222656 249.199219 233.167969 C 249.867188 233.070312 250.070312 232.871094 250.363281 232.273438 C 250.46875 232.085938 250.507812 231.886719 250.480469 231.671875 C 250.453125 231.460938 250.363281 231.277344 250.210938 231.125 L 249.984375 230.929688 C 249.054688 230.152344 247.703125 231.488281 248.628906 232.289062 Z M 248.628906 232.269531 " fill-opacity="1" fill-rule="nonzero"/><path fill="#f95353" d="M 151.40625 158.875 C 151.40625 159.132812 151.359375 159.386719 151.269531 159.640625 C 151.179688 159.890625 151.046875 160.136719 150.871094 160.371094 C 150.691406 160.609375 150.476562 160.835938 150.21875 161.046875 C 149.960938 161.261719 149.667969 161.457031 149.339844 161.640625 C 149.011719 161.820312 148.65625 161.984375 148.269531 162.125 C 147.886719 162.269531 147.480469 162.390625 147.050781 162.488281 C 146.625 162.585938 146.183594 162.660156 145.726562 162.710938 C 145.273438 162.757812 144.816406 162.785156 144.351562 162.785156 C 143.886719 162.785156 143.429688 162.757812 142.976562 162.710938 C 142.519531 162.660156 142.082031 162.585938 141.652344 162.488281 C 141.222656 162.390625 140.816406 162.269531 140.433594 162.125 C 140.046875 161.984375 139.691406 161.820312 139.363281 161.640625 C 139.035156 161.457031 138.742188 161.261719 138.484375 161.046875 C 138.230469 160.835938 138.011719 160.609375 137.835938 160.371094 C 137.65625 160.136719 137.523438 159.890625 137.433594 159.640625 C 137.34375 159.386719 137.296875 159.132812 137.296875 158.875 C 137.296875 158.621094 137.34375 158.367188 137.433594 158.113281 C 137.523438 157.863281 137.65625 157.617188 137.835938 157.382812 C 138.011719 157.144531 138.230469 156.917969 138.484375 156.707031 C 138.742188 156.492188 139.035156 156.296875 139.363281 156.113281 C 139.691406 155.933594 140.046875 155.769531 140.433594 155.628906 C 140.816406 155.484375 141.222656 155.363281 141.652344 155.265625 C 142.082031 155.167969 142.519531 155.09375 142.976562 155.042969 C 143.429688 154.992188 143.886719 154.96875 144.351562 154.96875 C 144.816406 154.96875 145.273438 154.992188 145.726562 155.042969 C 146.183594 155.09375 146.625 155.167969 147.050781 155.265625 C 147.480469 155.363281 147.886719 155.484375 148.269531 155.628906 C 148.65625 155.769531 149.011719 155.933594 149.339844 156.113281 C 149.667969 156.296875 149.960938 156.492188 150.21875 156.707031 C 150.476562 156.917969 150.691406 157.144531 150.871094 157.382812 C 151.046875 157.617188 151.179688 157.863281 151.269531 158.113281 C 151.359375 158.367188 151.40625 158.621094 151.40625 158.875 Z M 151.40625 158.875 " fill-opacity="1" fill-rule="nonzero"/><path fill="#f95353" d="M 228.597656 158.875 C 228.597656 159.132812 228.554688 159.386719 228.464844 159.640625 C 228.375 159.890625 228.238281 160.136719 228.0625 160.371094 C 227.886719 160.609375 227.667969 160.835938 227.410156 161.046875 C 227.152344 161.261719 226.859375 161.457031 226.535156 161.640625 C 226.207031 161.820312 225.847656 161.984375 225.464844 162.125 C 225.078125 162.269531 224.671875 162.390625 224.246094 162.488281 C 223.816406 162.585938 223.375 162.660156 222.921875 162.710938 C 222.46875 162.757812 222.007812 162.785156 221.546875 162.785156 C 221.082031 162.785156 220.625 162.757812 220.167969 162.710938 C 219.714844 162.660156 219.273438 162.585938 218.84375 162.488281 C 218.417969 162.390625 218.011719 162.269531 217.625 162.125 C 217.242188 161.984375 216.882812 161.820312 216.558594 161.640625 C 216.230469 161.457031 215.9375 161.261719 215.679688 161.046875 C 215.421875 160.835938 215.203125 160.609375 215.027344 160.371094 C 214.851562 160.136719 214.714844 159.890625 214.625 159.640625 C 214.535156 159.386719 214.492188 159.132812 214.492188 158.875 C 214.492188 158.621094 214.535156 158.367188 214.625 158.113281 C 214.714844 157.863281 214.851562 157.617188 215.027344 157.382812 C 215.203125 157.144531 215.421875 156.917969 215.679688 156.707031 C 215.9375 156.492188 216.230469 156.296875 216.558594 156.113281 C 216.882812 155.933594 217.242188 155.769531 217.625 155.628906 C 218.011719 155.484375 218.417969 155.363281 218.84375 155.265625 C 219.273438 155.167969 219.714844 155.09375 220.167969 155.042969 C 220.625 154.992188 221.082031 154.96875 221.546875 154.96875 C 222.007812 154.96875 222.46875 154.992188 222.921875 155.042969 C 223.375 155.09375 223.816406 155.167969 224.246094 155.265625 C 224.671875 155.363281 225.078125 155.484375 225.464844 155.628906 C 225.847656 155.769531 226.207031 155.933594 226.535156 156.113281 C 226.859375 156.296875 227.152344 156.492188 227.410156 156.707031 C 227.667969 156.917969 227.886719 157.144531 228.0625 157.382812 C 228.238281 157.617188 228.375 157.863281 228.464844 158.113281 C 228.554688 158.367188 228.597656 158.621094 228.597656 158.875 Z M 228.597656 158.875 " fill-opacity="1" fill-rule="nonzero"/><path fill="#cccccc" d="M 205.695312 216.011719 C 206.269531 220.332031 211.476562 222.8125 215.71875 221.847656 C 219.960938 220.882812 223.222656 217.484375 225.707031 213.90625 C 232.363281 204.320312 235.210938 192.664062 237.808594 181.277344 C 241.789062 163.851562 245.515625 146.210938 245.597656 128.335938 C 245.640625 119.78125 244.816406 111.109375 241.804688 103.097656 C 238.796875 95.085938 233.410156 87.773438 225.949219 83.625 C 231.753906 85.226562 237.148438 87.722656 242.128906 91.109375 C 244.792969 92.925781 247.332031 95.015625 249.136719 97.6875 C 251.527344 101.21875 252.464844 105.519531 253.183594 109.726562 C 255.039062 120.660156 255.703125 131.667969 255.175781 142.746094 C 254.648438 153.828125 252.941406 164.722656 250.058594 175.429688 C 249.023438 179.253906 247.84375 183.03125 246.664062 186.808594 C 241.488281 203.382812 235.847656 220.714844 223.320312 232.707031 C 221.679688 234.28125 219.855469 235.78125 217.671875 236.410156 C 215.488281 237.035156 212.859375 236.578125 211.464844 234.78125 C 210.773438 233.890625 210.449219 232.777344 210.136719 231.691406 C 208.980469 227.648438 207.824219 223.605469 206.664062 219.558594 " fill-opacity="1" fill-rule="nonzero"/><path fill="#cccccc" d="M 204.777344 216.261719 C 205.519531 219.96875 208.730469 222.386719 212.382812 222.890625 C 216.292969 223.433594 219.953125 221.535156 222.738281 218.898438 C 230.742188 211.355469 234.332031 199.359375 236.945312 189.015625 C 240.195312 176.117188 243.078125 162.992188 244.898438 149.808594 C 246.597656 137.503906 247.53125 124.683594 245.304688 112.382812 C 243.136719 100.460938 237.175781 89.019531 226.425781 82.804688 L 225.695312 84.542969 C 231.996094 86.34375 238.058594 89.128906 243.304688 93.113281 C 248.800781 97.296875 251.015625 102.796875 252.1875 109.441406 C 254.449219 122.433594 255.003906 135.503906 253.84375 148.644531 C 252.703125 161.828125 249.546875 174.441406 245.605469 187.03125 C 242.222656 197.859375 238.722656 208.820312 232.984375 218.667969 C 229.863281 224.027344 226.039062 229.390625 221.203125 233.335938 C 219.371094 234.835938 216.988281 236.164062 214.535156 235.578125 C 212.167969 235.007812 211.484375 232.882812 210.890625 230.824219 C 209.78125 226.984375 208.691406 223.136719 207.589844 219.292969 C 207.253906 218.117188 205.421875 218.617188 205.757812 219.796875 C 206.859375 223.640625 207.949219 227.488281 209.0625 231.328125 C 209.761719 233.753906 210.519531 235.984375 212.996094 237.0625 C 217.832031 239.160156 222.328125 235.160156 225.445312 231.933594 C 234.359375 222.726562 239.632812 210.765625 243.777344 198.796875 C 248.546875 185.039062 252.871094 171.003906 254.855469 156.542969 C 256.847656 142.011719 256.785156 127.484375 254.667969 112.96875 C 253.582031 105.511719 252.144531 98.222656 246.234375 93.039062 C 240.578125 88.070312 233.394531 84.761719 226.210938 82.710938 C 225.179688 82.414062 224.542969 83.90625 225.480469 84.445312 C 244.957031 95.691406 245.847656 121.21875 244.023438 141.082031 C 242.972656 152.539062 240.738281 163.847656 238.25 175.066406 C 236.015625 185.121094 233.960938 195.457031 229.6875 204.890625 C 227.519531 209.660156 224.757812 214.738281 220.710938 218.1875 C 216.535156 221.714844 208.007812 222.710938 206.625 215.746094 C 206.386719 214.546875 204.554688 215.054688 204.792969 216.25 Z M 204.777344 216.261719 " fill-opacity="1" fill-rule="nonzero"/><path fill="#cccccc" d="M 136.820312 224.925781 C 137.011719 228.257812 141.460938 229.90625 144.523438 228.582031 C 147.582031 227.257812 149.429688 224.148438 150.960938 221.183594 C 153.628906 216.027344 156.011719 211.371094 158.089844 205.953125 C 159.605469 202 160.929688 199.628906 163.90625 196.621094 C 169.214844 191.269531 177.894531 189.324219 185.324219 190.570312 C 179.050781 190.363281 173.132812 193.457031 169.285156 198.417969 C 165.433594 203.382812 163.324219 209.460938 161.574219 215.5 C 159.824219 221.539062 158.375 227.710938 155.574219 233.347656 C 154.652344 235.210938 153.425781 237.148438 151.464844 237.828125 C 148.679688 238.800781 145.773438 236.894531 143.554688 234.945312 C 141.753906 233.359375 140.046875 231.675781 138.433594 229.894531 " fill-opacity="1" fill-rule="nonzero"/><path fill="#cccccc" d="M 135.90625 225.175781 C 136.515625 229.210938 141.253906 230.875 144.773438 229.5 C 150.207031 227.390625 152.769531 219.90625 155.089844 215.144531 C 158.097656 208.957031 159.789062 201.847656 164.90625 196.988281 C 170.183594 191.964844 178.046875 190.4375 185.074219 191.484375 L 185.324219 189.617188 C 173.183594 189.558594 166.101562 199.230469 162.398438 209.734375 C 160.234375 215.917969 158.960938 222.394531 156.628906 228.527344 C 155.222656 232.226562 153.214844 238.296875 148.121094 236.742188 C 144.582031 235.65625 141.535156 231.855469 139.101562 229.222656 C 138.269531 228.324219 136.933594 229.671875 137.761719 230.582031 C 140.933594 234.015625 146.46875 240.804688 151.941406 238.660156 C 157.011719 236.675781 158.828125 228.382812 160.207031 223.78125 C 164.15625 210.65625 167.984375 191.445312 185.324219 191.53125 C 186.359375 191.53125 186.664062 189.828125 185.578125 189.664062 C 175.460938 188.15625 164.769531 191.660156 159.414062 200.835938 C 157.957031 203.335938 157.066406 206.113281 155.9375 208.761719 C 154.582031 211.964844 153.039062 215.082031 151.453125 218.179688 C 150.050781 220.917969 148.722656 224.046875 146.425781 226.171875 C 143.917969 228.492188 138.414062 229.183594 137.734375 224.679688 C 137.554688 223.476562 135.726562 223.988281 135.90625 225.1875 Z M 135.90625 225.175781 " fill-opacity="1" fill-rule="nonzero"/><path fill="#cccccc" d="M 272.914062 90.878906 L 285.820312 77.15625 C 286.351562 78.789062 287.089844 80.328125 288.023438 81.769531 C 283.109375 86.042969 278.5 90.625 274.191406 95.511719 L 273.378906 90.898438 " fill-opacity="1" fill-rule="nonzero"/><path fill="#cccccc" d="M 273.582031 91.546875 L 286.488281 77.828125 L 284.902344 77.410156 C 285.5 79.105469 286.269531 80.71875 287.207031 82.25 L 287.351562 81.101562 C 282.457031 85.390625 277.84375 89.96875 273.519531 94.835938 L 275.105469 95.261719 L 274.292969 90.648438 C 274.078125 89.449219 272.25 89.953125 272.460938 91.15625 L 273.277344 95.769531 C 273.398438 96.460938 274.410156 96.695312 274.859375 96.1875 C 279.1875 91.320312 283.800781 86.742188 288.695312 82.449219 C 288.847656 82.292969 288.933594 82.109375 288.960938 81.898438 C 288.988281 81.683594 288.949219 81.480469 288.84375 81.296875 C 287.984375 79.90625 287.28125 78.445312 286.730469 76.910156 C 286.507812 76.265625 285.667969 75.929688 285.15625 76.484375 L 272.242188 90.203125 C 271.402344 91.09375 272.746094 92.441406 273.582031 91.5625 Z M 273.582031 91.546875 " fill-opacity="1" fill-rule="nonzero"/><path fill="#cccccc" d="M 275.992188 100.304688 C 280.9375 95.929688 285.605469 91.277344 290 86.347656 " fill-opacity="1" fill-rule="nonzero"/><path fill="#cccccc" d="M 276.660156 100.976562 C 281.59375 96.589844 286.265625 91.9375 290.671875 87.019531 C 291.484375 86.113281 290.148438 84.761719 289.316406 85.660156 C 284.914062 90.582031 280.25 95.238281 275.320312 99.632812 C 274.40625 100.445312 275.75 101.789062 276.660156 100.988281 Z M 276.660156 100.976562 " fill-opacity="1" fill-rule="nonzero"/><path fill="#db3737" d="M 238.691406 225.957031 L 243.125 226.714844 C 243.609375 226.824219 244.105469 226.855469 244.601562 226.804688 C 246.332031 226.535156 247.136719 224.558594 247.632812 222.875 C 251.242188 210.605469 255.28125 198.453125 259.324219 186.324219 C 261.738281 179.058594 264.175781 171.757812 267.769531 164.996094 C 268.808594 165.039062 269.558594 166.121094 269.617188 167.167969 C 269.671875 168.214844 269.226562 169.199219 268.800781 170.152344 C 265.441406 177.730469 262.996094 185.695312 261.046875 193.761719 C 260.40625 196.410156 259.816406 199.074219 259.148438 201.710938 C 256.710938 211.144531 253.136719 220.230469 249.5625 229.289062 C 249.25 230.074219 248.898438 230.917969 248.191406 231.371094 C 247.726562 231.640625 247.226562 231.792969 246.6875 231.820312 C 245.800781 231.894531 244.921875 231.835938 244.050781 231.652344 C 243.179688 231.464844 242.351562 231.160156 241.570312 230.730469 C 240.789062 230.300781 240.085938 229.769531 239.460938 229.132812 C 238.839844 228.496094 238.316406 227.78125 237.902344 226.992188 " fill-opacity="1" fill-rule="nonzero"/><path fill="#db3737" d="M 238.4375 226.882812 C 242.371094 227.554688 246.109375 229.023438 248.03125 224.605469 C 249.289062 221.71875 249.929688 218.445312 250.871094 215.433594 C 251.964844 211.886719 253.085938 208.34375 254.230469 204.808594 C 258.484375 191.648438 262.171875 177.789062 268.589844 165.484375 L 267.503906 165.921875 C 269.871094 166.605469 265.6875 175.183594 265.207031 176.480469 C 264.125 179.445312 263.136719 182.453125 262.25 185.484375 C 260.59375 191.144531 259.429688 196.929688 257.914062 202.625 C 256.339844 208.503906 254.324219 214.257812 252.167969 219.945312 C 251.59375 221.464844 251.011719 222.980469 250.417969 224.492188 C 249.84375 225.960938 249.335938 228.359375 248.394531 229.585938 C 245.546875 233.269531 240.222656 229.132812 238.710938 226.503906 C 238.101562 225.441406 236.464844 226.398438 237.074219 227.460938 C 239.054688 230.90625 246.21875 235.679688 249.601562 231.261719 C 250.558594 230.011719 251.023438 228.109375 251.582031 226.6875 C 252.394531 224.605469 253.207031 222.527344 254 220.445312 C 255.648438 216.082031 257.21875 211.683594 258.570312 207.21875 C 261.152344 198.699219 262.71875 189.925781 265.496094 181.457031 C 266.847656 177.359375 268.71875 173.488281 270.128906 169.433594 C 270.914062 167.175781 270.527344 164.820312 268.023438 164.085938 C 267.8125 164.027344 267.609375 164.035156 267.40625 164.117188 C 267.203125 164.199219 267.050781 164.332031 266.9375 164.523438 C 261.738281 174.488281 258.589844 185.417969 255.078125 196.0625 C 253.207031 201.746094 251.355469 207.4375 249.578125 213.160156 C 248.71875 215.917969 247.886719 218.6875 247.054688 221.453125 C 246.414062 223.566406 246.242188 225.5 243.363281 225.8125 C 242.0625 225.949219 240.222656 225.269531 238.929688 225.054688 C 237.734375 224.851562 237.222656 226.683594 238.425781 226.886719 Z M 238.4375 226.882812 " fill-opacity="1" fill-rule="nonzero"/><path fill="#db3737" d="M 279.332031 120.652344 C 272.898438 140.9375 266.953125 161.363281 261.496094 181.9375 C 264.964844 178.054688 266.867188 173.042969 268.582031 168.121094 C 273.363281 154.425781 277.332031 140.464844 281.300781 126.515625 L 282.175781 123.441406 C 282.378906 122.714844 282.519531 121.78125 281.902344 121.351562 L 281.226562 121.859375 " fill-opacity="1" fill-rule="nonzero"/><path fill="#db3737" d="M 278.414062 120.402344 C 271.992188 140.6875 266.050781 161.117188 260.582031 181.6875 C 260.351562 182.554688 261.53125 183.359375 262.167969 182.613281 C 265.246094 178.996094 267.175781 174.773438 268.796875 170.34375 C 270.964844 164.441406 272.859375 158.433594 274.714844 152.433594 C 276.546875 146.492188 278.289062 140.523438 280 134.546875 C 280.839844 131.617188 281.675781 128.683594 282.507812 125.75 C 282.984375 124.074219 283.78125 122.429688 282.71875 120.882812 C 282.449219 120.492188 281.859375 120.214844 281.421875 120.539062 L 280.746094 121.042969 C 279.777344 121.765625 280.722656 123.414062 281.703125 122.671875 L 282.378906 122.171875 L 281.089844 121.832031 C 282.058594 123.246094 279.785156 128.402344 279.375 129.851562 C 278.691406 132.242188 278.007812 134.632812 277.320312 137.023438 C 275.816406 142.210938 274.292969 147.367188 272.691406 152.523438 C 271.09375 157.679688 269.441406 162.796875 267.660156 167.878906 C 265.980469 172.667969 264.136719 177.375 260.820312 181.277344 L 262.402344 182.203125 C 267.871094 161.636719 273.816406 141.207031 280.234375 120.917969 C 280.605469 119.746094 278.773438 119.246094 278.40625 120.410156 Z M 278.414062 120.402344 " fill-opacity="1" fill-rule="nonzero"/><path fill="#2a2a51" d="M 192.582031 161.847656 C 188.925781 169.898438 178.222656 170.035156 174.519531 161.949219 C 173.5 159.730469 170.230469 161.660156 171.238281 163.867188 C 176.085938 174.4375 191.070312 174.308594 195.859375 163.765625 C 196.863281 161.558594 193.585938 159.625 192.582031 161.847656 Z M 192.582031 161.847656 " fill-opacity="1" fill-rule="nonzero"/><path fill="#2a2a51" d="M 282.207031 108.019531 C 289.996094 107.113281 292.601562 97.910156 292.332031 90.957031 C 292.058594 83.707031 288.613281 71.761719 279.640625 71.441406 C 270.339844 71.109375 269.789062 83.003906 270.429688 89.597656 C 270.972656 95.167969 273.238281 104.152344 278.796875 106.769531 C 278.652344 106.972656 278.546875 107.191406 278.488281 107.433594 C 277.554688 111.167969 276.621094 114.902344 275.6875 118.632812 C 274.496094 118.367188 273.289062 118.199219 272.066406 118.125 C 269.820312 118.015625 268.816406 119.175781 268.160156 121.210938 C 266.773438 125.445312 265.75 129.832031 264.488281 134.109375 C 261.40625 144.554688 258.167969 154.953125 254.890625 165.335938 C 254.234375 167.429688 253.570312 169.523438 252.898438 171.617188 C 255.5 159.757812 257.1875 147.6875 257.613281 135.765625 C 258 124.925781 257.34375 113.511719 254.175781 103.082031 C 251.609375 94.605469 246.226562 88.078125 237.976562 84.699219 C 230.050781 81.457031 220.789062 81.171875 212.609375 83.5625 C 204.335938 85.980469 196.265625 91.191406 187.449219 91.191406 C 180.785156 91.191406 175.101562 91.105469 168.683594 88.824219 C 159.464844 85.53125 151.054688 81.449219 141.03125 82.09375 C 133 82.613281 124.738281 85.351562 119.191406 91.445312 C 112.664062 98.613281 111.074219 109.101562 110.066406 118.394531 C 107.652344 140.644531 112.003906 163.269531 117.617188 184.71875 C 120.144531 194.375 123.203125 203.910156 127.324219 213.015625 C 131.140625 221.464844 136.074219 231.042969 143.058594 237.347656 C 145.84375 239.855469 149.625 241.910156 153.355469 240.25 C 157.28125 238.5 158.773438 233.605469 160.03125 229.851562 C 163.425781 219.746094 164.394531 207.738281 171.679688 199.40625 C 174.558594 196.101562 178.347656 193.785156 182.640625 193.492188 L 183.070312 193.464844 C 183.644531 193.445312 184.214844 193.457031 184.785156 193.507812 C 184.832031 193.507812 184.871094 193.507812 184.917969 193.507812 C 194.941406 194.363281 200.144531 205.664062 202.726562 214.335938 C 204.316406 219.671875 205.4375 225.136719 207.269531 230.402344 C 208.515625 234.011719 209.976562 238.574219 213.769531 240.253906 C 222.03125 243.933594 229.339844 231.527344 232.878906 225.953125 C 235.34375 222.03125 237.539062 217.957031 239.464844 213.742188 C 238.808594 215.847656 238.160156 217.953125 237.515625 220.066406 C 236.832031 222.304688 236.078125 224.554688 235.566406 226.847656 C 233.9375 234.15625 243.804688 235.046875 249.011719 234.9375 C 249.605469 234.941406 250.082031 234.710938 250.441406 234.238281 C 250.621094 234.035156 250.757812 233.800781 250.84375 233.542969 C 263.367188 197.046875 274.496094 160.121094 285.128906 123.035156 C 285.402344 122.082031 284.800781 120.917969 283.804688 120.695312 C 282.371094 120.375 280.882812 119.949219 279.371094 119.539062 C 280.292969 115.839844 281.21875 112.140625 282.144531 108.4375 C 282.179688 108.300781 282.199219 108.160156 282.207031 108.019531 Z M 221.363281 234.660156 C 219.382812 236.441406 216.460938 238.1875 214.128906 235.957031 C 212.175781 234.085938 211.359375 230.761719 210.550781 228.296875 C 208.996094 223.539062 207.9375 218.644531 206.535156 213.847656 C 204.167969 205.75 200.621094 197.257812 193.242188 192.515625 C 191.8125 191.578125 190.28125 190.867188 188.644531 190.378906 C 187.007812 189.890625 185.335938 189.644531 183.625 189.648438 C 175.898438 189.511719 169.449219 194.917969 165.644531 201.367188 C 160.769531 209.625 159.5 219.304688 156.554688 228.296875 C 155.792969 230.632812 155.046875 233.484375 153.414062 235.386719 C 150.863281 238.371094 147.75 236.550781 145.375 234.300781 C 142.035156 231.140625 139.378906 227.035156 136.976562 223.148438 C 132.042969 215.175781 128.355469 206.515625 125.390625 197.636719 C 119.03125 178.625 114.453125 158.222656 113.398438 138.167969 C 112.855469 127.675781 113.351562 116.96875 115.875 106.738281 C 118.199219 97.308594 123.589844 90.164062 133.09375 87.304688 C 141.730469 84.710938 150.25 85.828125 158.558594 88.960938 C 165.441406 91.554688 172.375 94.980469 179.867188 94.980469 C 185.164062 94.980469 190.203125 95.199219 195.371094 93.777344 C 204.335938 91.308594 212.550781 86.113281 222.03125 85.824219 C 230.242188 85.578125 239.101562 87.652344 244.925781 93.804688 C 251.78125 101.050781 252.949219 113.074219 253.613281 122.570312 C 255.066406 143.351562 250.96875 164.234375 245.6875 184.238281 C 243.273438 193.386719 240.410156 202.46875 236.503906 211.105469 C 232.816406 219.261719 228.113281 228.582031 221.363281 234.660156 Z M 239.128906 228.199219 C 239.070312 227.65625 239.480469 226.792969 239.621094 226.289062 C 240.222656 224.117188 240.894531 221.945312 241.5625 219.773438 C 243.753906 212.652344 246.039062 205.554688 248.3125 198.453125 C 254.246094 179.914062 260.230469 161.382812 265.863281 142.75 C 267.277344 138.070312 268.671875 133.382812 270.015625 128.683594 C 270.5 126.976562 270.738281 123.957031 271.738281 122.507812 C 271.878906 122.304688 271.914062 122.1875 271.898438 122.125 C 272.054688 122.105469 272.210938 122.074219 272.363281 122.03125 C 273.253906 121.796875 275.121094 122.648438 276.042969 122.847656 L 280.921875 123.929688 C 270.589844 159.910156 259.769531 195.71875 247.640625 231.125 C 244.644531 231.109375 239.390625 230.714844 239.128906 228.199219 Z M 274.097656 87.9375 C 273.859375 83.59375 274.042969 72.769531 281.300781 75.683594 C 289.070312 78.800781 292.136719 99.726562 283.824219 103.636719 C 283.542969 103.574219 283.265625 103.574219 282.984375 103.636719 C 276.335938 104.988281 274.335938 92.386719 274.097656 87.9375 Z M 274.097656 87.9375 " fill-opacity="1" fill-rule="nonzero"/><path fill="#2a2a51" d="M 161.320312 133.59375 C 161.320312 134.480469 161.257812 135.359375 161.140625 136.230469 C 161.019531 137.097656 160.84375 137.945312 160.609375 138.761719 C 160.371094 139.582031 160.085938 140.363281 159.746094 141.097656 C 159.402344 141.835938 159.015625 142.519531 158.582031 143.148438 C 158.148438 143.773438 157.675781 144.335938 157.167969 144.828125 C 156.65625 145.320312 156.117188 145.738281 155.550781 146.074219 C 154.984375 146.414062 154.398438 146.671875 153.796875 146.84375 C 153.195312 147.019531 152.589844 147.105469 151.976562 147.105469 C 151.363281 147.105469 150.753906 147.019531 150.152344 146.84375 C 149.550781 146.671875 148.964844 146.414062 148.398438 146.074219 C 147.832031 145.738281 147.292969 145.320312 146.785156 144.828125 C 146.273438 144.335938 145.800781 143.773438 145.367188 143.148438 C 144.933594 142.519531 144.546875 141.835938 144.207031 141.097656 C 143.867188 140.363281 143.578125 139.582031 143.34375 138.761719 C 143.109375 137.945312 142.929688 137.097656 142.8125 136.230469 C 142.691406 135.359375 142.632812 134.480469 142.632812 133.59375 C 142.632812 132.707031 142.691406 131.828125 142.8125 130.957031 C 142.929688 130.085938 143.109375 129.242188 143.34375 128.421875 C 143.578125 127.601562 143.867188 126.824219 144.207031 126.085938 C 144.546875 125.347656 144.933594 124.664062 145.367188 124.039062 C 145.800781 123.410156 146.273438 122.851562 146.785156 122.359375 C 147.292969 121.863281 147.832031 121.449219 148.398438 121.109375 C 148.964844 120.769531 149.550781 120.511719 150.152344 120.339844 C 150.753906 120.167969 151.363281 120.082031 151.976562 120.082031 C 152.589844 120.082031 153.195312 120.167969 153.796875 120.339844 C 154.398438 120.511719 154.984375 120.769531 155.550781 121.109375 C 156.117188 121.449219 156.65625 121.863281 157.167969 122.359375 C 157.675781 122.851562 158.148438 123.410156 158.582031 124.039062 C 159.015625 124.664062 159.402344 125.347656 159.746094 126.085938 C 160.085938 126.824219 160.371094 127.601562 160.609375 128.421875 C 160.84375 129.242188 161.019531 130.085938 161.140625 130.957031 C 161.257812 131.828125 161.320312 132.707031 161.320312 133.59375 Z M 161.320312 133.59375 " fill-opacity="1" fill-rule="nonzero"/><path fill="#2a2a51" d="M 223.265625 133.59375 C 223.265625 134.480469 223.207031 135.359375 223.085938 136.230469 C 222.964844 137.097656 222.789062 137.945312 222.554688 138.761719 C 222.320312 139.582031 222.03125 140.363281 221.691406 141.097656 C 221.351562 141.835938 220.960938 142.519531 220.527344 143.148438 C 220.09375 143.773438 219.621094 144.335938 219.113281 144.828125 C 218.601562 145.320312 218.0625 145.738281 217.496094 146.074219 C 216.929688 146.414062 216.347656 146.671875 215.746094 146.84375 C 215.144531 147.019531 214.535156 147.105469 213.921875 147.105469 C 213.308594 147.105469 212.699219 147.019531 212.097656 146.84375 C 211.496094 146.671875 210.914062 146.414062 210.347656 146.074219 C 209.777344 145.738281 209.242188 145.320312 208.730469 144.828125 C 208.21875 144.335938 207.75 143.773438 207.316406 143.148438 C 206.878906 142.519531 206.492188 141.835938 206.152344 141.097656 C 205.8125 140.363281 205.523438 139.582031 205.289062 138.761719 C 205.054688 137.945312 204.878906 137.097656 204.757812 136.230469 C 204.636719 135.359375 204.578125 134.480469 204.578125 133.59375 C 204.578125 132.707031 204.636719 131.828125 204.757812 130.957031 C 204.878906 130.085938 205.054688 129.242188 205.289062 128.421875 C 205.523438 127.601562 205.8125 126.824219 206.152344 126.085938 C 206.492188 125.347656 206.878906 124.664062 207.316406 124.039062 C 207.75 123.410156 208.21875 122.851562 208.730469 122.359375 C 209.242188 121.863281 209.777344 121.449219 210.347656 121.109375 C 210.914062 120.769531 211.496094 120.511719 212.097656 120.339844 C 212.699219 120.167969 213.308594 120.082031 213.921875 120.082031 C 214.535156 120.082031 215.144531 120.167969 215.746094 120.339844 C 216.347656 120.511719 216.929688 120.769531 217.496094 121.109375 C 218.0625 121.449219 218.601562 121.863281 219.113281 122.359375 C 219.621094 122.851562 220.09375 123.410156 220.527344 124.039062 C 220.960938 124.664062 221.351562 125.347656 221.691406 126.085938 C 222.03125 126.824219 222.320312 127.601562 222.554688 128.421875 C 222.789062 129.242188 222.964844 130.085938 223.085938 130.957031 C 223.207031 131.828125 223.265625 132.707031 223.265625 133.59375 Z M 223.265625 133.59375 " fill-opacity="1" fill-rule="nonzero"/><path fill="#ffffff" d="M 154.285156 132.621094 C 154.148438 132.777344 154.027344 132.949219 153.929688 133.132812 C 153.832031 133.316406 153.757812 133.507812 153.703125 133.710938 C 153.652344 133.914062 153.625 134.121094 153.621094 134.328125 C 153.613281 134.535156 153.636719 134.742188 153.679688 134.949219 C 153.726562 135.152344 153.792969 135.347656 153.886719 135.535156 C 153.976562 135.722656 154.089844 135.898438 154.222656 136.058594 C 154.355469 136.21875 154.503906 136.363281 154.671875 136.488281 C 154.835938 136.617188 155.015625 136.71875 155.207031 136.804688 C 157.074219 137.492188 158.710938 135.554688 158.210938 133.773438 C 158.15625 133.574219 158.078125 133.386719 157.972656 133.210938 C 157.871094 133.03125 157.75 132.871094 157.605469 132.726562 C 157.460938 132.582031 157.300781 132.453125 157.125 132.351562 C 156.949219 132.246094 156.761719 132.164062 156.566406 132.105469 C 156.371094 132.046875 156.171875 132.015625 155.964844 132.011719 C 155.761719 132.003906 155.558594 132.023438 155.359375 132.066406 C 155.160156 132.113281 154.96875 132.183594 154.789062 132.277344 C 154.605469 132.371094 154.4375 132.484375 154.285156 132.621094 Z M 154.285156 132.621094 " fill-opacity="1" fill-rule="nonzero"/><path fill="#ffffff" d="M 154.117188 131.117188 C 154.824219 130.949219 155.445312 130.613281 155.972656 130.109375 C 156.445312 129.730469 156.820312 129.269531 157.097656 128.730469 C 157.378906 128.195312 157.539062 127.621094 157.578125 127.015625 C 157.710938 125.097656 156.582031 122.984375 154.644531 122.4375 C 154.519531 122.402344 154.390625 122.378906 154.257812 122.363281 C 152.582031 122.007812 150.542969 122.96875 149.511719 124.246094 C 148.308594 125.734375 148.503906 127.773438 149.511719 129.316406 C 149.847656 129.835938 150.28125 130.257812 150.808594 130.582031 C 151.339844 130.90625 151.914062 131.097656 152.53125 131.15625 C 153.0625 131.246094 153.589844 131.230469 154.117188 131.117188 Z M 154.117188 131.117188 " fill-opacity="1" fill-rule="nonzero"/><path fill="#ffffff" d="M 219.890625 133.773438 C 219.835938 133.574219 219.757812 133.386719 219.65625 133.210938 C 219.550781 133.03125 219.429688 132.871094 219.285156 132.726562 C 219.140625 132.582031 218.980469 132.453125 218.804688 132.351562 C 218.628906 132.246094 218.445312 132.164062 218.25 132.105469 C 218.050781 132.046875 217.851562 132.015625 217.648438 132.011719 C 217.441406 132.003906 217.242188 132.023438 217.042969 132.066406 C 216.839844 132.113281 216.652344 132.183594 216.46875 132.277344 C 216.285156 132.371094 216.121094 132.484375 215.96875 132.621094 C 215.828125 132.777344 215.710938 132.949219 215.613281 133.132812 C 215.515625 133.316406 215.441406 133.507812 215.386719 133.710938 C 215.335938 133.914062 215.308594 134.121094 215.304688 134.328125 C 215.300781 134.535156 215.320312 134.742188 215.367188 134.945312 C 215.410156 135.152344 215.476562 135.347656 215.570312 135.535156 C 215.660156 135.722656 215.773438 135.898438 215.90625 136.058594 C 216.035156 136.21875 216.1875 136.363281 216.351562 136.488281 C 216.519531 136.613281 216.695312 136.71875 216.886719 136.804688 C 218.753906 137.492188 220.40625 135.554688 219.890625 133.773438 Z M 219.890625 133.773438 " fill-opacity="1" fill-rule="nonzero"/><path fill="#ffffff" d="M 215.800781 131.117188 C 216.511719 130.949219 217.132812 130.613281 217.660156 130.109375 C 218.132812 129.730469 218.507812 129.269531 218.789062 128.734375 C 219.066406 128.195312 219.226562 127.621094 219.265625 127.015625 C 219.398438 125.097656 218.273438 122.984375 216.335938 122.4375 C 216.207031 122.402344 216.078125 122.378906 215.949219 122.363281 C 214.269531 122.007812 212.226562 122.96875 211.195312 124.246094 C 209.996094 125.734375 210.1875 127.773438 211.195312 129.316406 C 211.53125 129.835938 211.964844 130.261719 212.496094 130.582031 C 213.023438 130.90625 213.597656 131.097656 214.214844 131.15625 C 214.746094 131.246094 215.273438 131.234375 215.800781 131.117188 Z M 215.800781 131.117188 " fill-opacity="1" fill-rule="nonzero"/></svg>