<svg xmlns="http://www.w3.org/2000/svg" xmlns:xlink="http://www.w3.org/1999/xlink" width="500" zoomAndPan="magnify" viewBox="0 0 375 374.999991" height="500" preserveAspectRatio="xMidYMid meet" version="1.0"><defs><clipPath id="cd2e947f18"><path d="M 94 99.445312 L 255 99.445312 L 255 243 L 94 243 Z M 94 99.445312 " clip-rule="nonzero"/></clipPath></defs><rect x="-37.5" width="450" fill="#ffffff" y="-37.499999" height="449.999989" fill-opacity="1"/><rect x="-37.5" width="450" fill="#ffffff" y="-37.499999" height="449.999989" fill-opacity="1"/><path fill="#000000" d="M 224.984375 167.671875 C 224.566406 167.253906 224.074219 166.921875 223.671875 166.480469 C 223.09375 165.855469 222.988281 165.042969 222.613281 164.316406 C 222.570312 164.230469 222.425781 164.21875 222.390625 164.320312 C 221.902344 165.777344 223.355469 167.828125 224.878906 167.894531 C 224.988281 167.898438 225.074219 167.757812 224.984375 167.671875 Z M 224.984375 167.671875 " fill-opacity="1" fill-rule="nonzero"/><path fill="#000000" d="M 267.925781 124.121094 C 263.960938 118.382812 255.933594 115.847656 249.773438 118.921875 C 248.710938 119.339844 247.828125 119.96875 247.09375 120.742188 C 247.089844 120.742188 247.085938 120.75 247.078125 120.753906 C 247.070312 120.761719 247.066406 120.769531 247.058594 120.777344 C 245.847656 122.070312 245.042969 123.75 244.507812 125.519531 C 243.660156 128.335938 244.699219 131.28125 245.582031 133.957031 C 246.105469 135.554688 246.839844 137.078125 247.742188 138.476562 C 244.015625 142.726562 240.199219 146.832031 236.15625 150.785156 C 232.242188 154.613281 228.027344 158.230469 224.285156 162.234375 C 223.058594 162.097656 221.402344 162.859375 220.613281 163.949219 C 215.660156 168.316406 211.097656 173.203125 206.289062 177.726562 C 201.351562 182.375 196.546875 187.117188 191.542969 191.664062 C 190.496094 192.199219 189.5625 192.898438 188.554688 193.527344 C 187.757812 194.027344 186.664062 194.4375 185.9375 195.109375 C 185.914062 195.121094 185.886719 195.128906 185.863281 195.152344 C 183.449219 197.039062 181.449219 199.542969 179.316406 201.738281 C 176.664062 204.480469 173.929688 207.144531 171.199219 209.804688 C 165.675781 215.183594 160.140625 220.546875 154.699219 226.007812 C 149.277344 231.453125 143.878906 236.921875 138.390625 242.300781 C 133.273438 247.324219 127.8125 252.050781 123.066406 257.433594 C 122.945312 257.566406 122.894531 257.707031 122.894531 257.84375 C 121.058594 259.898438 122.125 263.640625 123.574219 265.625 C 125.230469 267.898438 129.546875 269.578125 132.109375 267.980469 C 132.347656 267.835938 132.472656 267.554688 132.476562 267.28125 C 137.570312 262.492188 191.265625 209.734375 195.089844 203.511719 C 195.253906 203.242188 194.851562 202.90625 194.609375 203.109375 C 191.820312 205.457031 189.464844 208.371094 186.957031 211.019531 C 184.378906 213.746094 181.730469 216.410156 179.082031 219.070312 C 173.820312 224.339844 136.65625 261.382812 131.28125 266.535156 C 130.339844 266.480469 129.402344 266.621094 128.441406 266.445312 C 127.109375 266.191406 125.949219 265.433594 125.046875 264.445312 C 123.324219 262.554688 123.929688 260.628906 123.804688 258.542969 C 123.941406 258.515625 124.074219 258.4375 124.1875 258.304688 C 128.839844 252.871094 134.304688 248.1875 139.441406 243.21875 C 144.96875 237.867188 150.347656 232.367188 155.773438 226.910156 C 161.1875 221.46875 166.710938 216.140625 172.175781 210.753906 C 174.652344 208.308594 177.097656 205.835938 179.519531 203.34375 C 181.707031 201.09375 184.1875 198.816406 185.957031 196.195312 C 187.027344 196.152344 188.027344 195.265625 188.867188 194.671875 C 189.753906 194.046875 190.621094 193.375 191.34375 192.578125 C 191.382812 192.566406 191.421875 192.546875 191.460938 192.507812 C 193.726562 190.203125 196.355469 188.335938 198.703125 186.125 C 201.453125 183.535156 204.199219 180.941406 206.953125 178.359375 C 211.59375 174.007812 216.585938 169.738281 220.761719 164.910156 C 221.347656 164.441406 221.789062 163.832031 222.433594 163.40625 C 222.863281 163.121094 223.292969 162.96875 223.734375 162.824219 C 223.679688 162.882812 223.625 162.9375 223.570312 163 C 223.417969 163.167969 223.449219 163.351562 223.554688 163.480469 C 223.351562 164.304688 223.726562 165.226562 224.304688 165.824219 C 224.613281 166.140625 224.980469 166.375 225.390625 166.539062 C 225.675781 166.652344 226.1875 166.804688 226.589844 166.792969 C 226.6875 167 226.96875 167.128906 227.1875 166.925781 C 227.324219 166.800781 227.453125 166.667969 227.585938 166.542969 C 227.578125 167.027344 227.582031 167.503906 227.382812 168.015625 C 227.25 168.351562 227.03125 168.625 226.792969 168.886719 C 226.707031 168.832031 226.601562 168.820312 226.507812 168.90625 C 220.390625 174.664062 214.660156 180.839844 208.5625 186.625 C 205.949219 189.105469 203.335938 191.589844 200.925781 194.273438 C 198.800781 196.640625 196.324219 199.265625 195.007812 202.207031 C 194.832031 202.601562 195.445312 202.832031 195.667969 202.511719 C 200.0625 196.25 205.269531 191.113281 210.851562 185.898438 C 216.230469 180.867188 222.132812 175.722656 226.527344 169.765625 C 227.96875 169.316406 229.019531 167.191406 228.34375 165.816406 C 232.21875 162.121094 235.890625 158.183594 239.628906 154.355469 C 241.648438 152.289062 243.6875 150.238281 245.761719 148.226562 C 247.589844 146.449219 250.128906 144.804688 251.445312 142.609375 C 253.121094 143.964844 255.058594 144.984375 257.222656 145.519531 C 258.449219 146.445312 261.472656 146.25 262.855469 146.089844 C 264.460938 145.90625 266.511719 145.339844 267.953125 144.265625 C 267.992188 144.292969 268.046875 144.304688 268.089844 144.277344 C 275.664062 139.351562 272.042969 130.082031 267.925781 124.121094 Z M 245.855469 146.867188 C 243.519531 149.085938 241.273438 151.402344 239.027344 153.714844 C 235.113281 157.742188 231.246094 161.824219 227.265625 165.785156 C 226.933594 165.578125 226.335938 165.644531 226.007812 165.578125 C 224.851562 165.339844 224.699219 164.269531 224.320312 163.367188 C 232.398438 155.519531 241.210938 148.050781 248.226562 139.1875 C 249.09375 140.40625 250.105469 141.503906 251.242188 142.449219 C 249.136719 143.292969 247.46875 145.328125 245.855469 146.867188 Z M 268.960938 142.890625 C 266.585938 145.324219 262.238281 146.492188 258.972656 145.429688 C 258.585938 145.394531 258.195312 145.34375 257.800781 145.265625 C 257.785156 145.199219 257.742188 145.140625 257.664062 145.117188 C 253.164062 143.59375 250.011719 140.46875 247.648438 136.46875 C 244.125 130.496094 244.152344 124.835938 248.425781 120.414062 C 250.804688 119.164062 252.992188 118.4375 255.921875 118.558594 C 259.738281 118.71875 263.105469 120.710938 265.660156 123.425781 C 268.191406 126.117188 269.796875 129.890625 270.78125 133.402344 C 270.957031 134.027344 271.0625 134.609375 271.113281 135.152344 C 271.707031 137.660156 270.699219 141.109375 268.960938 142.890625 Z M 268.960938 142.890625 " fill-opacity="1" fill-rule="nonzero"/><path fill="#000000" d="M 194.722656 202.191406 C 193.351562 201.609375 191.902344 201.527344 190.617188 200.699219 C 189.070312 199.707031 188.628906 198.023438 187.960938 196.429688 C 187.792969 196.035156 187.164062 196.171875 187.144531 196.589844 C 186.980469 200.132812 191.105469 204.132812 194.714844 202.761719 C 195.003906 202.652344 195.003906 202.308594 194.722656 202.191406 Z M 194.722656 202.191406 " fill-opacity="1" fill-rule="nonzero"/><path fill="#000000" d="M 264.871094 125.691406 C 261.796875 122.25 256.253906 120.058594 251.707031 121.503906 C 251.777344 121.441406 251.71875 121.328125 251.625 121.363281 C 242.914062 124.496094 246.210938 134.421875 250.863281 139.617188 C 255.445312 144.730469 264.21875 147.40625 267.890625 141.171875 C 267.945312 141.175781 268 141.164062 268.035156 141.117188 C 271.863281 136.300781 268.324219 129.558594 264.871094 125.691406 Z M 259.789062 144.269531 C 256.851562 143.609375 254.136719 141.707031 252.015625 139.636719 C 246.875 134.617188 244.101562 127.097656 250.515625 122.308594 C 256.539062 120.722656 261.386719 122.808594 265.441406 127.617188 C 267.03125 129.5 268.035156 131.742188 268.585938 134.128906 C 269.023438 136.035156 268.59375 137.808594 268.105469 139.59375 C 266.183594 142.53125 263.890625 145.191406 259.789062 144.269531 Z M 259.789062 144.269531 " fill-opacity="1" fill-rule="nonzero"/><g clip-path="url(#cd2e947f18)"><path fill="#000000" d="M 254.601562 113.691406 C 254.539062 113.644531 254.476562 113.601562 254.417969 113.558594 C 254.539062 113.507812 254.59375 113.3125 254.488281 113.195312 C 252.421875 110.910156 249.78125 109.058594 247.382812 107.128906 C 244.789062 105.046875 242.316406 102.699219 239.621094 100.738281 C 239.617188 100.726562 239.621094 100.710938 239.617188 100.695312 C 239.441406 100.0625 238.746094 99.878906 238.160156 99.726562 C 237.632812 99.589844 237.089844 99.679688 236.59375 99.890625 C 235.375 100.0625 234.21875 100.453125 233.042969 100.816406 C 231.363281 101.335938 229.589844 101.808594 227.984375 102.519531 C 227.9375 102.542969 227.902344 102.574219 227.875 102.605469 C 227.828125 102.539062 227.738281 102.507812 227.660156 102.582031 C 226.667969 103.535156 226.183594 104.953125 225.570312 106.160156 C 224.835938 107.613281 223.847656 109.070312 223.289062 110.597656 C 213.988281 118.980469 205.644531 128.472656 196.441406 136.976562 C 195.734375 136.8125 194.78125 137.074219 194.125 137.578125 C 194.113281 137.585938 194.101562 137.585938 194.089844 137.59375 C 181.257812 147.824219 171.980469 162.683594 157.394531 170.636719 C 157.230469 170.726562 157.164062 170.859375 157.15625 171 C 157.042969 170.953125 156.917969 170.957031 156.800781 171.054688 C 150.679688 176.226562 145.085938 182.269531 139.363281 187.878906 C 133.433594 193.6875 127.710938 199.714844 122.035156 205.769531 C 116.753906 211.410156 111.519531 217.101562 106.007812 222.519531 C 103.914062 224.574219 101.816406 226.628906 99.730469 228.691406 C 98.339844 230.066406 96.496094 231.488281 95.585938 233.269531 C 95.519531 233.222656 95.429688 233.234375 95.367188 233.292969 C 93.425781 235.023438 95.609375 239.320312 97.015625 240.714844 C 98.796875 242.484375 102.933594 243.175781 105.050781 241.5 C 105.140625 241.484375 105.234375 241.453125 105.324219 241.359375 C 115.527344 231.117188 163.34375 184.703125 167.671875 178.757812 C 167.757812 178.636719 167.734375 178.523438 167.660156 178.441406 C 170.03125 175.65625 171.894531 172.453125 174.25 169.632812 C 176.789062 166.59375 179.664062 163.839844 182.519531 161.101562 C 185.394531 158.347656 188.175781 155.5 191.03125 152.71875 C 193.570312 150.246094 196.457031 147.820312 198.589844 144.945312 C 198.597656 144.941406 198.605469 144.945312 198.617188 144.941406 C 199.917969 144.363281 200.855469 142.382812 200.453125 140.953125 C 209.828125 131.472656 219.738281 122.40625 228.8125 112.640625 C 228.816406 112.636719 228.816406 112.640625 228.820312 112.636719 C 230.425781 112.070312 231.421875 109.300781 231.292969 107.671875 C 232.207031 107.402344 233.078125 106.8125 233.910156 106.382812 C 235.0625 105.789062 236.292969 105.292969 237.378906 104.582031 C 237.488281 104.511719 237.511719 104.410156 237.484375 104.316406 C 239.996094 106.183594 242.941406 107.601562 245.621094 109.226562 C 248.417969 110.925781 251.300781 112.996094 254.476562 113.910156 C 254.609375 113.949219 254.71875 113.78125 254.601562 113.691406 Z M 244.992188 107.996094 C 242.554688 106.53125 240.058594 104.773438 237.347656 103.878906 C 237.199219 103.828125 237.128906 104 237.210938 104.101562 C 237.179688 104.097656 237.144531 104.101562 237.113281 104.113281 C 235.898438 104.464844 234.765625 105.121094 233.640625 105.691406 C 232.628906 106.207031 231.402344 106.664062 230.636719 107.515625 C 230.558594 107.605469 230.617188 107.742188 230.71875 107.777344 C 230.511719 108.605469 230.390625 109.425781 230.023438 110.21875 C 229.785156 110.734375 229.410156 111.160156 229.074219 111.605469 C 229.054688 111.613281 229.035156 111.621094 229.015625 111.636719 C 218.652344 120.398438 209.839844 131.050781 200.074219 140.46875 C 200.003906 140.492188 199.941406 140.542969 199.921875 140.617188 C 199.796875 140.738281 199.671875 140.863281 199.542969 140.988281 C 199.308594 141.210938 199.570312 141.527344 199.832031 141.488281 C 199.804688 141.890625 199.773438 142.285156 199.636719 142.695312 C 199.515625 143.054688 199.320312 143.375 199.109375 143.683594 C 199.089844 143.691406 199.070312 143.6875 199.050781 143.703125 C 192.679688 148.976562 187.003906 155.4375 181.089844 161.222656 C 175.929688 166.273438 170.445312 171.703125 167.066406 178.164062 C 167 178.289062 167.027344 178.398438 167.09375 178.480469 C 160.640625 184.910156 115.007812 230.003906 104.78125 240.28125 C 103.484375 240.378906 102.421875 241 100.964844 240.902344 C 99.691406 240.816406 98.574219 240.238281 97.667969 239.375 C 96.886719 238.628906 96.488281 237.574219 96.226562 236.5625 C 96.019531 235.773438 96.140625 234.84375 95.941406 234.039062 C 95.976562 234.027344 96.011719 234.015625 96.042969 233.992188 C 97.523438 232.914062 151.011719 178.003906 157.34375 171.667969 C 157.390625 171.621094 157.40625 171.554688 157.417969 171.492188 C 157.554688 171.574219 157.722656 171.601562 157.902344 171.503906 C 165.117188 167.523438 170.863281 161.421875 176.566406 155.59375 C 182.089844 149.949219 187.574219 144.242188 193.492188 139.003906 C 193.546875 139.03125 193.609375 139.042969 193.664062 139.023438 C 194.179688 138.8125 194.519531 138.28125 194.988281 137.984375 C 195.21875 137.835938 195.472656 137.742188 195.730469 137.667969 C 195.558594 137.949219 195.882812 138.355469 196.164062 138.105469 C 200.820312 133.925781 205.136719 129.332031 209.671875 125.019531 C 214.46875 120.457031 219.800781 116.042969 223.816406 110.753906 C 223.847656 110.710938 223.859375 110.664062 223.855469 110.621094 C 224.820312 109.617188 225.441406 108.230469 226.074219 107.023438 C 226.742188 105.757812 227.621094 104.335938 227.875 102.910156 C 227.9375 103.011719 228.046875 103.085938 228.183594 103.0625 C 230.785156 102.605469 233.984375 101.636719 236.390625 100.339844 C 236.859375 100.277344 237.3125 100.277344 237.792969 100.394531 C 238.273438 100.507812 238.695312 100.851562 239.164062 100.933594 C 241.15625 103.1875 243.71875 105.050781 246.039062 106.933594 C 247.945312 108.484375 249.8125 110.257812 251.785156 111.804688 C 249.5625 110.464844 247.160156 109.296875 244.992188 107.996094 Z M 244.992188 107.996094 " fill-opacity="1" fill-rule="nonzero"/></g><path fill="#000000" d="M 199.054688 140.972656 C 198.738281 140.582031 198.070312 140.589844 197.628906 140.371094 C 197.378906 140.25 197.175781 140.054688 196.988281 139.851562 C 196.582031 139.417969 196.539062 138.832031 196.242188 138.351562 C 196.160156 138.21875 195.941406 138.226562 195.875 138.371094 C 195.507812 139.1875 196.027344 140.21875 196.621094 140.792969 C 197.140625 141.296875 198.359375 141.945312 199.027344 141.449219 C 199.179688 141.335938 199.164062 141.105469 199.054688 140.972656 Z M 199.054688 140.972656 " fill-opacity="1" fill-rule="nonzero"/><path fill="#000000" d="M 166.039062 177.859375 C 164.328125 177.621094 162.871094 177.15625 161.597656 175.945312 C 160.304688 174.722656 160.066406 173.023438 159.246094 171.542969 C 159.121094 171.316406 158.730469 171.367188 158.6875 171.625 C 158.007812 175.683594 162.332031 178.855469 165.9375 179.066406 C 166.625 179.105469 166.71875 177.953125 166.039062 177.859375 Z M 166.039062 177.859375 " fill-opacity="1" fill-rule="nonzero"/><path fill="#000000" d="M 255.304688 124.53125 C 255.269531 124.386719 255.039062 124.382812 255.035156 124.546875 C 254.945312 128.496094 255.613281 132.882812 256.375 136.757812 C 256.410156 136.933594 256.703125 136.976562 256.710938 136.769531 C 256.878906 132.820312 256.257812 128.363281 255.304688 124.53125 Z M 255.304688 124.53125 " fill-opacity="1" fill-rule="nonzero"/><path fill="#000000" d="M 258.136719 124.941406 C 258.113281 124.652344 257.695312 124.714844 257.695312 124.992188 C 257.695312 129.816406 258.03125 134.859375 259.3125 139.527344 C 259.347656 139.664062 259.554688 139.597656 259.546875 139.46875 C 259.230469 134.617188 258.472656 129.796875 258.136719 124.941406 Z M 258.136719 124.941406 " fill-opacity="1" fill-rule="nonzero"/><path fill="#000000" d="M 261.433594 130.140625 C 261.40625 129.847656 260.96875 129.914062 260.984375 130.199219 C 261.105469 132.246094 261.214844 134.359375 261.671875 136.363281 C 261.734375 136.648438 262.128906 136.59375 262.117188 136.300781 C 262.039062 134.242188 261.605469 132.191406 261.433594 130.140625 Z M 261.433594 130.140625 " fill-opacity="1" fill-rule="nonzero"/><path fill="#000000" d="M 247.277344 139.441406 C 246.984375 140.378906 246.574219 141.867188 247.242188 142.726562 C 247.308594 142.804688 247.460938 142.773438 247.484375 142.671875 C 247.589844 142.210938 247.46875 141.742188 247.476562 141.265625 C 247.484375 140.664062 247.554688 140.105469 247.691406 139.523438 C 247.757812 139.253906 247.355469 139.183594 247.277344 139.441406 Z M 247.277344 139.441406 " fill-opacity="1" fill-rule="nonzero"/><path fill="#000000" d="M 246.289062 140.8125 C 246.40625 140.578125 246.078125 140.394531 245.9375 140.613281 C 245.101562 141.910156 244.46875 143.710938 245.214844 145.1875 C 245.3125 145.375 245.65625 145.363281 245.65625 145.117188 C 245.652344 144.335938 245.527344 143.5625 245.628906 142.777344 C 245.71875 142.097656 245.984375 141.425781 246.289062 140.8125 Z M 246.289062 140.8125 " fill-opacity="1" fill-rule="nonzero"/><path fill="#000000" d="M 243.480469 143.449219 C 242.699219 144.296875 241.710938 146.25 242.675781 147.289062 C 242.792969 147.414062 242.964844 147.328125 243.015625 147.199219 C 243.1875 146.757812 243.085938 146.273438 243.125 145.808594 C 243.1875 145.046875 243.480469 144.347656 243.839844 143.679688 C 243.957031 143.460938 243.640625 143.273438 243.480469 143.449219 Z M 243.480469 143.449219 " fill-opacity="1" fill-rule="nonzero"/><path fill="#000000" d="M 241.269531 145.777344 C 240.828125 146.332031 240.476562 146.921875 240.25 147.59375 C 240.03125 148.25 239.769531 149.222656 240.21875 149.824219 C 240.28125 149.910156 240.421875 149.933594 240.480469 149.824219 C 240.761719 149.289062 240.675781 148.617188 240.792969 148.027344 C 240.929688 147.324219 241.242188 146.65625 241.625 146.054688 C 241.777344 145.8125 241.453125 145.546875 241.269531 145.777344 Z M 241.269531 145.777344 " fill-opacity="1" fill-rule="nonzero"/><path fill="#000000" d="M 239.0625 148.011719 C 238.65625 148.890625 238.027344 150.273438 238.566406 151.207031 C 238.644531 151.335938 238.816406 151.273438 238.859375 151.152344 C 239.015625 150.695312 238.953125 150.183594 239.019531 149.703125 C 239.085938 149.1875 239.257812 148.6875 239.441406 148.203125 C 239.535156 147.953125 239.179688 147.761719 239.0625 148.011719 Z M 239.0625 148.011719 " fill-opacity="1" fill-rule="nonzero"/><path fill="#000000" d="M 237.457031 149.507812 C 236.835938 150.445312 235.988281 152.144531 236.613281 153.253906 C 236.691406 153.398438 236.902344 153.394531 236.960938 153.230469 C 237.105469 152.8125 237.054688 152.382812 237.085938 151.941406 C 237.140625 151.15625 237.386719 150.410156 237.753906 149.71875 C 237.863281 149.519531 237.589844 149.304688 237.457031 149.507812 Z M 237.457031 149.507812 " fill-opacity="1" fill-rule="nonzero"/><path fill="#000000" d="M 235.238281 151.703125 C 234.851562 152.203125 234.574219 152.746094 234.371094 153.347656 C 234.1875 153.898438 233.984375 154.660156 234.3125 155.179688 C 234.363281 155.265625 234.511719 155.285156 234.574219 155.195312 C 234.769531 154.910156 234.773438 154.652344 234.804688 154.304688 C 234.878906 153.453125 235.136719 152.632812 235.578125 151.90625 C 235.714844 151.683594 235.390625 151.507812 235.238281 151.703125 Z M 235.238281 151.703125 " fill-opacity="1" fill-rule="nonzero"/><path fill="#000000" d="M 233.179688 153.445312 C 232.765625 153.910156 232.390625 154.441406 232.214844 155.046875 C 232.058594 155.585938 231.8125 156.398438 232.285156 156.832031 C 232.359375 156.902344 232.457031 156.886719 232.515625 156.808594 C 232.839844 156.386719 232.71875 155.664062 232.851562 155.148438 C 232.980469 154.632812 233.214844 154.160156 233.519531 153.722656 C 233.683594 153.492188 233.371094 153.230469 233.179688 153.445312 Z M 233.179688 153.445312 " fill-opacity="1" fill-rule="nonzero"/><path fill="#000000" d="M 230.527344 156.375 C 230.152344 157.117188 229.578125 158.8125 230.394531 159.449219 C 230.46875 159.503906 230.566406 159.453125 230.597656 159.378906 C 230.773438 158.972656 230.621094 158.484375 230.621094 158.054688 C 230.621094 157.53125 230.753906 157.015625 230.957031 156.542969 C 231.078125 156.265625 230.660156 156.117188 230.527344 156.375 Z M 230.527344 156.375 " fill-opacity="1" fill-rule="nonzero"/><path fill="#000000" d="M 229.039062 158.148438 C 228.777344 158.714844 228.570312 159.292969 228.414062 159.898438 C 228.285156 160.386719 228.132812 160.992188 228.382812 161.457031 C 228.441406 161.5625 228.617188 161.621094 228.691406 161.492188 C 228.949219 161.050781 228.90625 160.507812 228.976562 160.007812 C 229.0625 159.433594 229.230469 158.875 229.429688 158.332031 C 229.523438 158.074219 229.15625 157.890625 229.039062 158.148438 Z M 229.039062 158.148438 " fill-opacity="1" fill-rule="nonzero"/><path fill="#000000" d="M 227.246094 159.792969 C 226.972656 160.4375 226.488281 161.75 227.066406 162.335938 C 227.148438 162.414062 227.277344 162.367188 227.324219 162.28125 C 227.523438 161.914062 227.390625 161.445312 227.417969 161.042969 C 227.441406 160.679688 227.535156 160.320312 227.652344 159.96875 C 227.742188 159.707031 227.359375 159.527344 227.246094 159.792969 Z M 227.246094 159.792969 " fill-opacity="1" fill-rule="nonzero"/><path fill="#000000" d="M 221.164062 165.824219 C 221.070312 165.21875 221.21875 164.613281 221.386719 164.039062 C 221.425781 163.90625 221.277344 163.808594 221.179688 163.914062 C 220.320312 164.824219 220.144531 166.914062 221.269531 167.707031 C 221.40625 167.804688 221.644531 167.742188 221.625 167.539062 C 221.558594 166.953125 221.257812 166.414062 221.164062 165.824219 Z M 221.164062 165.824219 " fill-opacity="1" fill-rule="nonzero"/><path fill="#000000" d="M 220.261719 165.101562 C 219.550781 165.503906 219.078125 166.175781 218.835938 166.9375 C 218.792969 166.839844 218.683594 166.773438 218.578125 166.832031 C 217.597656 167.402344 216.917969 168.34375 216.554688 169.410156 C 216.507812 169.285156 216.332031 169.195312 216.199219 169.289062 C 214.085938 170.734375 212.8125 173.992188 214.371094 176.3125 C 214.476562 176.472656 214.769531 176.402344 214.773438 176.203125 C 214.804688 175.140625 214.566406 174.113281 214.6875 173.042969 C 214.835938 171.726562 215.601562 170.570312 216.488281 169.632812 C 216.09375 170.976562 216.183594 172.488281 216.804688 173.699219 C 216.921875 173.925781 217.269531 173.816406 217.269531 173.574219 C 217.277344 172.492188 217.152344 171.421875 217.296875 170.339844 C 217.457031 169.15625 218.089844 168.160156 218.757812 167.207031 C 218.433594 168.550781 218.78125 170.105469 219.796875 170.984375 C 219.917969 171.09375 220.117188 170.953125 220.082031 170.804688 C 219.902344 170.019531 219.609375 169.265625 219.511719 168.464844 C 219.363281 167.246094 219.949219 166.300781 220.4375 165.269531 C 220.484375 165.167969 220.355469 165.046875 220.261719 165.101562 Z M 220.261719 165.101562 " fill-opacity="1" fill-rule="nonzero"/><path fill="#000000" d="M 213.484375 172.203125 C 211.730469 173.1875 209.945312 176.273438 211.355469 178.195312 C 211.460938 178.339844 211.671875 178.324219 211.726562 178.144531 C 211.9375 177.484375 211.878906 176.769531 211.953125 176.085938 C 212.09375 174.726562 212.847656 173.464844 213.726562 172.449219 C 213.867188 172.289062 213.644531 172.117188 213.484375 172.203125 Z M 213.484375 172.203125 " fill-opacity="1" fill-rule="nonzero"/><path fill="#000000" d="M 210.742188 173.984375 C 208.785156 175.257812 207.492188 178.617188 208.621094 180.765625 C 208.707031 180.929688 208.925781 180.890625 208.964844 180.714844 C 209.179688 179.683594 209.074219 178.609375 209.292969 177.5625 C 209.558594 176.289062 210.265625 175.277344 210.980469 174.230469 C 211.09375 174.066406 210.90625 173.875 210.742188 173.984375 Z M 210.742188 173.984375 " fill-opacity="1" fill-rule="nonzero"/><path fill="#000000" d="M 208.441406 176.460938 C 206.15625 177.710938 204.796875 180.875 206.097656 183.289062 C 206.226562 183.527344 206.5625 183.394531 206.570312 183.15625 C 206.609375 181.996094 206.46875 180.902344 206.761719 179.757812 C 207.066406 178.574219 207.796875 177.582031 208.613281 176.695312 C 208.71875 176.574219 208.59375 176.378906 208.441406 176.460938 Z M 208.441406 176.460938 " fill-opacity="1" fill-rule="nonzero"/><path fill="#000000" d="M 205.699219 179.0625 C 203.710938 180.15625 202.074219 183.265625 203.40625 185.425781 C 203.5 185.582031 203.726562 185.558594 203.753906 185.367188 C 203.90625 184.328125 203.800781 183.316406 204.085938 182.285156 C 204.402344 181.160156 205.144531 180.1875 205.867188 179.292969 C 205.964844 179.175781 205.855469 178.976562 205.699219 179.0625 Z M 205.699219 179.0625 " fill-opacity="1" fill-rule="nonzero"/><path fill="#000000" d="M 202.34375 181.648438 C 200.378906 183.199219 199.085938 186.4375 199.929688 188.875 C 200.011719 189.117188 200.339844 188.996094 200.375 188.792969 C 200.523438 187.914062 200.535156 187.019531 200.679688 186.140625 C 200.941406 184.5625 201.8125 183.230469 202.636719 181.894531 C 202.753906 181.703125 202.511719 181.515625 202.34375 181.648438 Z M 202.34375 181.648438 " fill-opacity="1" fill-rule="nonzero"/><path fill="#000000" d="M 198.871094 185.246094 C 196.871094 186.109375 195.816406 189.527344 197.042969 191.347656 C 197.167969 191.53125 197.488281 191.511719 197.496094 191.25 C 197.542969 190.214844 197.371094 189.253906 197.578125 188.21875 C 197.792969 187.125 198.464844 186.324219 199.007812 185.402344 C 199.054688 185.320312 198.957031 185.207031 198.871094 185.246094 Z M 198.871094 185.246094 " fill-opacity="1" fill-rule="nonzero"/><path fill="#000000" d="M 194.953125 191.546875 C 194.789062 190.679688 195.058594 189.636719 195.449219 188.851562 C 195.511719 188.726562 195.359375 188.546875 195.25 188.671875 C 193.996094 190.070312 193.566406 192.644531 195.371094 193.863281 C 195.507812 193.960938 195.703125 193.820312 195.660156 193.660156 C 195.472656 192.933594 195.09375 192.289062 194.953125 191.546875 Z M 194.953125 191.546875 " fill-opacity="1" fill-rule="nonzero"/><path fill="#000000" d="M 192.496094 193.757812 C 192.296875 193.09375 192.300781 192.335938 192.375 191.65625 C 192.398438 191.4375 192.054688 191.386719 191.996094 191.59375 C 191.664062 192.738281 191.484375 194.558594 192.589844 195.375 C 192.730469 195.476562 192.972656 195.390625 192.945312 195.191406 C 192.878906 194.6875 192.640625 194.238281 192.496094 193.757812 Z M 192.496094 193.757812 " fill-opacity="1" fill-rule="nonzero"/><path fill="#000000" d="M 191.105469 197.472656 C 190.828125 196.96875 190.492188 196.5 190.210938 195.996094 C 189.824219 195.3125 189.777344 194.535156 189.589844 193.785156 C 189.558594 193.648438 189.339844 193.640625 189.289062 193.769531 C 188.71875 195.207031 189.488281 197.070312 190.878906 197.699219 C 191.007812 197.753906 191.179688 197.609375 191.105469 197.472656 Z M 191.105469 197.472656 " fill-opacity="1" fill-rule="nonzero"/><path fill="#000000" d="M 185.925781 202.824219 C 185.644531 202.015625 185.09375 201.328125 184.769531 200.53125 C 184.410156 199.652344 184.5625 198.75 184.773438 197.851562 C 184.808594 197.707031 184.644531 197.617188 184.53125 197.707031 C 182.914062 198.992188 184.039062 202.253906 185.632812 203.054688 C 185.777344 203.128906 185.984375 203 185.925781 202.824219 Z M 185.925781 202.824219 " fill-opacity="1" fill-rule="nonzero"/><path fill="#000000" d="M 183.691406 205.117188 C 183.539062 204.585938 183.238281 204.105469 183.015625 203.597656 C 182.578125 202.585938 182.519531 201.386719 182.710938 200.3125 C 182.765625 200 182.289062 199.878906 182.179688 200.171875 C 181.574219 201.824219 181.507812 204.425781 183.25 205.472656 C 183.484375 205.617188 183.757812 205.363281 183.691406 205.117188 Z M 183.691406 205.117188 " fill-opacity="1" fill-rule="nonzero"/><path fill="#000000" d="M 180.054688 205.128906 C 179.929688 204.386719 180.085938 203.636719 180.195312 202.902344 C 180.230469 202.679688 179.90625 202.554688 179.78125 202.742188 C 178.742188 204.3125 178.960938 207.265625 180.664062 208.300781 C 180.859375 208.417969 181.09375 208.21875 181.035156 208.007812 C 180.738281 207.003906 180.234375 206.191406 180.054688 205.128906 Z M 180.054688 205.128906 " fill-opacity="1" fill-rule="nonzero"/><path fill="#000000" d="M 177.800781 207.632812 C 177.714844 206.679688 177.929688 205.746094 178.085938 204.8125 C 178.113281 204.636719 177.867188 204.550781 177.765625 204.6875 C 176.535156 206.375 176.644531 209.25 178.003906 210.832031 C 178.15625 211.011719 178.453125 210.871094 178.414062 210.636719 C 178.238281 209.625 177.890625 208.660156 177.800781 207.632812 Z M 177.800781 207.632812 " fill-opacity="1" fill-rule="nonzero"/><path fill="#000000" d="M 175.210938 207.273438 C 174.015625 209.105469 173.507812 211.714844 174.902344 213.589844 C 175.066406 213.808594 175.53125 213.734375 175.472656 213.40625 C 175.328125 212.582031 175.074219 211.792969 174.980469 210.960938 C 174.855469 209.789062 175.203125 208.578125 175.667969 207.519531 C 175.800781 207.210938 175.390625 206.996094 175.210938 207.273438 Z M 175.210938 207.273438 " fill-opacity="1" fill-rule="nonzero"/><path fill="#000000" d="M 171.902344 213.203125 C 171.8125 212.167969 171.992188 211.171875 172.179688 210.160156 C 172.207031 209.992188 171.964844 209.882812 171.867188 210.027344 C 170.710938 211.824219 170.726562 214.855469 172.3125 216.421875 C 172.40625 216.515625 172.609375 216.425781 172.582031 216.285156 C 172.382812 215.234375 171.992188 214.277344 171.902344 213.203125 Z M 171.902344 213.203125 " fill-opacity="1" fill-rule="nonzero"/><path fill="#000000" d="M 170.230469 219.253906 C 169.574219 216.96875 168.96875 215.140625 169.699219 212.769531 C 169.746094 212.613281 169.503906 212.5 169.410156 212.628906 C 168.011719 214.636719 168.003906 217.644531 169.730469 219.496094 C 169.914062 219.691406 170.3125 219.546875 170.230469 219.253906 Z M 170.230469 219.253906 " fill-opacity="1" fill-rule="nonzero"/><path fill="#000000" d="M 166.707031 215.214844 C 165.5625 217.207031 165.105469 220.097656 166.53125 222.082031 C 166.699219 222.308594 167.148438 222.21875 167.101562 221.894531 C 166.953125 220.839844 166.648438 219.839844 166.597656 218.761719 C 166.546875 217.636719 166.84375 216.464844 167.175781 215.398438 C 167.261719 215.121094 166.847656 214.96875 166.707031 215.214844 Z M 166.707031 215.214844 " fill-opacity="1" fill-rule="nonzero"/><path fill="#000000" d="M 163.917969 217.523438 C 162.171875 219.363281 161.441406 222.835938 163.492188 224.773438 C 163.625 224.894531 163.855469 224.808594 163.820312 224.613281 C 163.609375 223.515625 163.179688 222.515625 163.113281 221.382812 C 163.039062 220.101562 163.511719 218.820312 164.210938 217.769531 C 164.328125 217.589844 164.070312 217.363281 163.917969 217.523438 Z M 163.917969 217.523438 " fill-opacity="1" fill-rule="nonzero"/><path fill="#000000" d="M 159.933594 224.738281 C 159.695312 223.742188 159.894531 222.753906 159.875 221.75 C 159.871094 221.503906 159.550781 221.519531 159.453125 221.6875 C 158.5 223.308594 158.816406 226.53125 160.515625 227.5625 C 160.675781 227.660156 160.84375 227.496094 160.8125 227.332031 C 160.625 226.441406 160.148438 225.632812 159.933594 224.738281 Z M 159.933594 224.738281 " fill-opacity="1" fill-rule="nonzero"/><path fill="#000000" d="M 158.628906 229.765625 C 158.40625 229.019531 157.832031 228.410156 157.527344 227.6875 C 157.152344 226.792969 157.078125 225.742188 157.160156 224.785156 C 157.183594 224.5 156.746094 224.457031 156.671875 224.71875 C 156.203125 226.363281 156.34375 229.351562 158.332031 230.0625 C 158.53125 230.132812 158.683594 229.953125 158.628906 229.765625 Z M 158.628906 229.765625 " fill-opacity="1" fill-rule="nonzero"/><path fill="#000000" d="M 155.234375 230.261719 C 154.886719 229.359375 154.808594 228.335938 154.917969 227.386719 C 154.945312 227.144531 154.585938 227.132812 154.519531 227.339844 C 154.039062 228.828125 154.023438 231.308594 155.546875 232.257812 C 155.75 232.382812 155.949219 232.183594 155.917969 231.980469 C 155.820312 231.371094 155.457031 230.832031 155.234375 230.261719 Z M 155.234375 230.261719 " fill-opacity="1" fill-rule="nonzero"/><path fill="#000000" d="M 153.269531 234.441406 C 153.101562 233.785156 152.550781 233.261719 152.234375 232.660156 C 151.761719 231.761719 151.652344 230.695312 151.636719 229.699219 C 151.632812 229.433594 151.269531 229.457031 151.207031 229.679688 C 150.941406 230.628906 150.972656 231.519531 151.234375 232.472656 C 151.46875 233.339844 152.070312 234.527344 153.027344 234.714844 C 153.191406 234.746094 153.308594 234.59375 153.269531 234.441406 Z M 153.269531 234.441406 " fill-opacity="1" fill-rule="nonzero"/><path fill="#000000" d="M 151.269531 236.546875 C 151.050781 236.179688 150.726562 235.898438 150.457031 235.570312 C 149.78125 234.746094 149.558594 233.652344 149.59375 232.613281 C 149.601562 232.371094 149.21875 232.242188 149.148438 232.507812 C 148.757812 233.996094 149.109375 236.542969 150.929688 236.988281 C 151.183594 237.050781 151.40625 236.78125 151.269531 236.546875 Z M 151.269531 236.546875 " fill-opacity="1" fill-rule="nonzero"/><path fill="#000000" d="M 148.75 239.0625 C 148.359375 238.25 147.773438 237.628906 147.511719 236.742188 C 147.320312 236.085938 147.457031 235.40625 147.441406 234.742188 C 147.433594 234.5 147.070312 234.425781 146.945312 234.613281 C 145.96875 236.066406 146.644531 238.867188 148.460938 239.382812 C 148.652344 239.4375 148.84375 239.257812 148.75 239.0625 Z M 148.75 239.0625 " fill-opacity="1" fill-rule="nonzero"/><path fill="#000000" d="M 147.09375 241.5625 C 146.902344 240.789062 146.023438 240.261719 145.664062 239.535156 C 145.292969 238.796875 145.265625 237.9375 145.34375 237.128906 C 145.371094 236.847656 144.996094 236.804688 144.886719 237.03125 C 144.4375 237.972656 144.410156 238.964844 144.78125 239.933594 C 145.097656 240.753906 145.941406 241.921875 146.90625 241.839844 C 147.046875 241.824219 147.125 241.695312 147.09375 241.5625 Z M 147.09375 241.5625 " fill-opacity="1" fill-rule="nonzero"/><path fill="#000000" d="M 144.078125 244.148438 C 143.910156 243.519531 143.484375 242.992188 143.230469 242.390625 C 142.886719 241.582031 142.875 240.738281 142.996094 239.878906 C 143.03125 239.625 142.6875 239.542969 142.574219 239.757812 C 141.820312 241.1875 142.207031 243.691406 143.78125 244.429688 C 143.972656 244.519531 144.125 244.324219 144.078125 244.148438 Z M 144.078125 244.148438 " fill-opacity="1" fill-rule="nonzero"/><path fill="#000000" d="M 141.429688 246.101562 C 141.136719 245.65625 140.765625 245.273438 140.484375 244.816406 C 140.035156 244.085938 139.964844 243.175781 140.03125 242.34375 C 140.058594 242.03125 139.632812 241.921875 139.5 242.207031 C 138.808594 243.671875 139.46875 245.984375 141.039062 246.625 C 141.328125 246.742188 141.589844 246.34375 141.429688 246.101562 Z M 141.429688 246.101562 " fill-opacity="1" fill-rule="nonzero"/><path fill="#000000" d="M 138.960938 248.945312 C 138.691406 248.265625 138.265625 247.671875 137.988281 246.992188 C 137.675781 246.238281 137.640625 245.328125 137.6875 244.515625 C 137.691406 244.40625 137.527344 244.308594 137.457031 244.425781 C 136.550781 245.996094 136.984375 248.394531 138.734375 249.191406 C 138.886719 249.261719 139.015625 249.078125 138.960938 248.945312 Z M 138.960938 248.945312 " fill-opacity="1" fill-rule="nonzero"/><path fill="#000000" d="M 135.378906 248.515625 C 135.3125 248.246094 135.441406 246.679688 134.910156 246.78125 C 134.179688 246.917969 134.339844 248.226562 134.410156 248.761719 C 134.550781 249.8125 135.03125 251.289062 136.082031 251.742188 C 136.277344 251.828125 136.492188 251.652344 136.464844 251.445312 C 136.316406 250.433594 135.617188 249.527344 135.378906 248.515625 Z M 135.378906 248.515625 " fill-opacity="1" fill-rule="nonzero"/><path fill="#000000" d="M 134.203125 253.308594 C 133.929688 252.742188 133.523438 252.253906 133.210938 251.707031 C 132.765625 250.921875 132.691406 250.097656 132.542969 249.234375 C 132.511719 249.054688 132.238281 249.046875 132.164062 249.199219 C 131.4375 250.691406 132.355469 253.007812 133.910156 253.617188 C 134.09375 253.691406 134.289062 253.492188 134.203125 253.308594 Z M 134.203125 253.308594 " fill-opacity="1" fill-rule="nonzero"/><path fill="#000000" d="M 132.835938 255.9375 C 132.375 255.421875 131.796875 255.03125 131.347656 254.496094 C 130.671875 253.6875 130.335938 252.628906 130.191406 251.597656 C 130.160156 251.382812 129.878906 251.414062 129.835938 251.601562 C 129.414062 253.457031 130.589844 255.902344 132.535156 256.421875 C 132.824219 256.503906 133.035156 256.160156 132.835938 255.9375 Z M 132.835938 255.9375 " fill-opacity="1" fill-rule="nonzero"/><path fill="#000000" d="M 130.3125 257.441406 C 130.003906 256.886719 129.515625 256.472656 129.136719 255.964844 C 128.570312 255.210938 128.515625 254.351562 128.246094 253.492188 C 128.199219 253.34375 128.023438 253.359375 127.949219 253.46875 C 126.960938 254.910156 128.519531 257.488281 130.132812 257.6875 C 130.253906 257.703125 130.382812 257.558594 130.3125 257.441406 Z M 130.3125 257.441406 " fill-opacity="1" fill-rule="nonzero"/><path fill="#000000" d="M 128.167969 259.875 C 127.667969 259.015625 126.933594 258.394531 126.648438 257.402344 C 126.425781 256.644531 126.570312 255.816406 126.511719 255.042969 C 126.507812 254.984375 126.433594 254.960938 126.394531 255.003906 C 125.097656 256.515625 125.941406 259.605469 127.875 260.195312 C 128.054688 260.25 128.277344 260.0625 128.167969 259.875 Z M 128.167969 259.875 " fill-opacity="1" fill-rule="nonzero"/><path fill="#000000" d="M 126.070312 261.921875 C 125.675781 261.21875 125.117188 260.621094 124.773438 259.886719 C 124.410156 259.109375 124.347656 258.226562 124.300781 257.386719 C 124.289062 257.167969 124.027344 257.121094 123.933594 257.316406 C 123.097656 259.03125 123.96875 261.523438 125.796875 262.210938 C 125.984375 262.28125 126.183594 262.113281 126.070312 261.921875 Z M 126.070312 261.921875 " fill-opacity="1" fill-rule="nonzero"/><path fill="#000000" d="M 232.125 102.167969 C 231.503906 103.304688 230.6875 104.511719 230.324219 105.761719 C 230.285156 105.902344 230.460938 106.007812 230.566406 105.90625 C 231.527344 105.003906 231.960938 103.492188 232.386719 102.28125 C 232.445312 102.125 232.203125 102.023438 232.125 102.167969 Z M 232.125 102.167969 " fill-opacity="1" fill-rule="nonzero"/><path fill="#000000" d="M 233.828125 102.132812 C 233.847656 102.054688 233.753906 101.984375 233.699219 102.058594 C 233.613281 102.171875 233.457031 102.214844 233.367188 102.382812 C 233.199219 102.6875 233.023438 102.996094 232.878906 103.3125 C 232.648438 103.8125 232.019531 104.734375 232.234375 105.300781 C 232.269531 105.398438 232.378906 105.445312 232.472656 105.390625 C 232.648438 105.28125 232.738281 105.097656 232.820312 104.914062 C 233.035156 104.445312 233.226562 103.964844 233.433594 103.492188 C 233.5625 103.199219 233.667969 102.894531 233.785156 102.597656 C 233.851562 102.425781 233.792969 102.253906 233.828125 102.132812 Z M 233.828125 102.132812 " fill-opacity="1" fill-rule="nonzero"/><path fill="#000000" d="M 234.84375 101.488281 C 234.578125 101.976562 234.347656 102.476562 234.117188 102.984375 C 233.949219 103.351562 233.773438 103.773438 233.863281 104.175781 C 233.898438 104.324219 234.050781 104.375 234.164062 104.265625 C 234.453125 103.988281 234.546875 103.574219 234.683594 103.203125 C 234.878906 102.671875 235.058594 102.148438 235.15625 101.589844 C 235.1875 101.398438 234.933594 101.324219 234.84375 101.488281 Z M 234.84375 101.488281 " fill-opacity="1" fill-rule="nonzero"/><path fill="#000000" d="M 236.359375 101.484375 C 236.210938 101.808594 236.070312 102.128906 235.917969 102.453125 C 235.777344 102.75 235.589844 103.054688 235.660156 103.390625 C 235.679688 103.472656 235.796875 103.527344 235.871094 103.492188 C 236.1875 103.339844 236.308594 102.988281 236.414062 102.675781 C 236.539062 102.300781 236.636719 101.945312 236.664062 101.550781 C 236.675781 101.386719 236.421875 101.347656 236.359375 101.484375 Z M 236.359375 101.484375 " fill-opacity="1" fill-rule="nonzero"/><path fill="#000000" d="M 222.28125 111.480469 C 221.167969 112.59375 219.851562 114.460938 220.285156 116.136719 C 220.328125 116.296875 220.546875 116.257812 220.609375 116.136719 C 221.339844 114.65625 221.453125 113.003906 222.453125 111.628906 C 222.539062 111.507812 222.386719 111.375 222.28125 111.480469 Z M 222.28125 111.480469 " fill-opacity="1" fill-rule="nonzero"/><path fill="#000000" d="M 219.878906 113.777344 C 218.925781 114.871094 217.957031 116.570312 218.5 118.050781 C 218.554688 118.195312 218.765625 118.191406 218.824219 118.054688 C 219.054688 117.476562 219.089844 116.886719 219.226562 116.28125 C 219.410156 115.46875 219.734375 114.6875 220.191406 113.984375 C 220.328125 113.777344 220.03125 113.597656 219.878906 113.777344 Z M 219.878906 113.777344 " fill-opacity="1" fill-rule="nonzero"/><path fill="#000000" d="M 217.6875 116.027344 C 216.667969 117.035156 215.28125 119.144531 215.992188 120.65625 C 216.066406 120.8125 216.292969 120.863281 216.382812 120.683594 C 216.675781 120.097656 216.671875 119.390625 216.84375 118.757812 C 217.082031 117.890625 217.503906 117.066406 218.03125 116.34375 C 218.1875 116.128906 217.878906 115.839844 217.6875 116.027344 Z M 217.6875 116.027344 " fill-opacity="1" fill-rule="nonzero"/><path fill="#000000" d="M 215.355469 119.175781 C 214.277344 120.152344 212.867188 121.949219 213.078125 123.515625 C 213.105469 123.734375 213.394531 123.75 213.511719 123.597656 C 213.917969 123.058594 214.039062 122.3125 214.316406 121.695312 C 214.667969 120.898438 215.136719 120.15625 215.699219 119.492188 C 215.871094 119.285156 215.550781 119 215.355469 119.175781 Z M 215.355469 119.175781 " fill-opacity="1" fill-rule="nonzero"/><path fill="#000000" d="M 212.886719 120.957031 C 212.367188 121.496094 211.941406 122.074219 211.585938 122.730469 C 211.199219 123.4375 210.652344 124.5 210.917969 125.304688 C 210.964844 125.445312 211.160156 125.507812 211.265625 125.386719 C 211.59375 125.003906 211.648438 124.546875 211.808594 124.070312 C 212.140625 123.066406 212.589844 122.117188 213.230469 121.273438 C 213.386719 121.0625 213.070312 120.765625 212.886719 120.957031 Z M 212.886719 120.957031 " fill-opacity="1" fill-rule="nonzero"/><path fill="#000000" d="M 209.742188 124.109375 C 208.511719 125.023438 206.878906 127.164062 207.820312 128.769531 C 207.890625 128.890625 208.070312 128.84375 208.121094 128.734375 C 208.386719 128.125 208.339844 127.40625 208.523438 126.761719 C 208.773438 125.867188 209.351562 125.097656 210.015625 124.464844 C 210.222656 124.269531 209.984375 123.929688 209.742188 124.109375 Z M 209.742188 124.109375 " fill-opacity="1" fill-rule="nonzero"/><path fill="#000000" d="M 206.976562 126.707031 C 205.792969 127.75 204.507812 129.835938 205.101562 131.492188 C 205.175781 131.691406 205.5 131.742188 205.585938 131.523438 C 205.863281 130.835938 205.890625 130.0625 206.085938 129.347656 C 206.3125 128.492188 206.792969 127.707031 207.335938 127.019531 C 207.507812 126.800781 207.175781 126.53125 206.976562 126.707031 Z M 206.976562 126.707031 " fill-opacity="1" fill-rule="nonzero"/><path fill="#000000" d="M 204.605469 129.742188 C 204.074219 129.9375 203.578125 130.453125 203.226562 131.078125 C 203.171875 131.054688 203.109375 131.054688 203.046875 131.09375 C 201.703125 131.960938 200.15625 134.222656 200.921875 135.882812 C 200.984375 136.015625 201.199219 136.015625 201.265625 135.886719 C 201.5625 135.308594 201.578125 134.640625 201.75 134.011719 C 201.960938 133.242188 202.363281 132.554688 202.859375 131.933594 C 202.636719 132.664062 202.621094 133.417969 202.945312 133.964844 C 203.042969 134.132812 203.289062 134.152344 203.371094 133.953125 C 203.558594 133.503906 203.550781 133 203.628906 132.519531 C 203.777344 131.570312 204.332031 130.773438 204.820312 129.96875 C 204.898438 129.835938 204.730469 129.695312 204.605469 129.742188 Z M 204.605469 129.742188 " fill-opacity="1" fill-rule="nonzero"/><path fill="#000000" d="M 200.398438 133.863281 C 199.464844 134.808594 198.230469 136.621094 198.703125 138.039062 C 198.761719 138.210938 198.992188 138.230469 199.082031 138.074219 C 199.363281 137.597656 199.417969 137.035156 199.5625 136.503906 C 199.796875 135.644531 200.222656 134.835938 200.730469 134.105469 C 200.867188 133.910156 200.554688 133.707031 200.398438 133.863281 Z M 200.398438 133.863281 " fill-opacity="1" fill-rule="nonzero"/><path fill="#000000" d="M 194.679688 141.863281 C 194.472656 141.359375 194.160156 140.90625 193.96875 140.394531 C 193.742188 139.792969 193.832031 139.144531 193.753906 138.519531 C 193.730469 138.320312 193.472656 138.242188 193.367188 138.429688 C 192.742188 139.554688 193.183594 141.539062 194.40625 142.113281 C 194.582031 142.195312 194.757812 142.046875 194.679688 141.863281 Z M 194.679688 141.863281 " fill-opacity="1" fill-rule="nonzero"/><path fill="#000000" d="M 192.324219 142.511719 C 191.972656 141.9375 191.847656 141.230469 191.839844 140.566406 C 191.835938 140.328125 191.464844 140.304688 191.421875 140.539062 C 191.292969 141.203125 191.296875 141.851562 191.527344 142.492188 C 191.722656 143.042969 192.179688 143.886719 192.824219 143.941406 C 192.953125 143.953125 193.105469 143.859375 193.078125 143.710938 C 192.988281 143.242188 192.574219 142.914062 192.324219 142.511719 Z M 192.324219 142.511719 " fill-opacity="1" fill-rule="nonzero"/><path fill="#000000" d="M 190.425781 145.976562 C 190.191406 145.363281 189.765625 144.871094 189.527344 144.265625 C 189.296875 143.675781 189.339844 143.125 189.472656 142.515625 C 189.503906 142.371094 189.292969 142.253906 189.183594 142.355469 C 187.996094 143.472656 188.851562 145.664062 190.195312 146.238281 C 190.359375 146.304688 190.476562 146.113281 190.425781 145.976562 Z M 190.425781 145.976562 " fill-opacity="1" fill-rule="nonzero"/><path fill="#000000" d="M 188.636719 147.765625 C 188.398438 147.152344 187.914062 146.699219 187.699219 146.066406 C 187.484375 145.441406 187.589844 144.777344 187.726562 144.148438 C 187.746094 144.0625 187.628906 144.042969 187.582031 144.09375 C 186.613281 145.179688 186.839844 147.523438 188.40625 148.003906 C 188.554688 148.050781 188.695312 147.917969 188.636719 147.765625 Z M 188.636719 147.765625 " fill-opacity="1" fill-rule="nonzero"/><path fill="#000000" d="M 186.355469 148.144531 C 186.003906 147.484375 185.921875 146.640625 185.933594 145.914062 C 185.9375 145.660156 185.59375 145.667969 185.523438 145.875 C 185.246094 146.6875 185.238281 147.425781 185.488281 148.25 C 185.664062 148.839844 186.152344 149.824219 186.890625 149.679688 C 186.957031 149.667969 187.023438 149.585938 187.03125 149.519531 C 187.085938 148.996094 186.589844 148.582031 186.355469 148.144531 Z M 186.355469 148.144531 " fill-opacity="1" fill-rule="nonzero"/><path fill="#000000" d="M 185.34375 150.824219 C 185.054688 150.300781 184.761719 149.777344 184.585938 149.203125 C 184.382812 148.542969 184.5 147.816406 184.5625 147.144531 C 184.582031 146.914062 184.273438 146.910156 184.171875 147.054688 C 183.277344 148.339844 183.601562 150.234375 184.789062 151.222656 C 185.070312 151.453125 185.546875 151.191406 185.34375 150.824219 Z M 185.34375 150.824219 " fill-opacity="1" fill-rule="nonzero"/><path fill="#000000" d="M 182.550781 151.074219 C 182.347656 150.449219 182.472656 149.828125 182.507812 149.195312 C 182.515625 149.003906 182.25 148.9375 182.140625 149.066406 C 181.648438 149.632812 181.5625 150.355469 181.636719 151.078125 C 181.71875 151.824219 182.277344 152.929688 183.117188 152.964844 C 183.214844 152.96875 183.328125 152.875 183.316406 152.769531 C 183.246094 152.160156 182.738281 151.660156 182.550781 151.074219 Z M 182.550781 151.074219 " fill-opacity="1" fill-rule="nonzero"/><path fill="#000000" d="M 180.523438 153.234375 C 180.183594 152.546875 180.242188 151.746094 180.539062 151.050781 C 180.621094 150.863281 180.347656 150.722656 180.230469 150.882812 C 179.8125 151.445312 179.574219 151.984375 179.601562 152.699219 C 179.625 153.351562 180.019531 154.378906 180.746094 154.480469 C 180.878906 154.496094 181.007812 154.402344 180.996094 154.257812 C 180.96875 153.855469 180.699219 153.589844 180.523438 153.234375 Z M 180.523438 153.234375 " fill-opacity="1" fill-rule="nonzero"/><path fill="#000000" d="M 178.507812 155.078125 C 178.351562 154.414062 178.53125 153.722656 178.761719 153.101562 C 178.820312 152.945312 178.601562 152.761719 178.472656 152.898438 C 177.921875 153.488281 177.640625 154.125 177.640625 154.925781 C 177.640625 155.648438 178.050781 156.714844 178.804688 156.910156 C 178.910156 156.9375 179.042969 156.878906 179.046875 156.753906 C 179.070312 156.140625 178.644531 155.664062 178.507812 155.078125 Z M 178.507812 155.078125 " fill-opacity="1" fill-rule="nonzero"/><path fill="#000000" d="M 176.441406 156.855469 C 176.335938 156.335938 176.382812 155.769531 176.488281 155.253906 C 176.53125 155.035156 176.1875 154.902344 176.070312 155.09375 C 175.5 156.046875 175.410156 157.664062 176.320312 158.464844 C 176.5 158.625 176.875 158.519531 176.835938 158.238281 C 176.777344 157.757812 176.539062 157.332031 176.441406 156.855469 Z M 176.441406 156.855469 " fill-opacity="1" fill-rule="nonzero"/><path fill="#000000" d="M 175.261719 159.050781 C 175.007812 158.46875 174.949219 157.773438 174.949219 157.144531 C 174.949219 156.917969 174.59375 156.871094 174.550781 157.097656 C 174.417969 157.789062 174.421875 158.425781 174.597656 159.109375 C 174.734375 159.652344 175.046875 160.542969 175.6875 160.613281 C 175.785156 160.621094 175.875 160.550781 175.886719 160.453125 C 175.933594 159.945312 175.457031 159.507812 175.261719 159.050781 Z M 175.261719 159.050781 " fill-opacity="1" fill-rule="nonzero"/><path fill="#000000" d="M 173.355469 161.074219 C 173.117188 160.382812 173.304688 159.667969 173.433594 158.976562 C 173.46875 158.792969 173.238281 158.632812 173.09375 158.785156 C 172.136719 159.816406 172.289062 162.203125 173.667969 162.859375 C 173.886719 162.964844 174.09375 162.757812 174.035156 162.539062 C 173.894531 162.015625 173.53125 161.59375 173.355469 161.074219 Z M 173.355469 161.074219 " fill-opacity="1" fill-rule="nonzero"/><path fill="#000000" d="M 171.832031 164.480469 C 171.613281 163.914062 171.25 163.4375 171.0625 162.851562 C 170.855469 162.195312 171 161.5625 171.144531 160.910156 C 171.195312 160.6875 170.90625 160.46875 170.730469 160.667969 C 169.707031 161.816406 169.96875 164.089844 171.464844 164.757812 C 171.636719 164.832031 171.921875 164.710938 171.832031 164.480469 Z M 171.832031 164.480469 " fill-opacity="1" fill-rule="nonzero"/><path fill="#000000" d="M 169.003906 165.421875 C 168.609375 164.644531 168.59375 163.75 168.789062 162.933594 C 168.855469 162.667969 168.488281 162.613281 168.371094 162.8125 C 167.683594 163.964844 167.679688 165.925781 168.964844 166.710938 C 169.191406 166.847656 169.464844 166.640625 169.410156 166.386719 C 169.332031 166.039062 169.167969 165.738281 169.003906 165.421875 Z M 169.003906 165.421875 " fill-opacity="1" fill-rule="nonzero"/><path fill="#000000" d="M 167.0625 167.359375 C 166.78125 166.835938 166.582031 166.109375 166.617188 165.511719 C 166.632812 165.203125 166.171875 165.183594 166.136719 165.488281 C 166.039062 166.316406 166.015625 166.984375 166.371094 167.765625 C 166.613281 168.300781 167.09375 168.972656 167.726562 169.015625 C 167.859375 169.023438 168.019531 168.898438 167.976562 168.75 C 167.824219 168.21875 167.328125 167.84375 167.0625 167.359375 Z M 167.0625 167.359375 " fill-opacity="1" fill-rule="nonzero"/><path fill="#000000" d="M 166.335938 170.515625 C 166.128906 169.835938 165.464844 169.324219 165.160156 168.664062 C 164.886719 168.070312 164.710938 167.347656 164.683594 166.695312 C 164.671875 166.421875 164.269531 166.46875 164.226562 166.710938 C 164.097656 167.4375 164.019531 168.140625 164.292969 168.847656 C 164.589844 169.613281 165.171875 170.714844 166.089844 170.804688 C 166.234375 170.820312 166.378906 170.660156 166.335938 170.515625 Z M 166.335938 170.515625 " fill-opacity="1" fill-rule="nonzero"/><path fill="#000000" d="M 165.167969 172.277344 C 164.796875 171.628906 164.058594 171.265625 163.589844 170.675781 C 163.117188 170.078125 163.042969 169.351562 162.75 168.671875 C 162.65625 168.460938 162.367188 168.535156 162.300781 168.714844 C 161.753906 170.183594 163.363281 172.773438 165.03125 172.523438 C 165.132812 172.507812 165.226562 172.378906 165.167969 172.277344 Z M 165.167969 172.277344 " fill-opacity="1" fill-rule="nonzero"/><path fill="#000000" d="M 163.398438 174.011719 C 162.933594 173.3125 162.203125 172.804688 161.703125 172.117188 C 161.203125 171.425781 161.078125 170.640625 160.839844 169.847656 C 160.777344 169.640625 160.488281 169.566406 160.398438 169.800781 C 159.757812 171.46875 161.386719 174.148438 163.179688 174.335938 C 163.351562 174.351562 163.507812 174.175781 163.398438 174.011719 Z M 163.398438 174.011719 " fill-opacity="1" fill-rule="nonzero"/><path fill="#000000" d="M 157.0625 174.121094 C 157.011719 173.539062 157.089844 172.96875 157.203125 172.402344 C 157.332031 172.410156 157.449219 172.425781 157.554688 172.523438 C 157.605469 172.566406 157.679688 172.492188 157.628906 172.445312 C 157.507812 172.34375 157.371094 172.304688 157.222656 172.300781 C 157.332031 171.773438 157.460938 171.246094 157.53125 170.714844 C 157.539062 170.636719 157.445312 170.605469 157.394531 170.660156 C 155.835938 172.363281 155.757812 176.007812 157.621094 177.542969 C 157.765625 177.660156 157.925781 177.507812 157.890625 177.355469 C 157.628906 176.242188 157.164062 175.28125 157.0625 174.121094 Z M 157.0625 174.121094 " fill-opacity="1" fill-rule="nonzero"/><path fill="#000000" d="M 155.671875 172.96875 C 155.753906 172.8125 155.546875 172.664062 155.421875 172.789062 C 153.769531 174.421875 152.789062 177.625 154.46875 179.585938 C 154.5625 179.695312 154.742188 179.585938 154.734375 179.460938 C 154.664062 178.265625 154.394531 177.167969 154.5625 175.96875 C 154.710938 174.914062 155.183594 173.902344 155.671875 172.96875 Z M 155.671875 172.96875 " fill-opacity="1" fill-rule="nonzero"/><path fill="#000000" d="M 153.203125 174.804688 C 151.242188 176.257812 150.730469 179.671875 151.710938 181.769531 C 151.820312 182 152.230469 181.980469 152.242188 181.691406 C 152.292969 180.558594 152.175781 179.4375 152.316406 178.308594 C 152.464844 177.125 153.042969 176.128906 153.507812 175.050781 C 153.597656 174.84375 153.386719 174.671875 153.203125 174.804688 Z M 153.203125 174.804688 " fill-opacity="1" fill-rule="nonzero"/><path fill="#000000" d="M 150.699219 177.058594 C 148.898438 178.789062 146.972656 182.035156 148.457031 184.511719 C 148.554688 184.675781 148.867188 184.691406 148.90625 184.46875 C 149.089844 183.472656 148.960938 182.457031 149.117188 181.453125 C 149.34375 179.996094 150.121094 178.546875 151.089844 177.445312 C 151.296875 177.210938 150.925781 176.839844 150.699219 177.058594 Z M 150.699219 177.058594 " fill-opacity="1" fill-rule="nonzero"/><path fill="#000000" d="M 147.410156 180.109375 C 145.375 182.179688 143.945312 185.464844 145.027344 188.339844 C 145.121094 188.585938 145.453125 188.453125 145.480469 188.242188 C 145.660156 186.910156 145.617188 185.597656 145.917969 184.28125 C 146.242188 182.878906 146.960938 181.585938 147.78125 180.417969 C 147.941406 180.191406 147.601562 179.910156 147.410156 180.109375 Z M 147.410156 180.109375 " fill-opacity="1" fill-rule="nonzero"/><path fill="#000000" d="M 144.070312 183.953125 C 142.53125 186.191406 141.285156 189.28125 142.15625 192.007812 C 142.222656 192.222656 142.546875 192.167969 142.578125 191.960938 C 142.789062 190.609375 142.777344 189.253906 143.054688 187.90625 C 143.320312 186.609375 143.890625 185.378906 144.53125 184.234375 C 144.683594 183.960938 144.242188 183.699219 144.070312 183.953125 Z M 144.070312 183.953125 " fill-opacity="1" fill-rule="nonzero"/><path fill="#000000" d="M 141.023438 187.269531 C 138.984375 189.03125 137.65625 192.558594 139.746094 194.816406 C 139.871094 194.949219 140.109375 194.832031 140.097656 194.65625 C 140.007812 193.507812 139.625 192.433594 139.660156 191.265625 C 139.707031 189.867188 140.433594 188.597656 141.261719 187.515625 C 141.378906 187.363281 141.175781 187.136719 141.023438 187.269531 Z M 141.023438 187.269531 " fill-opacity="1" fill-rule="nonzero"/><path fill="#000000" d="M 137.371094 191.042969 C 135.328125 192.332031 134.976562 195.679688 136.421875 197.511719 C 136.535156 197.660156 136.828125 197.625 136.804688 197.398438 C 136.710938 196.507812 136.527344 195.621094 136.515625 194.726562 C 136.5 193.425781 137.082031 192.316406 137.496094 191.132812 C 137.523438 191.054688 137.433594 191.003906 137.371094 191.042969 Z M 137.371094 191.042969 " fill-opacity="1" fill-rule="nonzero"/><path fill="#000000" d="M 134.085938 197.929688 C 133.847656 196.636719 134.15625 195.375 134.601562 194.164062 C 134.671875 193.972656 134.371094 193.820312 134.25 193.976562 C 132.871094 195.746094 132.4375 199.277344 134.539062 200.746094 C 134.707031 200.859375 134.949219 200.714844 134.90625 200.511719 C 134.710938 199.621094 134.25 198.835938 134.085938 197.929688 Z M 134.085938 197.929688 " fill-opacity="1" fill-rule="nonzero"/><path fill="#000000" d="M 131.304688 202.050781 C 130.558594 200.652344 130.519531 199.105469 130.921875 197.617188 C 131.003906 197.316406 130.589844 197.183594 130.46875 197.464844 C 129.625 199.453125 129.574219 202.488281 131.691406 203.734375 C 131.832031 203.816406 132.039062 203.6875 131.984375 203.519531 C 131.8125 202.992188 131.566406 202.539062 131.304688 202.050781 Z M 131.304688 202.050781 " fill-opacity="1" fill-rule="nonzero"/><path fill="#000000" d="M 129.4375 205.9375 C 128.726562 204.160156 128.183594 202.675781 128.464844 200.703125 C 128.503906 200.433594 128.0625 200.355469 127.996094 200.613281 C 127.539062 202.484375 127.484375 204.816406 129.011719 206.234375 C 129.210938 206.417969 129.535156 206.179688 129.4375 205.9375 Z M 129.4375 205.9375 " fill-opacity="1" fill-rule="nonzero"/><path fill="#000000" d="M 126.917969 208.972656 C 126.691406 208.347656 126.304688 207.820312 126.015625 207.222656 C 125.367188 205.875 125.65625 204.273438 126.25 202.960938 C 126.359375 202.71875 125.972656 202.519531 125.835938 202.746094 C 124.695312 204.660156 124.261719 207.972656 126.621094 209.238281 C 126.792969 209.328125 126.980469 209.140625 126.917969 208.972656 Z M 126.917969 208.972656 " fill-opacity="1" fill-rule="nonzero"/><path fill="#000000" d="M 122.585938 208.003906 C 122.660156 207.207031 122.984375 206.464844 123.21875 205.707031 C 123.296875 205.457031 123.011719 205.296875 122.832031 205.480469 C 121.265625 207.089844 121.003906 210.511719 122.738281 212.101562 C 122.898438 212.253906 123.117188 212.058594 123.101562 211.882812 C 122.96875 210.5 122.453125 209.480469 122.585938 208.003906 Z M 122.585938 208.003906 " fill-opacity="1" fill-rule="nonzero"/><path fill="#000000" d="M 120.222656 211.8125 C 120.007812 210.679688 120.195312 209.496094 120.476562 208.394531 C 120.542969 208.144531 120.183594 208.066406 120.070312 208.265625 C 119.058594 210.046875 118.65625 213.664062 120.855469 214.84375 C 120.988281 214.914062 121.1875 214.804688 121.164062 214.640625 C 121 213.65625 120.414062 212.8125 120.222656 211.8125 Z M 120.222656 211.8125 " fill-opacity="1" fill-rule="nonzero"/><path fill="#000000" d="M 118.1875 217.839844 C 117.808594 216.953125 117.335938 216.105469 117.140625 215.152344 C 116.878906 213.851562 117.511719 212.605469 118.015625 211.449219 C 118.113281 211.230469 117.816406 211.046875 117.644531 211.191406 C 115.496094 212.988281 115.589844 216.429688 117.761719 218.15625 C 117.972656 218.324219 118.292969 218.097656 118.1875 217.839844 Z M 118.1875 217.839844 " fill-opacity="1" fill-rule="nonzero"/><path fill="#000000" d="M 114.417969 218.238281 C 114.113281 217.238281 114.414062 216.253906 114.703125 215.292969 C 114.761719 215.101562 114.5625 214.878906 114.371094 215.027344 C 112.5625 216.429688 113.105469 220.152344 115.238281 221.027344 C 115.382812 221.085938 115.59375 220.960938 115.550781 220.789062 C 115.320312 219.882812 114.695312 219.140625 114.417969 218.238281 Z M 114.417969 218.238281 " fill-opacity="1" fill-rule="nonzero"/><path fill="#000000" d="M 112.417969 223.328125 C 112.117188 222.316406 111.679688 221.464844 111.628906 220.386719 C 111.582031 219.445312 112.039062 218.707031 112.351562 217.863281 C 112.410156 217.707031 112.222656 217.554688 112.082031 217.636719 C 110.125 218.785156 110.449219 222.292969 111.996094 223.625 C 112.210938 223.808594 112.492188 223.574219 112.417969 223.328125 Z M 112.417969 223.328125 " fill-opacity="1" fill-rule="nonzero"/><path fill="#000000" d="M 109.230469 222.6875 C 109.066406 221.691406 109.511719 220.828125 109.902344 219.949219 C 109.992188 219.742188 109.75 219.558594 109.570312 219.679688 C 107.765625 220.886719 107.835938 224.265625 109.703125 225.40625 C 109.886719 225.519531 110.125 225.355469 110.074219 225.140625 C 109.871094 224.292969 109.375 223.566406 109.230469 222.6875 Z M 109.230469 222.6875 " fill-opacity="1" fill-rule="nonzero"/><path fill="#000000" d="M 107.984375 228.125 C 107.652344 227.269531 107.1875 226.519531 106.992188 225.605469 C 106.777344 224.582031 106.949219 223.546875 107.175781 222.539062 C 107.226562 222.308594 106.898438 222.070312 106.761719 222.328125 C 105.777344 224.175781 105.742188 227.070312 107.636719 228.390625 C 107.820312 228.519531 108.070312 228.339844 107.984375 228.125 Z M 107.984375 228.125 " fill-opacity="1" fill-rule="nonzero"/><path fill="#000000" d="M 104.105469 227.796875 C 103.929688 226.714844 104.398438 225.695312 104.78125 224.71875 C 104.839844 224.574219 104.648438 224.386719 104.515625 224.511719 C 102.914062 226.058594 102.664062 229.476562 104.796875 230.722656 C 104.957031 230.816406 105.144531 230.648438 105.09375 230.480469 C 104.808594 229.546875 104.265625 228.792969 104.105469 227.796875 Z M 104.105469 227.796875 " fill-opacity="1" fill-rule="nonzero"/><path fill="#000000" d="M 102.804688 232.804688 C 102.625 231.878906 102.226562 231.03125 102.097656 230.09375 C 101.972656 229.203125 102.175781 228.320312 102.273438 227.441406 C 102.304688 227.140625 101.941406 227.023438 101.777344 227.273438 C 100.730469 228.894531 100.820312 231.863281 102.433594 233.082031 C 102.625 233.226562 102.839844 232.996094 102.804688 232.804688 Z M 102.804688 232.804688 " fill-opacity="1" fill-rule="nonzero"/><path fill="#000000" d="M 101.816406 234.808594 C 101.335938 234.097656 100.617188 233.625 100.160156 232.886719 C 99.527344 231.871094 99.703125 230.695312 99.652344 229.578125 C 99.644531 229.460938 99.503906 229.449219 99.445312 229.53125 C 98.191406 231.359375 99.257812 234.804688 101.59375 235.164062 C 101.769531 235.191406 101.914062 234.949219 101.816406 234.808594 Z M 101.816406 234.808594 " fill-opacity="1" fill-rule="nonzero"/><path fill="#000000" d="M 99.714844 236.90625 C 99.167969 236.316406 98.589844 235.734375 98.203125 235.019531 C 97.78125 234.230469 97.886719 233.421875 97.835938 232.574219 C 97.828125 232.398438 97.570312 232.300781 97.457031 232.453125 C 96.238281 234.128906 97.796875 236.660156 99.429688 237.355469 C 99.726562 237.480469 99.914062 237.121094 99.714844 236.90625 Z M 99.714844 236.90625 " fill-opacity="1" fill-rule="nonzero"/></svg>