<svg xmlns="http://www.w3.org/2000/svg" xmlns:xlink="http://www.w3.org/1999/xlink" width="500" zoomAndPan="magnify" viewBox="0 0 375 374.999991" height="500" preserveAspectRatio="xMidYMid meet" version="1.0"><defs><clipPath id="e175054d80"><path d="M 210.917969 149.644531 L 234.261719 149.644531 L 234.261719 195.953125 L 210.917969 195.953125 Z M 210.917969 149.644531 " clip-rule="nonzero"/></clipPath><clipPath id="46eaec4ebe"><path d="M 210.917969 159 L 234 159 L 234 182 L 210.917969 182 Z M 210.917969 159 " clip-rule="nonzero"/></clipPath><clipPath id="38554d68cd"><path d="M 177 180 L 259 180 L 259 278.671875 L 177 278.671875 Z M 177 180 " clip-rule="nonzero"/></clipPath><clipPath id="970f96c9d6"><path d="M 176 181 L 209 181 L 209 278.671875 L 176 278.671875 Z M 176 181 " clip-rule="nonzero"/></clipPath><clipPath id="28c1f20b95"><path d="M 230 181 L 259 181 L 259 278.671875 L 230 278.671875 Z M 230 181 " clip-rule="nonzero"/></clipPath><clipPath id="476bc09c14"><path d="M 234 180 L 276 180 L 276 278.671875 L 234 278.671875 Z M 234 180 " clip-rule="nonzero"/></clipPath><clipPath id="a00dfebf68"><path d="M 244 205 L 257 205 L 257 278.671875 L 244 278.671875 Z M 244 205 " clip-rule="nonzero"/></clipPath><clipPath id="c9eadfecc1"><path d="M 176 210 L 194 210 L 194 278.671875 L 176 278.671875 Z M 176 210 " clip-rule="nonzero"/></clipPath><clipPath id="09c940e461"><path d="M 186.121094 87.628906 L 224 87.628906 L 224 125 L 186.121094 125 Z M 186.121094 87.628906 " clip-rule="nonzero"/></clipPath><clipPath id="d5b58eb683"><path d="M 205.140625 124.972656 C 203.859375 124.972656 202.589844 124.84375 201.332031 124.585938 C 200.078125 124.328125 198.859375 123.941406 197.683594 123.433594 C 196.507812 122.921875 195.394531 122.296875 194.347656 121.558594 C 193.300781 120.820312 192.339844 119.984375 191.464844 119.046875 C 190.589844 118.109375 189.820312 117.09375 189.152344 116 C 188.488281 114.90625 187.941406 113.753906 187.515625 112.546875 C 187.089844 111.339844 186.789062 110.101562 186.617188 108.835938 C 186.445312 107.566406 186.40625 106.292969 186.496094 105.015625 C 186.589844 103.738281 186.808594 102.484375 187.160156 101.253906 C 187.507812 100.019531 187.980469 98.839844 188.578125 97.703125 C 189.171875 96.570312 189.875 95.507812 190.691406 94.519531 C 191.503906 93.527344 192.410156 92.632812 193.410156 91.828125 C 194.410156 91.027344 195.480469 90.335938 196.621094 89.75 C 197.761719 89.167969 198.953125 88.707031 200.191406 88.371094 C 201.429688 88.035156 202.6875 87.824219 203.964844 87.746094 C 205.246094 87.667969 206.523438 87.71875 207.792969 87.902344 C 209.0625 88.085938 210.296875 88.398438 211.503906 88.835938 C 212.707031 89.273438 213.855469 89.832031 214.945312 90.503906 C 216.035156 91.179688 217.046875 91.957031 217.976562 92.839844 C 218.90625 93.722656 219.734375 94.6875 220.464844 95.742188 C 221.195312 96.792969 221.808594 97.910156 222.308594 99.089844 C 222.808594 100.269531 223.183594 101.488281 223.429688 102.742188 C 223.675781 104 223.792969 105.265625 223.78125 106.546875 C 223.765625 107.828125 223.621094 109.09375 223.34375 110.34375 C 222.890625 112.414062 222.101562 114.351562 220.984375 116.15625 C 219.863281 117.957031 218.476562 119.523438 216.820312 120.855469 C 215.167969 122.183594 213.335938 123.203125 211.332031 123.910156 C 209.328125 124.617188 207.265625 124.96875 205.140625 124.972656 Z M 205.121094 100.414062 C 204.367188 100.414062 203.644531 100.550781 202.945312 100.824219 C 202.246094 101.097656 201.621094 101.492188 201.070312 102.003906 C 200.519531 102.511719 200.085938 103.105469 199.761719 103.78125 C 199.433594 104.457031 199.246094 105.171875 199.191406 105.917969 C 199.136719 106.664062 199.222656 107.398438 199.445312 108.113281 C 199.667969 108.828125 200.015625 109.480469 200.488281 110.0625 C 200.957031 110.648438 201.519531 111.125 202.171875 111.496094 C 202.824219 111.871094 203.519531 112.109375 204.265625 112.21875 C 205.007812 112.324219 205.746094 112.292969 206.476562 112.125 C 207.207031 111.953125 207.882812 111.652344 208.5 111.226562 C 209.117188 110.800781 209.636719 110.277344 210.054688 109.65625 C 210.472656 109.03125 210.765625 108.355469 210.925781 107.625 C 211.113281 106.746094 211.105469 105.871094 210.898438 105 C 210.6875 104.125 210.304688 103.339844 209.742188 102.640625 C 209.175781 101.941406 208.492188 101.394531 207.683594 101.007812 C 206.871094 100.617188 206.019531 100.417969 205.121094 100.414062 Z M 205.121094 100.414062 " clip-rule="nonzero"/></clipPath><clipPath id="887bc61529"><path d="M 96.886719 119.46875 L 134.824219 119.46875 L 134.824219 164.21875 L 96.886719 164.21875 Z M 96.886719 119.46875 " clip-rule="nonzero"/></clipPath><clipPath id="dda9b87cf6"><path d="M 98.296875 125.277344 C 95.429688 130.625 97.320312 138.371094 102.921875 144.894531 C 103.410156 147.90625 105.738281 161.589844 109.308594 163.101562 C 112.757812 164.566406 109.980469 145.539062 115.433594 143.824219 C 122.179688 141.699219 112.871094 166.746094 119.183594 163.808594 C 124.730469 161.226562 127.648438 146.125 128.050781 143.957031 C 134.949219 139.941406 136.53125 130.992188 132.386719 125.578125 C 128.75 120.847656 121.226562 119.480469 115.433594 123.296875 C 110.199219 118.066406 102.0625 118.304688 98.296875 125.277344 Z M 98.296875 125.277344 " clip-rule="nonzero"/></clipPath><clipPath id="104a8e3042"><path d="M 96.886719 119.46875 L 116 119.46875 L 116 164.21875 L 96.886719 164.21875 Z M 96.886719 119.46875 " clip-rule="nonzero"/></clipPath><clipPath id="3067550f0b"><path d="M 98.296875 125.277344 C 95.429688 130.625 97.320312 138.371094 102.921875 144.894531 C 103.410156 147.90625 105.738281 161.589844 109.308594 163.101562 C 112.757812 164.566406 109.980469 145.539062 115.433594 143.824219 C 122.179688 141.699219 112.871094 166.746094 119.183594 163.808594 C 124.730469 161.226562 127.648438 146.125 128.050781 143.957031 C 134.949219 139.941406 136.53125 130.992188 132.386719 125.578125 C 128.75 120.847656 121.226562 119.480469 115.433594 123.296875 C 110.199219 118.066406 102.0625 118.304688 98.296875 125.277344 Z M 98.296875 125.277344 " clip-rule="nonzero"/></clipPath></defs><rect x="-37.5" width="450" fill="#ffffff" y="-37.499999" height="449.999989" fill-opacity="1"/><rect x="-37.5" width="450" fill="#ffffff" y="-37.499999" height="449.999989" fill-opacity="1"/><path fill="#f5b493" d="M 121.460938 215.085938 L 117.894531 201.40625 C 117.894531 201.40625 106.492188 201.109375 102.40625 198.738281 C 98.320312 196.367188 86.808594 183.910156 88.742188 181.761719 C 90.671875 179.609375 95.871094 185.246094 95.871094 185.246094 C 95.871094 185.246094 88.265625 175.457031 90.574219 174.347656 C 92.878906 173.234375 99.339844 181.464844 99.339844 181.464844 C 99.339844 181.464844 91.949219 171.8125 94.300781 170.417969 C 96.65625 169.023438 103.050781 177.832031 103.050781 177.832031 C 101.402344 175.25 97.449219 168.269531 100.464844 167.582031 C 102.59375 167.09375 103.914062 172 108.488281 175.328125 C 114.367188 179.628906 118.019531 177.726562 123.675781 179.460938 C 124.523438 179.734375 125.292969 180.15625 125.980469 180.722656 C 129.347656 183.375 131.882812 188.746094 131.929688 188.820312 L 138.0625 200.5 C 138.0625 200.5 129.679688 216.53125 121.460938 215.085938 Z M 121.460938 215.085938 " fill-opacity="1" fill-rule="nonzero"/><path fill="#f5b493" d="M 118.257812 181.167969 C 118.257812 181.167969 115.191406 172.605469 117.695312 170.492188 C 120.199219 168.378906 127.394531 183.398438 127.394531 183.398438 C 127.394531 183.398438 119.476562 185.730469 118.257812 181.167969 Z M 118.257812 181.167969 " fill-opacity="1" fill-rule="nonzero"/><g clip-path="url(#e175054d80)"><path fill="#f5b493" d="M 210.917969 149.644531 L 234.261719 149.644531 L 234.261719 195.953125 L 210.917969 195.953125 Z M 210.917969 149.644531 " fill-opacity="1" fill-rule="nonzero"/></g><g clip-path="url(#46eaec4ebe)"><path fill="#e39c76" d="M 233.144531 159.945312 C 230.605469 172.195312 220.640625 180.320312 208.75 181.511719 L 207.632812 167.742188 Z M 233.144531 159.945312 " fill-opacity="1" fill-rule="nonzero"/></g><path fill="#86ebf9" d="M 133.410156 191.539062 L 156.378906 235.964844 C 169.960938 213.214844 173.652344 199.542969 181.378906 192.375 C 184.816406 189.238281 188.71875 186.863281 193.089844 185.257812 C 195.179688 184.507812 197.304688 183.875 199.46875 183.363281 C 195.167969 202.03125 190.875 220.703125 186.585938 239.378906 C 179.054688 260.417969 165.648438 274.785156 153.933594 273.554688 C 142.214844 272.324219 134.582031 255.738281 125.480469 235.964844 C 121.238281 226.730469 117.851562 217.191406 115.320312 207.347656 Z M 133.410156 191.539062 " fill-opacity="1" fill-rule="nonzero"/><path fill="#f5b493" d="M 237.023438 105.90625 C 227.210938 98.5625 212.695312 98.738281 203.9375 105.128906 C 201.523438 106.683594 199.378906 108.546875 197.507812 110.722656 C 191.429688 116.507812 192.359375 122.980469 191.574219 131.492188 C 191.261719 134.933594 189.996094 138.121094 189.335938 143.375 C 188.679688 148.628906 189.214844 153.601562 193.1875 162.875 C 196.261719 170.042969 198.863281 173.101562 200.761719 174.324219 C 208.023438 178.992188 218.097656 173.652344 221.882812 171.660156 C 225.273438 169.820312 228.359375 167.566406 231.144531 164.902344 C 236.269531 160.742188 248.011719 149.410156 248.171875 132.542969 C 248.195312 128.933594 248.320312 114.367188 237.023438 105.90625 Z M 237.023438 105.90625 " fill-opacity="1" fill-rule="nonzero"/><path fill="#2d1929" d="M 203.644531 151.003906 C 201.726562 149.933594 200.742188 148.800781 200.722656 147.636719 C 200.667969 145.054688 205.152344 144.714844 206.582031 136.976562 C 206.605469 136.835938 206.6875 136.777344 206.832031 136.800781 C 206.972656 136.828125 207.03125 136.910156 207.003906 137.054688 C 205.558594 144.910156 201.105469 145.320312 201.152344 147.625 C 201.175781 148.628906 202.082031 149.636719 203.855469 150.636719 C 203.945312 150.714844 203.960938 150.804688 203.902344 150.90625 C 203.84375 151.011719 203.757812 151.042969 203.644531 151.003906 Z M 203.644531 151.003906 " fill-opacity="1" fill-rule="nonzero"/><path fill="#2d1929" d="M 198.144531 133.914062 C 196.90625 133.808594 195.773438 135.277344 195.613281 137.1875 C 195.453125 139.097656 196.324219 140.730469 197.566406 140.832031 C 198.808594 140.9375 199.9375 139.472656 200.097656 137.5625 C 200.257812 135.652344 199.382812 134.015625 198.144531 133.914062 Z M 198.144531 133.914062 " fill-opacity="1" fill-rule="nonzero"/><path fill="#2d1929" d="M 217.425781 135.523438 C 216.183594 135.417969 215.050781 136.886719 214.890625 138.796875 C 214.730469 140.707031 215.609375 142.339844 216.84375 142.441406 C 218.082031 142.542969 219.214844 141.082031 219.375 139.171875 C 219.535156 137.261719 218.664062 135.625 217.425781 135.523438 Z M 217.425781 135.523438 " fill-opacity="1" fill-rule="nonzero"/><path fill="#2d1929" d="M 205.125 127.53125 C 205.015625 127.53125 204.925781 127.5 204.84375 127.429688 C 204.664062 127.269531 200.339844 123.660156 195.308594 126.527344 C 195.207031 126.578125 195.097656 126.589844 194.988281 126.558594 C 194.878906 126.527344 194.792969 126.460938 194.734375 126.359375 C 194.675781 126.261719 194.660156 126.152344 194.6875 126.042969 C 194.71875 125.929688 194.78125 125.84375 194.875 125.78125 C 200.441406 122.609375 205.351562 126.730469 205.398438 126.773438 C 205.550781 126.90625 205.59375 127.0625 205.523438 127.25 C 205.457031 127.4375 205.324219 127.53125 205.125 127.53125 Z M 205.125 127.53125 " fill-opacity="1" fill-rule="nonzero"/><path fill="#2d1929" d="M 223.769531 130.089844 C 223.609375 130.089844 223.484375 130.019531 223.402344 129.886719 C 220.320312 124.972656 214.632812 126.167969 214.574219 126.179688 C 214.453125 126.214844 214.339844 126.199219 214.234375 126.136719 C 214.128906 126.074219 214.0625 125.980469 214.035156 125.859375 C 214.007812 125.738281 214.03125 125.628906 214.101562 125.527344 C 214.167969 125.421875 214.265625 125.363281 214.386719 125.34375 C 214.453125 125.34375 220.730469 124.007812 224.128906 129.429688 C 224.21875 129.574219 224.222656 129.71875 224.140625 129.867188 C 224.0625 130.011719 223.9375 130.085938 223.769531 130.089844 Z M 223.769531 130.089844 " fill-opacity="1" fill-rule="nonzero"/><g clip-path="url(#38554d68cd)"><path fill="#287eef" d="M 180.359375 278.671875 C 179.925781 257.84375 179.203125 240.960938 178.632812 229.863281 C 177.699219 211.128906 177.027344 203.855469 182 196.363281 C 190.820312 183.089844 208.882812 181.683594 216.582031 181.082031 C 226.339844 180.320312 244.246094 178.929688 253.613281 190.136719 C 263.601562 202.09375 254.042969 218.140625 254.414062 278.671875 Z M 180.359375 278.671875 " fill-opacity="1" fill-rule="nonzero"/></g><g clip-path="url(#970f96c9d6)"><path fill="#86ebf9" d="M 208.257812 181.996094 L 202.238281 278.671875 L 176.917969 278.671875 C 176.917969 278.671875 174.542969 207.753906 177.929688 198.054688 C 181.378906 188.191406 198.128906 182.503906 208.257812 181.996094 Z M 208.257812 181.996094 " fill-opacity="1" fill-rule="nonzero"/></g><g clip-path="url(#28c1f20b95)"><path fill="#86ebf9" d="M 232.886719 181.996094 L 230.160156 278.671875 L 258.542969 278.671875 L 257.984375 205.167969 C 257.984375 205.167969 241.859375 180.535156 232.886719 181.996094 Z M 232.886719 181.996094 " fill-opacity="1" fill-rule="nonzero"/></g><path fill="#f5b493" d="M 210.90625 181.476562 C 210.90625 187.316406 213.425781 191.992188 217.171875 193.261719 C 219.90625 194.191406 222.535156 193.058594 224.117188 192.375 C 230.855469 189.457031 233.523438 182.546875 234.261719 180.378906 C 226.398438 179.085938 218.613281 179.453125 210.90625 181.476562 Z M 210.90625 181.476562 " fill-opacity="1" fill-rule="nonzero"/><g clip-path="url(#476bc09c14)"><path fill="#86ebf9" d="M 234.261719 180.378906 C 234.261719 180.378906 260.828125 182.925781 268.554688 200.171875 C 276.277344 217.417969 275.980469 278.671875 275.980469 278.671875 L 250.574219 278.671875 L 248.152344 211.179688 L 238.398438 186.625 Z M 234.261719 180.378906 " fill-opacity="1" fill-rule="nonzero"/></g><path fill="#86ebf9" d="M 237.140625 180.792969 L 234.261719 180.378906 L 232.835938 183.730469 L 233.894531 185.351562 L 236.863281 184.308594 Z M 237.140625 180.792969 " fill-opacity="1" fill-rule="nonzero"/><g clip-path="url(#a00dfebf68)"><path fill="#40c2d6" d="M 256.820312 205.46875 L 251.46875 227.039062 C 251.46875 227.039062 252.585938 250.503906 251.898438 253.394531 C 251.214844 256.289062 243.679688 258.398438 244.339844 260.402344 C 245 262.402344 250.5625 262.738281 251.34375 265.292969 C 252.125 267.847656 251.230469 278.667969 251.230469 278.667969 L 256.820312 278.667969 L 254.589844 228.492188 Z M 256.820312 205.46875 " fill-opacity="1" fill-rule="nonzero"/></g><g clip-path="url(#c9eadfecc1)"><path fill="#40c2d6" d="M 176.414062 259.238281 C 176.414062 259.238281 176.820312 211.695312 178.378906 210.140625 C 179.941406 208.585938 180.609375 258.40625 184.171875 261.296875 C 187.738281 264.1875 197.296875 261.726562 192.183594 269.304688 C 187.070312 276.878906 190.433594 278.671875 190.433594 278.671875 L 176.917969 278.671875 Z M 176.414062 259.238281 " fill-opacity="1" fill-rule="nonzero"/></g><path fill="#40c2d6" d="M 204.339844 182.867188 L 195.203125 206.816406 L 200.777344 209.027344 L 196.207031 216.921875 C 198.917969 220.632812 201.625 224.339844 204.339844 228.042969 L 199.773438 216.808594 L 204.5625 208.695312 L 198.324219 205.253906 Z M 204.339844 182.867188 " fill-opacity="1" fill-rule="nonzero"/><path fill="#40c2d6" d="M 236.316406 181.9375 L 241.773438 204.234375 L 235.738281 210.015625 L 240.4375 214.699219 L 232.835938 227.378906 L 243.558594 215.363281 L 240.007812 209.25 L 245.5625 204.664062 Z M 236.316406 181.9375 " fill-opacity="1" fill-rule="nonzero"/><path fill="#40c2d6" d="M 156.378906 235.964844 C 156.378906 235.964844 160.257812 251.507812 157.394531 265.964844 C 163.167969 253.707031 164.222656 240.386719 161.308594 227.378906 Z M 156.378906 235.964844 " fill-opacity="1" fill-rule="nonzero"/><path fill="#2d1929" d="M 192.015625 125.003906 C 192.015625 125.003906 187.738281 114.738281 190.746094 108.28125 C 193.757812 101.828125 201.554688 102.386719 201.554688 102.386719 C 201.554688 102.386719 203.558594 92.0625 221.164062 93.378906 C 238.769531 94.695312 255.257812 101.601562 256.820312 117.839844 C 258.378906 134.078125 253.800781 155.023438 234.261719 162.117188 C 234.261719 162.117188 241.878906 144.316406 242.109375 138.273438 C 242.34375 132.226562 235.984375 133.070312 236.429688 122.175781 C 236.871094 111.28125 211.472656 113.015625 206.8125 106.941406 C 206.8125 106.941406 193.285156 110.816406 192.015625 125.003906 Z M 192.015625 125.003906 " fill-opacity="1" fill-rule="nonzero"/><path fill="#f5b493" d="M 246.277344 132.480469 C 242.472656 130.949219 237.878906 133.449219 236.007812 138.074219 C 234.136719 142.699219 235.707031 147.671875 239.515625 149.210938 C 243.320312 150.746094 247.921875 148.246094 249.789062 143.617188 C 251.65625 138.988281 250.085938 134.019531 246.277344 132.480469 Z M 246.277344 132.480469 " fill-opacity="1" fill-rule="nonzero"/><path fill="#2d1929" d="M 239.097656 144.355469 C 239.1875 144.355469 241.253906 144.03125 241.460938 141.976562 C 241.59375 140.558594 239.03125 140.140625 239.007812 140.136719 C 238.9375 140.125 238.882812 140.089844 238.847656 140.027344 C 238.8125 139.964844 238.8125 139.902344 238.839844 139.839844 C 238.929688 139.628906 241.09375 134.625 244.515625 134.78125 C 247.503906 134.929688 247.402344 138.324219 247.402344 138.359375 C 247.394531 138.5 247.320312 138.566406 247.179688 138.566406 C 247.035156 138.558594 246.96875 138.484375 246.972656 138.339844 C 246.972656 138.21875 247.054688 135.328125 244.496094 135.214844 C 241.773438 135.078125 239.820312 138.769531 239.347656 139.765625 C 240.089844 139.929688 242.027344 140.503906 241.886719 142.015625 C 241.65625 144.414062 239.183594 144.777344 239.15625 144.78125 C 239.015625 144.800781 238.9375 144.738281 238.917969 144.597656 C 238.898438 144.460938 238.957031 144.378906 239.097656 144.355469 Z M 239.097656 144.355469 " fill-opacity="1" fill-rule="nonzero"/><path fill="#40c2d6" d="M 196.507812 108.710938 C 215.847656 117.761719 236.003906 124.335938 256.964844 128.4375 C 256.855469 130.652344 256.53125 132.835938 256 134.988281 C 234.777344 130.03125 214.203125 123.148438 194.277344 114.335938 C 195.019531 112.46875 195.761719 110.59375 196.507812 108.710938 Z M 196.507812 108.710938 " fill-opacity="1" fill-rule="nonzero"/><path fill="#86ebf9" d="M 184.289062 101.761719 C 184.433594 101.113281 184.605469 100.472656 184.808594 99.839844 C 185.015625 99.207031 185.246094 98.582031 185.507812 97.972656 C 185.773438 97.359375 186.0625 96.761719 186.378906 96.179688 C 186.699219 95.59375 187.042969 95.027344 187.414062 94.472656 C 187.785156 93.921875 188.183594 93.386719 188.605469 92.875 C 189.027344 92.359375 189.472656 91.863281 189.941406 91.390625 C 190.40625 90.917969 190.898438 90.46875 191.40625 90.039062 C 191.917969 89.613281 192.449219 89.210938 192.996094 88.832031 C 193.542969 88.453125 194.109375 88.101562 194.691406 87.777344 C 195.269531 87.449219 195.867188 87.152344 196.476562 86.882812 C 197.085938 86.613281 197.703125 86.375 198.335938 86.164062 C 198.96875 85.949219 199.609375 85.769531 200.257812 85.617188 C 200.90625 85.464844 201.5625 85.34375 202.222656 85.253906 C 202.882812 85.164062 203.542969 85.105469 204.210938 85.074219 C 204.875 85.046875 205.542969 85.050781 206.207031 85.082031 C 206.871094 85.117188 207.535156 85.183594 208.195312 85.277344 C 208.851562 85.375 209.507812 85.5 210.15625 85.65625 C 210.800781 85.8125 211.441406 86 212.070312 86.21875 C 212.699219 86.433594 213.320312 86.679688 213.925781 86.953125 C 214.535156 87.226562 215.125 87.53125 215.703125 87.859375 C 216.285156 88.191406 216.84375 88.546875 217.390625 88.929688 C 217.9375 89.3125 218.460938 89.71875 218.96875 90.148438 C 219.476562 90.582031 219.960938 91.035156 220.425781 91.511719 C 220.890625 91.988281 221.332031 92.488281 221.75 93.007812 C 222.164062 93.523438 222.558594 94.0625 222.925781 94.617188 C 223.292969 95.171875 223.632812 95.742188 223.945312 96.328125 C 224.261719 96.914062 224.546875 97.515625 224.804688 98.128906 C 225.058594 98.742188 225.289062 99.367188 225.488281 100 C 225.6875 100.636719 225.855469 101.28125 225.992188 101.929688 C 226.128906 102.582031 226.238281 103.238281 226.316406 103.898438 C 226.390625 104.558594 226.4375 105.21875 226.453125 105.886719 C 226.464844 106.550781 226.449219 107.214844 226.402344 107.878906 C 226.355469 108.542969 226.277344 109.199219 226.164062 109.855469 C 226.054688 110.511719 225.914062 111.164062 225.746094 111.804688 C 225.574219 112.449219 225.375 113.082031 225.144531 113.707031 C 224.914062 114.332031 224.65625 114.941406 224.367188 115.542969 C 224.078125 116.140625 223.765625 116.726562 223.421875 117.296875 C 223.078125 117.867188 222.710938 118.421875 222.316406 118.957031 C 221.921875 119.492188 221.503906 120.011719 221.058594 120.507812 C 220.617188 121.003906 220.152344 121.480469 219.664062 121.933594 C 219.175781 122.386719 218.667969 122.816406 218.140625 123.222656 C 217.613281 123.625 217.066406 124.007812 216.503906 124.363281 C 215.941406 124.714844 215.359375 125.042969 214.765625 125.34375 C 214.171875 125.644531 213.566406 125.917969 212.945312 126.160156 C 212.324219 126.40625 211.695312 126.621094 211.054688 126.804688 C 210.414062 126.988281 209.765625 127.144531 209.113281 127.269531 C 208.457031 127.394531 207.800781 127.488281 207.136719 127.550781 C 206.472656 127.613281 205.808594 127.644531 205.140625 127.644531 C 204.347656 127.640625 203.554688 127.589844 202.765625 127.496094 C 201.976562 127.40625 201.199219 127.269531 200.425781 127.089844 C 199.652344 126.910156 198.890625 126.6875 198.140625 126.425781 C 197.390625 126.160156 196.660156 125.859375 195.945312 125.511719 C 195.230469 125.167969 194.535156 124.785156 193.863281 124.363281 C 193.191406 123.941406 192.542969 123.484375 191.921875 122.992188 C 191.300781 122.5 190.707031 121.972656 190.144531 121.414062 C 189.582031 120.855469 189.050781 120.265625 188.554688 119.648438 C 188.058594 119.03125 187.59375 118.386719 187.167969 117.71875 C 186.742188 117.050781 186.355469 116.359375 186.007812 115.648438 C 185.65625 114.9375 185.347656 114.207031 185.082031 113.460938 C 184.8125 112.714844 184.585938 111.957031 184.402344 111.1875 C 184.21875 110.414062 184.078125 109.636719 183.980469 108.851562 C 183.882812 108.0625 183.828125 107.273438 183.820312 106.480469 C 183.8125 105.6875 183.84375 104.898438 183.921875 104.109375 C 184.003906 103.320312 184.125 102.539062 184.289062 101.761719 Z M 205.121094 103.082031 C 204.707031 103.082031 204.308594 103.15625 203.925781 103.308594 C 203.539062 103.457031 203.199219 103.675781 202.894531 103.957031 C 202.59375 104.234375 202.355469 104.5625 202.175781 104.933594 C 201.996094 105.304688 201.894531 105.695312 201.863281 106.109375 C 201.835938 106.519531 201.882812 106.921875 202.003906 107.3125 C 202.128906 107.707031 202.316406 108.0625 202.578125 108.386719 C 202.835938 108.707031 203.144531 108.96875 203.5 109.171875 C 203.859375 109.378906 204.242188 109.507812 204.652344 109.570312 C 205.058594 109.628906 205.464844 109.613281 205.867188 109.519531 C 206.269531 109.425781 206.640625 109.261719 206.980469 109.027344 C 207.320312 108.792969 207.605469 108.503906 207.835938 108.164062 C 208.066406 107.820312 208.222656 107.449219 208.3125 107.046875 C 208.363281 106.808594 208.386719 106.566406 208.386719 106.324219 C 208.382812 106.082031 208.351562 105.839844 208.296875 105.601562 C 208.238281 105.367188 208.160156 105.136719 208.050781 104.917969 C 207.945312 104.699219 207.8125 104.496094 207.660156 104.304688 C 207.507812 104.117188 207.335938 103.945312 207.144531 103.792969 C 206.953125 103.640625 206.75 103.511719 206.527344 103.40625 C 206.308594 103.300781 206.078125 103.222656 205.84375 103.164062 C 205.605469 103.109375 205.363281 103.082031 205.121094 103.082031 Z M 205.121094 103.082031 " fill-opacity="1" fill-rule="nonzero"/><g clip-path="url(#09c940e461)"><g clip-path="url(#d5b58eb683)"><path fill="#e8e7e3" d="M 218.628906 82.917969 L 180.832031 120.730469 L 183.78125 123.621094 L 220.496094 86.917969 L 221.832031 88.144531 L 187.960938 123.621094 L 189.101562 125.003906 L 225.621094 91.035156 L 225.621094 86.363281 Z M 218.628906 82.917969 " fill-opacity="1" fill-rule="nonzero"/></g></g><g clip-path="url(#887bc61529)"><g clip-path="url(#dda9b87cf6)"><path fill="#e8e7e3" d="M 98.296875 125.277344 C 95.429688 130.625 97.320312 138.371094 102.921875 144.894531 C 103.410156 147.90625 105.738281 161.589844 109.308594 163.101562 C 112.757812 164.566406 109.980469 145.539062 115.433594 143.824219 C 122.179688 141.699219 112.871094 166.746094 119.183594 163.808594 C 124.730469 161.226562 127.648438 146.125 128.050781 143.957031 C 134.949219 139.941406 136.53125 130.992188 132.386719 125.578125 C 128.75 120.847656 121.226562 119.480469 115.433594 123.296875 C 110.199219 118.066406 102.0625 118.304688 98.296875 125.277344 Z M 98.296875 125.277344 " fill-opacity="1" fill-rule="nonzero"/></g></g><g clip-path="url(#104a8e3042)"><g clip-path="url(#3067550f0b)"><path fill="#c6c6c6" d="M 115.425781 123.296875 C 111.074219 121.335938 106.214844 121.230469 103.289062 123.59375 C 98.929688 127.121094 98.417969 136.480469 105.308594 143.320312 C 105.308594 143.320312 106.9375 162.949219 110.867188 164.769531 L 103.289062 162.574219 C 96.714844 139.816406 98.828125 146.511719 93.871094 132.402344 L 95.023438 121.214844 L 102.703125 116.414062 L 110.28125 115.648438 L 115.808594 117.085938 Z M 115.425781 123.296875 " fill-opacity="1" fill-rule="nonzero"/></g></g><path fill="#e8e7e3" d="M 201.855469 158.539062 L 214.875 154.980469 C 214.847656 155.75 214.714844 156.5 214.472656 157.230469 C 214.230469 157.964844 213.886719 158.644531 213.449219 159.277344 C 213.007812 159.910156 212.488281 160.46875 211.886719 160.953125 C 211.285156 161.4375 210.625 161.824219 209.914062 162.117188 C 204.898438 164.21875 201.855469 158.539062 201.855469 158.539062 Z M 201.855469 158.539062 " fill-opacity="1" fill-rule="nonzero"/><path fill="#40c2d6" d="M 135.484375 195.546875 L 136.210938 199.242188 L 130.195312 206.859375 L 138.40625 201.203125 Z M 135.484375 195.546875 " fill-opacity="1" fill-rule="nonzero"/><path fill="#40c2d6" d="M 134.539062 198.738281 C 134.539062 199.027344 134.484375 199.304688 134.375 199.570312 C 134.261719 199.835938 134.105469 200.070312 133.902344 200.273438 C 133.699219 200.476562 133.464844 200.632812 133.199219 200.742188 C 132.929688 200.851562 132.652344 200.90625 132.367188 200.90625 C 132.078125 200.90625 131.800781 200.851562 131.535156 200.742188 C 131.269531 200.632812 131.035156 200.476562 130.828125 200.273438 C 130.625 200.070312 130.46875 199.835938 130.359375 199.570312 C 130.25 199.304688 130.195312 199.027344 130.195312 198.738281 C 130.195312 198.449219 130.25 198.175781 130.359375 197.910156 C 130.46875 197.644531 130.625 197.410156 130.828125 197.207031 C 131.035156 197 131.269531 196.84375 131.535156 196.734375 C 131.800781 196.625 132.078125 196.570312 132.367188 196.570312 C 132.652344 196.570312 132.929688 196.625 133.199219 196.734375 C 133.464844 196.84375 133.699219 197 133.902344 197.207031 C 134.105469 197.410156 134.261719 197.644531 134.375 197.910156 C 134.484375 198.175781 134.539062 198.449219 134.539062 198.738281 Z M 134.539062 198.738281 " fill-opacity="1" fill-rule="nonzero"/><path fill="#2d1929" d="M 114.082031 191.65625 C 111.066406 187.210938 113.621094 182.78125 114.863281 181.089844 C 108.292969 184.296875 105.8125 190.863281 105.773438 190.933594 C 105.726562 191.074219 105.632812 191.117188 105.496094 191.066406 C 105.355469 191.019531 105.3125 190.925781 105.367188 190.789062 C 105.394531 190.714844 108.160156 183.433594 115.511719 180.320312 C 115.617188 180.269531 115.707031 180.292969 115.777344 180.390625 C 115.84375 180.484375 115.839844 180.578125 115.757812 180.664062 C 115.703125 180.71875 110.792969 186.070312 114.4375 191.417969 C 114.488281 191.53125 114.464844 191.621094 114.363281 191.6875 C 114.261719 191.757812 114.167969 191.746094 114.082031 191.65625 Z M 114.082031 191.65625 " fill-opacity="1" fill-rule="nonzero"/><path fill="#86ebf9" d="M 123.453125 99.992188 L 125.023438 117.25 L 127.347656 100.617188 Z M 123.453125 99.992188 " fill-opacity="1" fill-rule="nonzero"/><path fill="#86ebf9" d="M 145.871094 107.1875 L 134.808594 119.851562 L 147.617188 109.933594 Z M 145.871094 107.1875 " fill-opacity="1" fill-rule="nonzero"/><path fill="#86ebf9" d="M 154.265625 125.085938 L 139.632812 130.855469 L 155.035156 129.132812 C 154.78125 127.785156 154.523438 126.433594 154.265625 125.085938 Z M 154.265625 125.085938 " fill-opacity="1" fill-rule="nonzero"/></svg>