<svg xmlns="http://www.w3.org/2000/svg" xmlns:xlink="http://www.w3.org/1999/xlink" width="500" zoomAndPan="magnify" viewBox="0 0 375 374.999991" height="500" preserveAspectRatio="xMidYMid meet" version="1.0"><defs><clipPath id="c0f0d49eb4"><path d="M 115 112.5 L 262.023438 112.5 L 262.023438 260 L 115 260 Z M 115 112.5 " clip-rule="nonzero"/></clipPath></defs><rect x="-37.5" width="450" fill="#ffffff" y="-37.499999" height="449.999989" fill-opacity="1"/><rect x="-37.5" width="450" fill="#ffffff" y="-37.499999" height="449.999989" fill-opacity="1"/><path fill="#9dcafc" d="M 253.550781 126.941406 L 222.28125 126.941406 C 217.097656 126.941406 212.066406 124.964844 208.425781 121.269531 C 204.6875 117.476562 199.617188 115.398438 194.394531 115.398438 L 136.828125 115.398438 C 133.644531 115.398438 130.949219 117.914062 130.910156 121.097656 C 130.867188 124.316406 133.46875 126.941406 136.679688 126.941406 L 160.285156 131.898438 L 182.851562 126.941406 L 188.621094 126.941406 C 193.847656 126.941406 198.859375 129.015625 202.554688 132.710938 C 206.234375 136.394531 211.246094 138.488281 216.488281 138.488281 L 253.554688 138.488281 C 256.738281 138.488281 259.324219 135.902344 259.324219 132.714844 L 259.324219 132.710938 C 259.324219 129.527344 256.738281 126.941406 253.550781 126.941406 Z M 253.550781 126.941406 " fill-opacity="1" fill-rule="nonzero"/><path fill="#ffffff" d="M 195.574219 166.734375 L 128.703125 168.851562 L 128.703125 168.855469 C 118.503906 175.558594 115.402344 187.667969 119.949219 197.214844 C 134.882812 228.53125 131.222656 225.816406 133.730469 240.851562 L 135.476562 251.308594 C 136.003906 254.46875 138.960938 256.800781 142.441406 256.800781 C 145.550781 256.800781 148.292969 254.929688 149.1875 252.195312 L 157.15625 227.921875 C 159.355469 221.21875 168.835938 221.21875 171.035156 227.921875 L 178.996094 252.195312 C 179.867188 254.855469 182.554688 256.800781 185.75 256.800781 C 189.226562 256.800781 192.1875 254.472656 192.710938 251.308594 L 194.457031 240.851562 C 196.964844 225.816406 193.304688 228.53125 208.238281 197.214844 C 213.460938 186.253906 208.46875 172.375 195.574219 166.734375 Z M 195.574219 166.734375 " fill-opacity="1" fill-rule="nonzero"/><path fill="#ffffff" d="M 136.679688 126.941406 C 136.679688 131.300781 136.679688 146.089844 136.679688 150.453125 L 139.9375 155.566406 L 148.222656 150.339844 L 150.742188 138.488281 L 148.222656 126.941406 Z M 136.679688 126.941406 " fill-opacity="1" fill-rule="nonzero"/><path fill="#ffffff" d="M 159.765625 126.941406 L 158.503906 136.496094 L 159.765625 150.058594 L 167.996094 155.566406 L 171.308594 152.390625 L 172.816406 135.863281 L 171.308594 126.941406 Z M 159.765625 126.941406 " fill-opacity="1" fill-rule="nonzero"/><path fill="#ffffff" d="M 148.222656 126.941406 L 148.222656 150.339844 L 153.238281 154.707031 L 159.765625 150.058594 L 159.765625 126.941406 Z M 148.222656 126.941406 " fill-opacity="1" fill-rule="nonzero"/><path fill="#ffffff" d="M 171.308594 126.941406 L 171.308594 152.390625 L 180.21875 153.613281 L 182.851562 151.402344 C 182.851562 146.863281 182.851562 131.480469 182.851562 126.941406 Z M 171.308594 126.941406 " fill-opacity="1" fill-rule="nonzero"/><path fill="#9dcafc" d="M 167.996094 155.566406 C 170.496094 151.136719 176.464844 150.171875 180.21875 153.613281 C 182.105469 151.386719 184.886719 150.027344 187.9375 150.027344 C 193.515625 150.027344 198.035156 154.550781 198.035156 160.128906 C 198.035156 167.976562 189.433594 172.804688 182.753906 168.800781 C 182.398438 172.835938 179.007812 176 174.882812 176 C 171.34375 176 168.34375 173.671875 167.339844 170.464844 C 164.144531 176.125 155.890625 175.726562 153.238281 169.8125 C 152.003906 172.570312 149.238281 174.492188 146.023438 174.492188 C 142.523438 174.492188 139.554688 172.210938 138.515625 169.058594 C 131.773438 172.628906 123.691406 167.699219 123.691406 160.128906 C 123.691406 153.375 130.207031 148.523438 136.679688 150.449219 L 136.679688 150.453125 C 138 150.84375 139.25 151.507812 140.34375 152.441406 C 144.214844 148.433594 150.945312 149.574219 153.238281 154.707031 C 154.484375 151.925781 157.265625 150.027344 160.453125 150.027344 C 163.992188 150.027344 166.988281 152.355469 167.996094 155.566406 Z M 167.996094 155.566406 " fill-opacity="1" fill-rule="nonzero"/><path fill="#ffffff" d="M 226.136719 151.472656 C 228.527344 160.128906 230.464844 162.066406 239.121094 164.457031 C 230.464844 166.847656 228.527344 168.789062 226.136719 177.445312 C 223.746094 168.789062 221.808594 166.847656 213.152344 164.457031 C 221.808594 162.066406 223.746094 160.128906 226.136719 151.472656 Z M 226.136719 151.472656 " fill-opacity="1" fill-rule="nonzero"/><g clip-path="url(#c0f0d49eb4)"><path fill="#000000" d="M 253.550781 124.070312 L 222.28125 124.070312 C 209.617188 124.070312 209.605469 112.523438 194.394531 112.523438 L 136.828125 112.523438 C 132.039062 112.523438 128.09375 116.355469 128.035156 121.058594 C 127.984375 124.875 130.40625 128.128906 133.804688 129.324219 L 133.804688 147.144531 C 127.027344 147.15625 120.820312 152.59375 120.820312 160.128906 C 120.820312 163.484375 122.078125 166.476562 124.101562 168.742188 C 114.992188 176.660156 112.761719 188.8125 117.355469 198.449219 C 132.042969 229.25 128.375 226.222656 130.894531 241.324219 L 132.640625 251.78125 C 134.269531 261.570312 148.835938 262.496094 151.917969 253.089844 L 159.886719 228.820312 C 161.21875 224.75 166.96875 224.746094 168.304688 228.820312 L 176.265625 253.089844 C 179.332031 262.460938 193.914062 261.601562 195.546875 251.78125 L 197.292969 241.324219 C 199.8125 226.214844 196.140625 229.257812 210.832031 198.449219 C 216.402344 186.757812 211.679688 172.554688 199.703125 165.609375 C 204.019531 156.460938 196.304688 145.519531 185.726562 147.34375 L 185.726562 129.816406 L 188.621094 129.816406 C 201.175781 129.816406 201.355469 141.359375 216.492188 141.359375 L 253.550781 141.359375 C 258.320312 141.359375 262.199219 137.480469 262.199219 132.714844 C 262.199219 127.945312 258.320312 124.070312 253.550781 124.070312 Z M 156.890625 129.816406 L 156.890625 147.761719 C 155.582031 148.222656 154.335938 148.941406 153.238281 149.929688 C 152.574219 149.332031 151.855469 148.832031 151.097656 148.425781 L 151.097656 129.816406 Z M 168.433594 129.816406 L 168.433594 150.675781 C 166.851562 148.925781 164.804688 147.816406 162.640625 147.375 L 162.640625 129.816406 Z M 145.347656 147.175781 C 143.550781 147.285156 141.777344 147.84375 140.207031 148.855469 C 139.992188 148.730469 139.773438 148.617188 139.554688 148.503906 L 139.554688 129.816406 L 145.347656 129.816406 Z M 205.644531 195.976562 C 191.726562 225.164062 194.589844 220.839844 189.875 250.839844 C 189.242188 254.660156 182.953125 255.039062 181.730469 251.300781 L 173.765625 227.027344 C 170.703125 217.695312 157.488281 217.671875 154.421875 227.027344 L 146.457031 251.300781 C 145.234375 255.035156 138.949219 254.667969 138.308594 250.835938 L 136.566406 240.378906 C 134.0625 225.371094 137.738281 227.839844 122.546875 195.976562 C 118.863281 188.25 120.945312 178.304688 128.984375 172.175781 C 131.460938 173.171875 134.285156 173.421875 137.121094 172.667969 C 140.785156 178.046875 148.378906 178.964844 153.238281 174.589844 C 157.050781 178.023438 162.710938 178.292969 166.828125 175.273438 C 171.886719 180.972656 181.363281 179.757812 184.648438 172.679688 C 188.632812 173.71875 192.917969 172.789062 196.117188 170.195312 C 206.335938 175.679688 209.886719 187.074219 205.644531 195.976562 Z M 193.878906 164.238281 C 191.714844 167.359375 187.480469 168.28125 184.230469 166.332031 C 182.410156 165.242188 180.074219 166.4375 179.890625 168.546875 C 179.664062 171.113281 177.464844 173.125 174.882812 173.125 C 172.671875 173.125 170.742188 171.710938 170.082031 169.605469 C 169.742188 168.511719 168.78125 167.726562 167.640625 167.605469 C 166.492188 167.484375 165.351562 168.140625 164.835938 169.050781 C 162.808594 172.648438 157.550781 172.410156 155.859375 168.636719 C 155.398438 167.605469 154.371094 166.941406 153.238281 166.941406 C 153.277344 166.929688 151.40625 166.871094 150.613281 168.640625 C 149.804688 170.449219 148.003906 171.617188 146.023438 171.617188 C 143.847656 171.617188 141.925781 170.226562 141.25 168.160156 C 140.691406 166.46875 138.746094 165.683594 137.171875 166.519531 C 132.378906 169.054688 126.566406 165.574219 126.566406 160.128906 C 126.566406 153.957031 133.832031 150.667969 138.476562 154.628906 C 139.632812 155.613281 141.351562 155.53125 142.40625 154.4375 C 144.898438 151.863281 149.171875 152.648438 150.613281 155.878906 C 151.078125 156.914062 152.105469 157.582031 153.238281 157.582031 C 153.191406 157.59375 155.070312 157.648438 155.859375 155.882812 C 156.617188 154.195312 158.230469 153.066406 160.046875 152.921875 C 162.25 152.703125 164.519531 154.082031 165.253906 156.425781 C 166.003906 158.824219 169.265625 159.164062 170.5 156.976562 C 172.09375 154.152344 175.890625 153.546875 178.277344 155.730469 C 179.472656 156.828125 181.355469 156.71875 182.414062 155.46875 C 183.792969 153.839844 185.804688 152.902344 187.9375 152.902344 C 193.792969 152.902344 197.160156 159.511719 193.878906 164.238281 Z M 179.976562 149.882812 C 179.960938 149.894531 179.949219 149.90625 179.933594 149.917969 C 178.125 148.953125 176.132812 148.5625 174.183594 148.691406 L 174.183594 129.816406 L 179.976562 129.816406 Z M 253.550781 135.613281 L 216.492188 135.613281 C 203.957031 135.613281 203.863281 124.070312 188.621094 124.070312 C 181.769531 124.070312 141.011719 124.070312 136.679688 124.070312 C 135.066406 124.070312 133.761719 122.75 133.78125 121.132812 C 133.800781 119.554688 135.167969 118.273438 136.828125 118.273438 L 194.394531 118.273438 C 206.878906 118.273438 207.015625 129.816406 222.28125 129.816406 L 253.550781 129.816406 C 255.148438 129.816406 256.449219 131.117188 256.449219 132.714844 C 256.449219 134.3125 255.148438 135.613281 253.550781 135.613281 Z M 253.550781 135.613281 " fill-opacity="1" fill-rule="nonzero"/></g><path fill="#000000" d="M 239.886719 161.6875 C 232.167969 159.554688 231.039062 158.425781 228.90625 150.707031 C 228.5625 149.460938 227.429688 148.597656 226.136719 148.597656 C 224.84375 148.597656 223.710938 149.460938 223.367188 150.707031 C 221.234375 158.425781 220.105469 159.554688 212.386719 161.6875 C 211.140625 162.03125 210.277344 163.164062 210.277344 164.457031 C 210.277344 165.75 211.140625 166.882812 212.386719 167.226562 C 220.105469 169.359375 221.234375 170.488281 223.367188 178.207031 C 223.710938 179.453125 224.84375 180.316406 226.136719 180.316406 C 227.429688 180.316406 228.5625 179.453125 228.910156 178.207031 C 231.039062 170.488281 232.167969 169.359375 239.890625 167.226562 C 241.136719 166.882812 241.996094 165.75 241.996094 164.457031 C 241.996094 163.164062 241.132812 162.03125 239.886719 161.6875 Z M 226.136719 169.355469 C 224.910156 167.203125 223.390625 165.683594 221.238281 164.457031 C 223.390625 163.230469 224.910156 161.710938 226.136719 159.558594 C 227.363281 161.710938 228.886719 163.230469 231.035156 164.457031 C 228.886719 165.683594 227.363281 167.203125 226.136719 169.355469 Z M 226.136719 169.355469 " fill-opacity="1" fill-rule="nonzero"/></svg>